%TF.GenerationSoftware,KiCad,Pcbnew,(6.0.6)*%
%TF.CreationDate,2022-08-06T18:53:41-04:00*%
%TF.ProjectId,freedap-pico,66726565-6461-4702-9d70-69636f2e6b69,rev?*%
%TF.SameCoordinates,Original*%
%TF.FileFunction,Copper,L1,Top*%
%TF.FilePolarity,Positive*%
%FSLAX46Y46*%
G04 Gerber Fmt 4.6, Leading zero omitted, Abs format (unit mm)*
G04 Created by KiCad (PCBNEW (6.0.6)) date 2022-08-06 18:53:41*
%MOMM*%
%LPD*%
G01*
G04 APERTURE LIST*
%TA.AperFunction,ComponentPad*%
%ADD10R,1.700000X1.700000*%
%TD*%
%TA.AperFunction,ComponentPad*%
%ADD11O,1.700000X1.700000*%
%TD*%
%TA.AperFunction,SMDPad,CuDef*%
%ADD12R,2.400000X0.740000*%
%TD*%
%TA.AperFunction,SMDPad,CuDef*%
%ADD13R,3.500000X1.700000*%
%TD*%
%TA.AperFunction,SMDPad,CuDef*%
%ADD14R,1.700000X3.500000*%
%TD*%
%TA.AperFunction,ComponentPad*%
%ADD15C,1.600000*%
%TD*%
%TA.AperFunction,ComponentPad*%
%ADD16O,1.600000X1.600000*%
%TD*%
%TA.AperFunction,ComponentPad*%
%ADD17R,1.800000X1.800000*%
%TD*%
%TA.AperFunction,ComponentPad*%
%ADD18C,1.800000*%
%TD*%
%TA.AperFunction,ViaPad*%
%ADD19C,0.800000*%
%TD*%
%TA.AperFunction,Conductor*%
%ADD20C,0.250000*%
%TD*%
G04 APERTURE END LIST*
D10*
%TO.P,JPILL1,1,Pin_1*%
%TO.N,+3V3*%
X46990000Y-90170000D03*
D11*
%TO.P,JPILL1,2,Pin_2*%
%TO.N,/SWDIO{slash}TMS*%
X46990000Y-92710000D03*
%TO.P,JPILL1,3,Pin_3*%
%TO.N,/SWCLK{slash}TCLK*%
X46990000Y-95250000D03*
%TO.P,JPILL1,4,Pin_4*%
%TO.N,GND*%
X46990000Y-97790000D03*
%TD*%
D12*
%TO.P,JSWD1,1,Pin_1*%
%TO.N,+3V3*%
X52660000Y-91440000D03*
%TO.P,JSWD1,2,Pin_2*%
%TO.N,/SWDIO{slash}TMS*%
X56560000Y-91440000D03*
%TO.P,JSWD1,3,Pin_3*%
%TO.N,GND*%
X52660000Y-92710000D03*
%TO.P,JSWD1,4,Pin_4*%
%TO.N,/SWCLK{slash}TCLK*%
X56560000Y-92710000D03*
%TO.P,JSWD1,5,Pin_5*%
%TO.N,GND*%
X52660000Y-93980000D03*
%TO.P,JSWD1,6,Pin_6*%
%TO.N,/TDO*%
X56560000Y-93980000D03*
%TO.P,JSWD1,7,Pin_7*%
%TO.N,unconnected-(JSWD1-Pad7)*%
X52660000Y-95250000D03*
%TO.P,JSWD1,8,Pin_8*%
%TO.N,/TDI*%
X56560000Y-95250000D03*
%TO.P,JSWD1,9,Pin_9*%
%TO.N,GND*%
X52660000Y-96520000D03*
%TO.P,JSWD1,10,Pin_10*%
%TO.N,/nRST*%
X56560000Y-96520000D03*
%TD*%
D10*
%TO.P,JVCP1,1,Pin_1*%
%TO.N,+3V3*%
X46990000Y-105420000D03*
D11*
%TO.P,JVCP1,2,Pin_2*%
%TO.N,/VRX*%
X46990000Y-107960000D03*
%TO.P,JVCP1,3,Pin_3*%
%TO.N,/VTX*%
X46990000Y-110500000D03*
%TO.P,JVCP1,4,Pin_4*%
%TO.N,GND*%
X46990000Y-113040000D03*
%TD*%
D13*
%TO.P,U1,1,GPIO0*%
%TO.N,/VTX*%
X46090000Y-36830000D03*
D11*
X46990000Y-36830000D03*
%TO.P,U1,2,GPIO1*%
%TO.N,/VRX*%
X46990000Y-39370000D03*
D13*
X46090000Y-39370000D03*
D10*
%TO.P,U1,3,GND*%
%TO.N,GND*%
X46990000Y-41910000D03*
D13*
X46090000Y-41910000D03*
D11*
%TO.P,U1,4,GPIO2*%
%TO.N,/VSTAT*%
X46990000Y-44450000D03*
D13*
X46090000Y-44450000D03*
D11*
%TO.P,U1,5,GPIO3*%
%TO.N,unconnected-(U1-Pad5)*%
X46990000Y-46990000D03*
D13*
X46090000Y-46990000D03*
%TO.P,U1,6,GPIO4*%
%TO.N,unconnected-(U1-Pad6)*%
X46090000Y-49530000D03*
D11*
X46990000Y-49530000D03*
%TO.P,U1,7,GPIO5*%
%TO.N,unconnected-(U1-Pad7)*%
X46990000Y-52070000D03*
D13*
X46090000Y-52070000D03*
D10*
%TO.P,U1,8,GND*%
%TO.N,GND*%
X46990000Y-54610000D03*
D13*
X46090000Y-54610000D03*
D11*
%TO.P,U1,9,GPIO6*%
%TO.N,unconnected-(U1-Pad9)*%
X46990000Y-57150000D03*
D13*
X46090000Y-57150000D03*
%TO.P,U1,10,GPIO7*%
%TO.N,unconnected-(U1-Pad10)*%
X46090000Y-59690000D03*
D11*
X46990000Y-59690000D03*
%TO.P,U1,11,GPIO8*%
%TO.N,unconnected-(U1-Pad11)*%
X46990000Y-62230000D03*
D13*
X46090000Y-62230000D03*
D11*
%TO.P,U1,12,GPIO9*%
%TO.N,unconnected-(U1-Pad12)*%
X46990000Y-64770000D03*
D13*
X46090000Y-64770000D03*
%TO.P,U1,13,GND*%
%TO.N,unconnected-(U1-Pad13)*%
X46090000Y-67310000D03*
D10*
X46990000Y-67310000D03*
D11*
%TO.P,U1,14,GPIO10*%
%TO.N,unconnected-(U1-Pad14)*%
X46990000Y-69850000D03*
D13*
X46090000Y-69850000D03*
D11*
%TO.P,U1,15,GPIO11*%
%TO.N,/SWCLK{slash}TCLK*%
X46990000Y-72390000D03*
D13*
X46090000Y-72390000D03*
D11*
%TO.P,U1,16,GPIO12*%
%TO.N,/SWDIO{slash}TMS*%
X46990000Y-74930000D03*
D13*
X46090000Y-74930000D03*
D11*
%TO.P,U1,17,GPIO13*%
%TO.N,/TDI*%
X46990000Y-77470000D03*
D13*
X46090000Y-77470000D03*
%TO.P,U1,18,GND*%
%TO.N,GND*%
X46090000Y-80010000D03*
D10*
X46990000Y-80010000D03*
D11*
%TO.P,U1,19,GPIO14*%
%TO.N,/TDO*%
X46990000Y-82550000D03*
D13*
X46090000Y-82550000D03*
D11*
%TO.P,U1,20,GPIO15*%
%TO.N,/nRST*%
X46990000Y-85090000D03*
D13*
X46090000Y-85090000D03*
D11*
%TO.P,U1,21,GPIO16*%
%TO.N,unconnected-(U1-Pad21)*%
X64770000Y-85090000D03*
D13*
X65670000Y-85090000D03*
D11*
%TO.P,U1,22,GPIO17*%
%TO.N,unconnected-(U1-Pad22)*%
X64770000Y-82550000D03*
D13*
X65670000Y-82550000D03*
%TO.P,U1,23,GND*%
%TO.N,GND*%
X65670000Y-80010000D03*
D10*
X64770000Y-80010000D03*
D13*
%TO.P,U1,24,GPIO18*%
%TO.N,unconnected-(U1-Pad24)*%
X65670000Y-77470000D03*
D11*
X64770000Y-77470000D03*
D13*
%TO.P,U1,25,GPIO19*%
%TO.N,unconnected-(U1-Pad25)*%
X65670000Y-74930000D03*
D11*
X64770000Y-74930000D03*
%TO.P,U1,26,GPIO20*%
%TO.N,unconnected-(U1-Pad26)*%
X64770000Y-72390000D03*
D13*
X65670000Y-72390000D03*
D11*
%TO.P,U1,27,GPIO21*%
%TO.N,unconnected-(U1-Pad27)*%
X64770000Y-69850000D03*
D13*
X65670000Y-69850000D03*
%TO.P,U1,28,GND*%
%TO.N,GND*%
X65670000Y-67310000D03*
D10*
X64770000Y-67310000D03*
D11*
%TO.P,U1,29,GPIO22*%
%TO.N,unconnected-(U1-Pad29)*%
X64770000Y-64770000D03*
D13*
X65670000Y-64770000D03*
%TO.P,U1,30,RUN*%
%TO.N,unconnected-(U1-Pad30)*%
X65670000Y-62230000D03*
D11*
X64770000Y-62230000D03*
%TO.P,U1,31,GPIO26_ADC0*%
%TO.N,unconnected-(U1-Pad31)*%
X64770000Y-59690000D03*
D13*
X65670000Y-59690000D03*
D11*
%TO.P,U1,32,GPIO27_ADC1*%
%TO.N,unconnected-(U1-Pad32)*%
X64770000Y-57150000D03*
D13*
X65670000Y-57150000D03*
D10*
%TO.P,U1,33,AGND*%
%TO.N,GND*%
X64770000Y-54610000D03*
D13*
X65670000Y-54610000D03*
%TO.P,U1,34,GPIO28_ADC2*%
%TO.N,unconnected-(U1-Pad34)*%
X65670000Y-52070000D03*
D11*
X64770000Y-52070000D03*
D13*
%TO.P,U1,35,ADC_VREF*%
%TO.N,unconnected-(U1-Pad35)*%
X65670000Y-49530000D03*
D11*
X64770000Y-49530000D03*
%TO.P,U1,36,3V3*%
%TO.N,+3V3*%
X64770000Y-46990000D03*
D13*
X65670000Y-46990000D03*
%TO.P,U1,37,3V3_EN*%
%TO.N,unconnected-(U1-Pad37)*%
X65670000Y-44450000D03*
D11*
X64770000Y-44450000D03*
D10*
%TO.P,U1,38,GND*%
%TO.N,GND*%
X64770000Y-41910000D03*
D13*
X65670000Y-41910000D03*
D11*
%TO.P,U1,39,VSYS*%
%TO.N,unconnected-(U1-Pad39)*%
X64770000Y-39370000D03*
D13*
X65670000Y-39370000D03*
D11*
%TO.P,U1,40,VBUS*%
%TO.N,unconnected-(U1-Pad40)*%
X64770000Y-36830000D03*
D13*
X65670000Y-36830000D03*
D11*
%TO.P,U1,41,SWCLK*%
%TO.N,unconnected-(U1-Pad41)*%
X53340000Y-84860000D03*
D14*
X53340000Y-85760000D03*
D10*
%TO.P,U1,42,GND*%
%TO.N,GND*%
X55880000Y-84860000D03*
D14*
X55880000Y-85760000D03*
%TO.P,U1,43,SWDIO*%
%TO.N,unconnected-(U1-Pad43)*%
X58420000Y-85760000D03*
D11*
X58420000Y-84860000D03*
%TD*%
D10*
%TO.P,JJTAG1,1,Pin_1*%
%TO.N,+3V3*%
X62225000Y-90175000D03*
D11*
%TO.P,JJTAG1,2,Pin_2*%
X64765000Y-90175000D03*
%TO.P,JJTAG1,3,Pin_3*%
%TO.N,Net-(JJTAG1-Pad3)*%
X62225000Y-92715000D03*
%TO.P,JJTAG1,4,Pin_4*%
%TO.N,GND*%
X64765000Y-92715000D03*
%TO.P,JJTAG1,5,Pin_5*%
%TO.N,/TDI*%
X62225000Y-95255000D03*
%TO.P,JJTAG1,6,Pin_6*%
%TO.N,GND*%
X64765000Y-95255000D03*
%TO.P,JJTAG1,7,Pin_7*%
%TO.N,/SWDIO{slash}TMS*%
X62225000Y-97795000D03*
%TO.P,JJTAG1,8,Pin_8*%
%TO.N,GND*%
X64765000Y-97795000D03*
%TO.P,JJTAG1,9,Pin_9*%
%TO.N,/SWCLK{slash}TCLK*%
X62225000Y-100335000D03*
%TO.P,JJTAG1,10,Pin_10*%
%TO.N,GND*%
X64765000Y-100335000D03*
%TO.P,JJTAG1,11,Pin_11*%
%TO.N,unconnected-(JJTAG1-Pad11)*%
X62225000Y-102875000D03*
%TO.P,JJTAG1,12,Pin_12*%
%TO.N,GND*%
X64765000Y-102875000D03*
%TO.P,JJTAG1,13,Pin_13*%
%TO.N,/TDO*%
X62225000Y-105415000D03*
%TO.P,JJTAG1,14,Pin_14*%
%TO.N,GND*%
X64765000Y-105415000D03*
%TO.P,JJTAG1,15,Pin_15*%
%TO.N,/nRST*%
X62225000Y-107955000D03*
%TO.P,JJTAG1,16,Pin_16*%
%TO.N,GND*%
X64765000Y-107955000D03*
%TO.P,JJTAG1,17,Pin_17*%
%TO.N,unconnected-(JJTAG1-Pad17)*%
X62225000Y-110495000D03*
%TO.P,JJTAG1,18,Pin_18*%
%TO.N,GND*%
X64765000Y-110495000D03*
%TO.P,JJTAG1,19,Pin_19*%
%TO.N,unconnected-(JJTAG1-Pad19)*%
X62225000Y-113035000D03*
%TO.P,JJTAG1,20,Pin_20*%
%TO.N,GND*%
X64765000Y-113035000D03*
%TD*%
D15*
%TO.P,RLED1,1*%
%TO.N,Net-(DVCP1-Pad1)*%
X52070000Y-105410000D03*
D16*
%TO.P,RLED1,2*%
%TO.N,GND*%
X52070000Y-113030000D03*
%TD*%
D17*
%TO.P,DVCP1,1,K*%
%TO.N,Net-(DVCP1-Pad1)*%
X53340000Y-101600000D03*
D18*
%TO.P,DVCP1,2,A*%
%TO.N,/VSTAT*%
X55880000Y-101600000D03*
%TD*%
D15*
%TO.P,RTRS1,1*%
%TO.N,+3V3*%
X55880000Y-113030000D03*
D16*
%TO.P,RTRS1,2*%
%TO.N,Net-(JJTAG1-Pad3)*%
X55880000Y-105410000D03*
%TD*%
D19*
%TO.N,+3V3*%
X52660000Y-91440000D03*
%TO.N,GND*%
X46990000Y-101600000D03*
%TD*%
D20*
%TO.N,Net-(DVCP1-Pad1)*%
X53340000Y-101600000D02*
X52070000Y-102870000D01*
X52070000Y-102870000D02*
X52070000Y-105410000D01*
%TO.N,/VSTAT*%
X55880000Y-101600000D02*
X54585000Y-100305000D01*
X54585000Y-100305000D02*
X54585000Y-90558604D01*
X54585000Y-90558604D02*
X57055000Y-88088604D01*
X57055000Y-88088604D02*
X57055000Y-54515000D01*
X57055000Y-54515000D02*
X46990000Y-44450000D01*
%TO.N,Net-(JJTAG1-Pad3)*%
X59690000Y-109220000D02*
X62738000Y-109220000D01*
X55880000Y-105410000D02*
X59690000Y-109220000D01*
X63500000Y-93990000D02*
X63500000Y-108458000D01*
X63500000Y-108458000D02*
X62738000Y-109220000D01*
X63500000Y-93990000D02*
X62225000Y-92715000D01*
%TO.N,GND*%
X52660000Y-93980000D02*
X50800000Y-93980000D01*
X54346604Y-90160604D02*
X51719396Y-90160604D01*
X50800000Y-91080000D02*
X50800000Y-92710000D01*
X52660000Y-96520000D02*
X50800000Y-96520000D01*
X55880000Y-88627208D02*
X54346604Y-90160604D01*
X50800000Y-96520000D02*
X49530000Y-97790000D01*
X52660000Y-92710000D02*
X50800000Y-92710000D01*
X55880000Y-84860000D02*
X55880000Y-88627208D01*
X50800000Y-93980000D02*
X50800000Y-96520000D01*
X51719396Y-90160604D02*
X50800000Y-91080000D01*
X50800000Y-92710000D02*
X50800000Y-93980000D01*
X49530000Y-97790000D02*
X46990000Y-97790000D01*
X46990000Y-101854000D02*
X46990000Y-97790000D01*
%TO.N,/TDI*%
X55035000Y-90745000D02*
X58361396Y-90745000D01*
X62225000Y-94608604D02*
X62225000Y-95255000D01*
X55610000Y-95250000D02*
X55035000Y-94675000D01*
X55035000Y-94675000D02*
X55035000Y-90745000D01*
X58361396Y-90745000D02*
X62225000Y-94608604D01*
X56560000Y-95250000D02*
X55610000Y-95250000D01*
%TO.N,/SWDIO{slash}TMS*%
X48644728Y-76584728D02*
X48644728Y-91055272D01*
X60960000Y-93980000D02*
X58420000Y-91440000D01*
X62225000Y-97795000D02*
X60960000Y-96530000D01*
X46990000Y-74930000D02*
X48644728Y-76584728D01*
X48644728Y-91055272D02*
X46990000Y-92710000D01*
X60960000Y-96530000D02*
X60960000Y-93980000D01*
X58420000Y-91440000D02*
X56560000Y-91440000D01*
%TO.N,/SWCLK{slash}TCLK*%
X60510000Y-94800000D02*
X60510000Y-98620000D01*
X56560000Y-92710000D02*
X58420000Y-92710000D01*
X60510000Y-98620000D02*
X62225000Y-100335000D01*
X58420000Y-92710000D02*
X60510000Y-94800000D01*
%TO.N,/TDO*%
X58166000Y-93980000D02*
X56560000Y-93980000D01*
X60060000Y-95874000D02*
X58166000Y-93980000D01*
X62225000Y-105415000D02*
X60060000Y-103250000D01*
X60060000Y-103250000D02*
X60060000Y-95874000D01*
%TO.N,/nRST*%
X52578000Y-106680000D02*
X50600000Y-106680000D01*
X59610000Y-98552000D02*
X57578000Y-96520000D01*
X62225000Y-107955000D02*
X59610000Y-105340000D01*
X57578000Y-96520000D02*
X56560000Y-96520000D01*
X57105000Y-102153000D02*
X52578000Y-106680000D01*
X50600000Y-106680000D02*
X44958000Y-101038000D01*
X59610000Y-105340000D02*
X59610000Y-98552000D01*
X56560000Y-96520000D02*
X57105000Y-97065000D01*
X57105000Y-97065000D02*
X57105000Y-102153000D01*
X44958000Y-87122000D02*
X46990000Y-85090000D01*
X44958000Y-101038000D02*
X44958000Y-87122000D01*
%TD*%
%TA.AperFunction,Conductor*%
%TO.N,+3V3*%
G36*
X68013621Y-34818502D02*
G01*
X68060114Y-34872158D01*
X68071500Y-34924500D01*
X68071500Y-35623117D01*
X68051498Y-35691238D01*
X67997842Y-35737731D01*
X67927568Y-35747835D01*
X67862988Y-35718341D01*
X67844674Y-35698682D01*
X67788642Y-35623919D01*
X67783261Y-35616739D01*
X67666705Y-35529385D01*
X67530316Y-35478255D01*
X67468134Y-35471500D01*
X64784985Y-35471500D01*
X64783446Y-35471491D01*
X64680081Y-35470228D01*
X64680079Y-35470228D01*
X64674911Y-35470165D01*
X64669797Y-35470948D01*
X64666289Y-35471193D01*
X64657496Y-35471500D01*
X63871866Y-35471500D01*
X63809684Y-35478255D01*
X63673295Y-35529385D01*
X63556739Y-35616739D01*
X63469385Y-35733295D01*
X63418255Y-35869684D01*
X63411500Y-35931866D01*
X63411500Y-36750219D01*
X63410787Y-36763607D01*
X63407251Y-36796695D01*
X63407548Y-36801848D01*
X63407548Y-36801851D01*
X63411291Y-36866763D01*
X63411500Y-36874016D01*
X63411500Y-37728134D01*
X63418255Y-37790316D01*
X63469385Y-37926705D01*
X63474771Y-37933891D01*
X63542630Y-38024435D01*
X63567478Y-38090941D01*
X63552425Y-38160324D01*
X63542632Y-38175562D01*
X63469385Y-38273295D01*
X63418255Y-38409684D01*
X63411500Y-38471866D01*
X63411500Y-39290219D01*
X63410787Y-39303607D01*
X63407251Y-39336695D01*
X63407548Y-39341848D01*
X63407548Y-39341851D01*
X63411291Y-39406763D01*
X63411500Y-39414016D01*
X63411500Y-40268134D01*
X63418255Y-40330316D01*
X63469385Y-40466705D01*
X63474771Y-40473891D01*
X63542630Y-40564435D01*
X63567478Y-40630941D01*
X63552425Y-40700324D01*
X63542632Y-40715562D01*
X63469385Y-40813295D01*
X63418255Y-40949684D01*
X63411500Y-41011866D01*
X63411500Y-42808134D01*
X63418255Y-42870316D01*
X63469385Y-43006705D01*
X63474771Y-43013891D01*
X63542630Y-43104435D01*
X63567478Y-43170941D01*
X63552425Y-43240324D01*
X63542632Y-43255562D01*
X63469385Y-43353295D01*
X63418255Y-43489684D01*
X63411500Y-43551866D01*
X63411500Y-44370219D01*
X63410787Y-44383607D01*
X63407251Y-44416695D01*
X63407548Y-44421848D01*
X63407548Y-44421851D01*
X63411291Y-44486763D01*
X63411500Y-44494016D01*
X63411500Y-45348134D01*
X63418255Y-45410316D01*
X63469385Y-45546705D01*
X63474771Y-45553891D01*
X63542942Y-45644852D01*
X63567790Y-45711358D01*
X63552737Y-45780741D01*
X63542942Y-45795982D01*
X63475214Y-45886351D01*
X63466676Y-45901946D01*
X63421522Y-46022394D01*
X63417895Y-46037649D01*
X63412369Y-46088514D01*
X63412000Y-46095328D01*
X63412000Y-46717885D01*
X63416475Y-46733124D01*
X63417865Y-46734329D01*
X63425548Y-46736000D01*
X66042000Y-46736000D01*
X66110121Y-46756002D01*
X66156614Y-46809658D01*
X66168000Y-46862000D01*
X66168000Y-47118000D01*
X66147998Y-47186121D01*
X66094342Y-47232614D01*
X66042000Y-47244000D01*
X63430116Y-47244000D01*
X63414877Y-47248475D01*
X63413672Y-47249865D01*
X63412001Y-47257548D01*
X63412001Y-47884669D01*
X63412371Y-47891490D01*
X63417895Y-47942352D01*
X63421521Y-47957604D01*
X63466676Y-48078054D01*
X63475214Y-48093649D01*
X63542942Y-48184018D01*
X63567790Y-48250525D01*
X63552737Y-48319907D01*
X63542942Y-48335148D01*
X63519578Y-48366323D01*
X63469385Y-48433295D01*
X63418255Y-48569684D01*
X63411500Y-48631866D01*
X63411500Y-49450219D01*
X63410787Y-49463607D01*
X63407251Y-49496695D01*
X63407548Y-49501848D01*
X63407548Y-49501851D01*
X63411291Y-49566763D01*
X63411500Y-49574016D01*
X63411500Y-50428134D01*
X63418255Y-50490316D01*
X63469385Y-50626705D01*
X63474771Y-50633891D01*
X63542630Y-50724435D01*
X63567478Y-50790941D01*
X63552425Y-50860324D01*
X63542632Y-50875562D01*
X63469385Y-50973295D01*
X63418255Y-51109684D01*
X63411500Y-51171866D01*
X63411500Y-51990219D01*
X63410787Y-52003607D01*
X63407251Y-52036695D01*
X63407548Y-52041848D01*
X63407548Y-52041851D01*
X63411291Y-52106763D01*
X63411500Y-52114016D01*
X63411500Y-52968134D01*
X63418255Y-53030316D01*
X63469385Y-53166705D01*
X63474771Y-53173891D01*
X63542630Y-53264435D01*
X63567478Y-53330941D01*
X63552425Y-53400324D01*
X63542632Y-53415562D01*
X63469385Y-53513295D01*
X63418255Y-53649684D01*
X63411500Y-53711866D01*
X63411500Y-55508134D01*
X63418255Y-55570316D01*
X63469385Y-55706705D01*
X63474771Y-55713891D01*
X63542630Y-55804435D01*
X63567478Y-55870941D01*
X63552425Y-55940324D01*
X63542632Y-55955562D01*
X63469385Y-56053295D01*
X63418255Y-56189684D01*
X63411500Y-56251866D01*
X63411500Y-57070219D01*
X63410787Y-57083607D01*
X63407251Y-57116695D01*
X63407548Y-57121848D01*
X63407548Y-57121851D01*
X63411291Y-57186763D01*
X63411500Y-57194016D01*
X63411500Y-58048134D01*
X63418255Y-58110316D01*
X63469385Y-58246705D01*
X63474771Y-58253891D01*
X63542630Y-58344435D01*
X63567478Y-58410941D01*
X63552425Y-58480324D01*
X63542632Y-58495562D01*
X63469385Y-58593295D01*
X63418255Y-58729684D01*
X63411500Y-58791866D01*
X63411500Y-59610219D01*
X63410787Y-59623607D01*
X63407251Y-59656695D01*
X63407548Y-59661848D01*
X63407548Y-59661851D01*
X63411291Y-59726763D01*
X63411500Y-59734016D01*
X63411500Y-60588134D01*
X63418255Y-60650316D01*
X63469385Y-60786705D01*
X63474771Y-60793891D01*
X63542630Y-60884435D01*
X63567478Y-60950941D01*
X63552425Y-61020324D01*
X63542632Y-61035562D01*
X63469385Y-61133295D01*
X63418255Y-61269684D01*
X63411500Y-61331866D01*
X63411500Y-62150219D01*
X63410787Y-62163607D01*
X63407251Y-62196695D01*
X63407548Y-62201848D01*
X63407548Y-62201851D01*
X63411291Y-62266763D01*
X63411500Y-62274016D01*
X63411500Y-63128134D01*
X63418255Y-63190316D01*
X63469385Y-63326705D01*
X63474771Y-63333891D01*
X63542630Y-63424435D01*
X63567478Y-63490941D01*
X63552425Y-63560324D01*
X63542632Y-63575562D01*
X63469385Y-63673295D01*
X63418255Y-63809684D01*
X63411500Y-63871866D01*
X63411500Y-64690219D01*
X63410787Y-64703607D01*
X63407251Y-64736695D01*
X63407548Y-64741848D01*
X63407548Y-64741851D01*
X63411291Y-64806763D01*
X63411500Y-64814016D01*
X63411500Y-65668134D01*
X63418255Y-65730316D01*
X63469385Y-65866705D01*
X63474771Y-65873891D01*
X63542630Y-65964435D01*
X63567478Y-66030941D01*
X63552425Y-66100324D01*
X63542632Y-66115562D01*
X63469385Y-66213295D01*
X63418255Y-66349684D01*
X63411500Y-66411866D01*
X63411500Y-68208134D01*
X63418255Y-68270316D01*
X63469385Y-68406705D01*
X63474771Y-68413891D01*
X63542630Y-68504435D01*
X63567478Y-68570941D01*
X63552425Y-68640324D01*
X63542632Y-68655562D01*
X63469385Y-68753295D01*
X63418255Y-68889684D01*
X63411500Y-68951866D01*
X63411500Y-69770219D01*
X63410787Y-69783607D01*
X63407251Y-69816695D01*
X63407548Y-69821848D01*
X63407548Y-69821851D01*
X63411291Y-69886763D01*
X63411500Y-69894016D01*
X63411500Y-70748134D01*
X63418255Y-70810316D01*
X63469385Y-70946705D01*
X63474771Y-70953891D01*
X63542630Y-71044435D01*
X63567478Y-71110941D01*
X63552425Y-71180324D01*
X63542632Y-71195562D01*
X63469385Y-71293295D01*
X63418255Y-71429684D01*
X63411500Y-71491866D01*
X63411500Y-72310219D01*
X63410787Y-72323607D01*
X63407251Y-72356695D01*
X63407548Y-72361848D01*
X63407548Y-72361851D01*
X63411291Y-72426763D01*
X63411500Y-72434016D01*
X63411500Y-73288134D01*
X63418255Y-73350316D01*
X63469385Y-73486705D01*
X63474771Y-73493891D01*
X63542630Y-73584435D01*
X63567478Y-73650941D01*
X63552425Y-73720324D01*
X63542632Y-73735562D01*
X63469385Y-73833295D01*
X63418255Y-73969684D01*
X63411500Y-74031866D01*
X63411500Y-74850219D01*
X63410787Y-74863607D01*
X63407251Y-74896695D01*
X63407548Y-74901848D01*
X63407548Y-74901851D01*
X63411291Y-74966763D01*
X63411500Y-74974016D01*
X63411500Y-75828134D01*
X63418255Y-75890316D01*
X63469385Y-76026705D01*
X63538879Y-76119430D01*
X63542630Y-76124435D01*
X63567478Y-76190941D01*
X63552425Y-76260324D01*
X63542632Y-76275562D01*
X63469385Y-76373295D01*
X63418255Y-76509684D01*
X63411500Y-76571866D01*
X63411500Y-77390219D01*
X63410787Y-77403607D01*
X63407251Y-77436695D01*
X63407548Y-77441848D01*
X63407548Y-77441851D01*
X63411291Y-77506763D01*
X63411500Y-77514016D01*
X63411500Y-78368134D01*
X63418255Y-78430316D01*
X63469385Y-78566705D01*
X63474771Y-78573891D01*
X63542630Y-78664435D01*
X63567478Y-78730941D01*
X63552425Y-78800324D01*
X63542632Y-78815562D01*
X63469385Y-78913295D01*
X63418255Y-79049684D01*
X63411500Y-79111866D01*
X63411500Y-80908134D01*
X63418255Y-80970316D01*
X63469385Y-81106705D01*
X63474771Y-81113891D01*
X63542630Y-81204435D01*
X63567478Y-81270941D01*
X63552425Y-81340324D01*
X63542632Y-81355562D01*
X63469385Y-81453295D01*
X63418255Y-81589684D01*
X63411500Y-81651866D01*
X63411500Y-82470219D01*
X63410787Y-82483607D01*
X63407251Y-82516695D01*
X63407548Y-82521848D01*
X63407548Y-82521851D01*
X63411291Y-82586763D01*
X63411500Y-82594016D01*
X63411500Y-83448134D01*
X63418255Y-83510316D01*
X63469385Y-83646705D01*
X63474771Y-83653891D01*
X63542630Y-83744435D01*
X63567478Y-83810941D01*
X63552425Y-83880324D01*
X63542632Y-83895562D01*
X63469385Y-83993295D01*
X63418255Y-84129684D01*
X63411500Y-84191866D01*
X63411500Y-85010219D01*
X63410787Y-85023607D01*
X63407251Y-85056695D01*
X63407548Y-85061848D01*
X63407548Y-85061851D01*
X63411291Y-85126763D01*
X63411500Y-85134016D01*
X63411500Y-85988134D01*
X63418255Y-86050316D01*
X63469385Y-86186705D01*
X63556739Y-86303261D01*
X63673295Y-86390615D01*
X63809684Y-86441745D01*
X63871866Y-86448500D01*
X64740826Y-86448500D01*
X64745443Y-86448585D01*
X64826673Y-86451564D01*
X64826677Y-86451564D01*
X64831837Y-86451753D01*
X64836957Y-86451097D01*
X64836959Y-86451097D01*
X64849261Y-86449521D01*
X64865271Y-86448500D01*
X67468134Y-86448500D01*
X67530316Y-86441745D01*
X67666705Y-86390615D01*
X67783261Y-86303261D01*
X67844674Y-86221318D01*
X67901533Y-86178803D01*
X67972352Y-86173777D01*
X68034645Y-86207837D01*
X68068635Y-86270168D01*
X68071500Y-86296883D01*
X68071500Y-114935500D01*
X68051498Y-115003621D01*
X67997842Y-115050114D01*
X67945500Y-115061500D01*
X43814500Y-115061500D01*
X43746379Y-115041498D01*
X43699886Y-114987842D01*
X43688500Y-114935500D01*
X43688500Y-86296883D01*
X43708502Y-86228762D01*
X43762158Y-86182269D01*
X43832432Y-86172165D01*
X43897012Y-86201659D01*
X43915326Y-86221318D01*
X43976739Y-86303261D01*
X44093295Y-86390615D01*
X44229684Y-86441745D01*
X44291866Y-86448500D01*
X44430253Y-86448500D01*
X44498374Y-86468502D01*
X44544867Y-86522158D01*
X44554971Y-86592432D01*
X44522104Y-86660752D01*
X44504358Y-86679650D01*
X44501602Y-86682493D01*
X44481865Y-86702230D01*
X44479385Y-86705427D01*
X44471682Y-86714447D01*
X44441414Y-86746679D01*
X44437595Y-86753625D01*
X44437593Y-86753628D01*
X44431652Y-86764434D01*
X44420801Y-86780953D01*
X44408386Y-86796959D01*
X44405241Y-86804228D01*
X44405238Y-86804232D01*
X44390826Y-86837537D01*
X44385609Y-86848187D01*
X44364305Y-86886940D01*
X44362334Y-86894615D01*
X44362334Y-86894616D01*
X44359267Y-86906562D01*
X44352863Y-86925266D01*
X44344819Y-86943855D01*
X44343580Y-86951678D01*
X44343577Y-86951688D01*
X44337901Y-86987524D01*
X44335495Y-86999144D01*
X44324500Y-87041970D01*
X44324500Y-87062224D01*
X44322949Y-87081934D01*
X44319780Y-87101943D01*
X44320526Y-87109835D01*
X44323941Y-87145961D01*
X44324500Y-87157819D01*
X44324500Y-100959233D01*
X44323973Y-100970416D01*
X44322298Y-100977909D01*
X44322547Y-100985835D01*
X44322547Y-100985836D01*
X44324438Y-101045986D01*
X44324500Y-101049945D01*
X44324500Y-101077856D01*
X44324997Y-101081790D01*
X44324997Y-101081791D01*
X44325005Y-101081856D01*
X44325938Y-101093693D01*
X44327327Y-101137889D01*
X44332789Y-101156688D01*
X44332978Y-101157339D01*
X44336987Y-101176700D01*
X44337756Y-101182783D01*
X44339526Y-101196797D01*
X44342445Y-101204168D01*
X44342445Y-101204170D01*
X44355804Y-101237912D01*
X44359649Y-101249142D01*
X44371982Y-101291593D01*
X44376015Y-101298412D01*
X44376017Y-101298417D01*
X44382293Y-101309028D01*
X44390988Y-101326776D01*
X44398448Y-101345617D01*
X44403110Y-101352033D01*
X44403110Y-101352034D01*
X44424436Y-101381387D01*
X44430952Y-101391307D01*
X44442050Y-101410072D01*
X44453458Y-101429362D01*
X44467779Y-101443683D01*
X44480619Y-101458716D01*
X44492528Y-101475107D01*
X44498634Y-101480158D01*
X44526605Y-101503298D01*
X44535384Y-101511288D01*
X46871001Y-103846905D01*
X46905027Y-103909217D01*
X46899962Y-103980032D01*
X46857415Y-104036868D01*
X46790895Y-104061679D01*
X46781906Y-104062000D01*
X46095331Y-104062001D01*
X46088510Y-104062371D01*
X46037648Y-104067895D01*
X46022396Y-104071521D01*
X45901946Y-104116676D01*
X45886351Y-104125214D01*
X45784276Y-104201715D01*
X45771715Y-104214276D01*
X45695214Y-104316351D01*
X45686676Y-104331946D01*
X45641522Y-104452394D01*
X45637895Y-104467649D01*
X45632369Y-104518514D01*
X45632000Y-104525328D01*
X45632000Y-105147885D01*
X45636475Y-105163124D01*
X45637865Y-105164329D01*
X45645548Y-105166000D01*
X47118000Y-105166000D01*
X47186121Y-105186002D01*
X47232614Y-105239658D01*
X47244000Y-105292000D01*
X47244000Y-105548000D01*
X47223998Y-105616121D01*
X47170342Y-105662614D01*
X47118000Y-105674000D01*
X45650116Y-105674000D01*
X45634877Y-105678475D01*
X45633672Y-105679865D01*
X45632001Y-105687548D01*
X45632001Y-106314669D01*
X45632371Y-106321490D01*
X45637895Y-106372352D01*
X45641521Y-106387604D01*
X45686676Y-106508054D01*
X45695214Y-106523649D01*
X45771715Y-106625724D01*
X45784276Y-106638285D01*
X45886351Y-106714786D01*
X45901946Y-106723324D01*
X46010827Y-106764142D01*
X46067591Y-106806784D01*
X46092291Y-106873345D01*
X46077083Y-106942694D01*
X46057691Y-106969175D01*
X45959188Y-107072253D01*
X45930629Y-107102138D01*
X45927715Y-107106410D01*
X45927714Y-107106411D01*
X45886847Y-107166320D01*
X45804743Y-107286680D01*
X45710688Y-107489305D01*
X45650989Y-107704570D01*
X45627251Y-107926695D01*
X45627548Y-107931848D01*
X45627548Y-107931851D01*
X45632914Y-108024908D01*
X45640110Y-108149715D01*
X45641247Y-108154761D01*
X45641248Y-108154767D01*
X45662265Y-108248023D01*
X45689222Y-108367639D01*
X45727316Y-108461453D01*
X45769970Y-108566498D01*
X45773266Y-108574616D01*
X45889987Y-108765088D01*
X46036250Y-108933938D01*
X46208126Y-109076632D01*
X46272889Y-109114476D01*
X46281445Y-109119476D01*
X46330169Y-109171114D01*
X46343240Y-109240897D01*
X46316509Y-109306669D01*
X46276055Y-109340027D01*
X46263607Y-109346507D01*
X46259474Y-109349610D01*
X46259471Y-109349612D01*
X46091624Y-109475635D01*
X46084965Y-109480635D01*
X46081393Y-109484373D01*
X45959194Y-109612247D01*
X45930629Y-109642138D01*
X45927715Y-109646410D01*
X45927714Y-109646411D01*
X45908213Y-109674999D01*
X45804743Y-109826680D01*
X45710688Y-110029305D01*
X45650989Y-110244570D01*
X45627251Y-110466695D01*
X45627548Y-110471848D01*
X45627548Y-110471851D01*
X45632914Y-110564908D01*
X45640110Y-110689715D01*
X45641247Y-110694761D01*
X45641248Y-110694767D01*
X45662265Y-110788023D01*
X45689222Y-110907639D01*
X45773266Y-111114616D01*
X45820955Y-111192438D01*
X45884227Y-111295688D01*
X45889987Y-111305088D01*
X46036250Y-111473938D01*
X46111213Y-111536173D01*
X46198123Y-111608327D01*
X46208126Y-111616632D01*
X46272889Y-111654476D01*
X46281445Y-111659476D01*
X46330169Y-111711114D01*
X46343240Y-111780897D01*
X46316509Y-111846669D01*
X46276055Y-111880027D01*
X46263607Y-111886507D01*
X46259474Y-111889610D01*
X46259471Y-111889612D01*
X46091624Y-112015635D01*
X46084965Y-112020635D01*
X45930629Y-112182138D01*
X45804743Y-112366680D01*
X45710688Y-112569305D01*
X45650989Y-112784570D01*
X45627251Y-113006695D01*
X45627548Y-113011848D01*
X45627548Y-113011851D01*
X45632914Y-113104908D01*
X45640110Y-113229715D01*
X45641247Y-113234761D01*
X45641248Y-113234767D01*
X45662265Y-113328023D01*
X45689222Y-113447639D01*
X45773266Y-113654616D01*
X45820955Y-113732438D01*
X45884227Y-113835688D01*
X45889987Y-113845088D01*
X46036250Y-114013938D01*
X46173025Y-114127491D01*
X46198123Y-114148327D01*
X46208126Y-114156632D01*
X46401000Y-114269338D01*
X46609692Y-114349030D01*
X46614760Y-114350061D01*
X46614763Y-114350062D01*
X46707970Y-114369025D01*
X46828597Y-114393567D01*
X46833772Y-114393757D01*
X46833774Y-114393757D01*
X47046673Y-114401564D01*
X47046677Y-114401564D01*
X47051837Y-114401753D01*
X47056957Y-114401097D01*
X47056959Y-114401097D01*
X47268288Y-114374025D01*
X47268289Y-114374025D01*
X47273416Y-114373368D01*
X47290082Y-114368368D01*
X47482429Y-114310661D01*
X47482434Y-114310659D01*
X47487384Y-114309174D01*
X47687994Y-114210896D01*
X47869860Y-114081173D01*
X47911823Y-114039357D01*
X48024435Y-113927137D01*
X48028096Y-113923489D01*
X48060642Y-113878197D01*
X48155435Y-113746277D01*
X48158453Y-113742077D01*
X48181791Y-113694857D01*
X48255136Y-113546453D01*
X48255137Y-113546451D01*
X48257430Y-113541811D01*
X48322370Y-113328069D01*
X48351529Y-113106590D01*
X48353156Y-113040000D01*
X48352334Y-113030000D01*
X50756502Y-113030000D01*
X50776457Y-113258087D01*
X50777881Y-113263400D01*
X50777881Y-113263402D01*
X50827248Y-113447639D01*
X50835716Y-113479243D01*
X50838039Y-113484224D01*
X50838039Y-113484225D01*
X50930151Y-113681762D01*
X50930154Y-113681767D01*
X50932477Y-113686749D01*
X50964469Y-113732438D01*
X51046080Y-113848990D01*
X51063802Y-113874300D01*
X51225700Y-114036198D01*
X51230208Y-114039355D01*
X51230211Y-114039357D01*
X51289931Y-114081173D01*
X51413251Y-114167523D01*
X51418233Y-114169846D01*
X51418238Y-114169849D01*
X51506265Y-114210896D01*
X51620757Y-114264284D01*
X51626065Y-114265706D01*
X51626067Y-114265707D01*
X51836598Y-114322119D01*
X51836600Y-114322119D01*
X51841913Y-114323543D01*
X52070000Y-114343498D01*
X52298087Y-114323543D01*
X52303400Y-114322119D01*
X52303402Y-114322119D01*
X52513933Y-114265707D01*
X52513935Y-114265706D01*
X52519243Y-114264284D01*
X52633735Y-114210896D01*
X52721762Y-114169849D01*
X52721767Y-114169846D01*
X52726749Y-114167523D01*
X52800243Y-114116062D01*
X55158493Y-114116062D01*
X55167789Y-114128077D01*
X55218994Y-114163931D01*
X55228489Y-114169414D01*
X55425947Y-114261490D01*
X55436239Y-114265236D01*
X55646688Y-114321625D01*
X55657481Y-114323528D01*
X55874525Y-114342517D01*
X55885475Y-114342517D01*
X56102519Y-114323528D01*
X56113312Y-114321625D01*
X56323761Y-114265236D01*
X56334053Y-114261490D01*
X56531511Y-114169414D01*
X56541006Y-114163931D01*
X56593048Y-114127491D01*
X56601424Y-114117012D01*
X56594356Y-114103566D01*
X55892812Y-113402022D01*
X55878868Y-113394408D01*
X55877035Y-113394539D01*
X55870420Y-113398790D01*
X55164923Y-114104287D01*
X55158493Y-114116062D01*
X52800243Y-114116062D01*
X52850069Y-114081173D01*
X52909789Y-114039357D01*
X52909792Y-114039355D01*
X52914300Y-114036198D01*
X53076198Y-113874300D01*
X53093921Y-113848990D01*
X53175531Y-113732438D01*
X53207523Y-113686749D01*
X53209846Y-113681767D01*
X53209849Y-113681762D01*
X53301961Y-113484225D01*
X53301961Y-113484224D01*
X53304284Y-113479243D01*
X53312753Y-113447639D01*
X53362119Y-113263402D01*
X53362119Y-113263400D01*
X53363543Y-113258087D01*
X53383019Y-113035475D01*
X54567483Y-113035475D01*
X54586472Y-113252519D01*
X54588375Y-113263312D01*
X54644764Y-113473761D01*
X54648510Y-113484053D01*
X54740586Y-113681511D01*
X54746069Y-113691006D01*
X54782509Y-113743048D01*
X54792988Y-113751424D01*
X54806434Y-113744356D01*
X55507978Y-113042812D01*
X55514356Y-113031132D01*
X56244408Y-113031132D01*
X56244539Y-113032965D01*
X56248790Y-113039580D01*
X56954287Y-113745077D01*
X56966062Y-113751507D01*
X56978077Y-113742211D01*
X57013931Y-113691006D01*
X57019414Y-113681511D01*
X57111490Y-113484053D01*
X57115236Y-113473761D01*
X57171625Y-113263312D01*
X57173528Y-113252519D01*
X57192517Y-113035475D01*
X57192517Y-113024525D01*
X57173528Y-112807481D01*
X57171625Y-112796688D01*
X57115236Y-112586239D01*
X57111490Y-112575947D01*
X57019414Y-112378489D01*
X57013931Y-112368994D01*
X56977491Y-112316952D01*
X56967012Y-112308576D01*
X56953566Y-112315644D01*
X56252022Y-113017188D01*
X56244408Y-113031132D01*
X55514356Y-113031132D01*
X55515592Y-113028868D01*
X55515461Y-113027035D01*
X55511210Y-113020420D01*
X54805713Y-112314923D01*
X54793938Y-112308493D01*
X54781923Y-112317789D01*
X54746069Y-112368994D01*
X54740586Y-112378489D01*
X54648510Y-112575947D01*
X54644764Y-112586239D01*
X54588375Y-112796688D01*
X54586472Y-112807481D01*
X54567483Y-113024525D01*
X54567483Y-113035475D01*
X53383019Y-113035475D01*
X53383498Y-113030000D01*
X53363543Y-112801913D01*
X53362119Y-112796598D01*
X53305707Y-112586067D01*
X53305706Y-112586065D01*
X53304284Y-112580757D01*
X53296755Y-112564610D01*
X53209849Y-112378238D01*
X53209846Y-112378233D01*
X53207523Y-112373251D01*
X53092007Y-112208277D01*
X53079357Y-112190211D01*
X53079355Y-112190208D01*
X53076198Y-112185700D01*
X52914300Y-112023802D01*
X52909792Y-112020645D01*
X52909789Y-112020643D01*
X52798886Y-111942988D01*
X55158576Y-111942988D01*
X55165644Y-111956434D01*
X55867188Y-112657978D01*
X55881132Y-112665592D01*
X55882965Y-112665461D01*
X55889580Y-112661210D01*
X56595077Y-111955713D01*
X56601507Y-111943938D01*
X56592211Y-111931923D01*
X56541006Y-111896069D01*
X56531511Y-111890586D01*
X56334053Y-111798510D01*
X56323761Y-111794764D01*
X56113312Y-111738375D01*
X56102519Y-111736472D01*
X55885475Y-111717483D01*
X55874525Y-111717483D01*
X55657481Y-111736472D01*
X55646688Y-111738375D01*
X55436239Y-111794764D01*
X55425947Y-111798510D01*
X55228489Y-111890586D01*
X55218994Y-111896069D01*
X55166952Y-111932509D01*
X55158576Y-111942988D01*
X52798886Y-111942988D01*
X52783920Y-111932509D01*
X52726749Y-111892477D01*
X52721767Y-111890154D01*
X52721762Y-111890151D01*
X52524225Y-111798039D01*
X52524224Y-111798039D01*
X52519243Y-111795716D01*
X52513935Y-111794294D01*
X52513933Y-111794293D01*
X52303402Y-111737881D01*
X52303400Y-111737881D01*
X52298087Y-111736457D01*
X52070000Y-111716502D01*
X51841913Y-111736457D01*
X51836600Y-111737881D01*
X51836598Y-111737881D01*
X51626067Y-111794293D01*
X51626065Y-111794294D01*
X51620757Y-111795716D01*
X51615776Y-111798039D01*
X51615775Y-111798039D01*
X51418238Y-111890151D01*
X51418233Y-111890154D01*
X51413251Y-111892477D01*
X51356080Y-111932509D01*
X51230211Y-112020643D01*
X51230208Y-112020645D01*
X51225700Y-112023802D01*
X51063802Y-112185700D01*
X51060645Y-112190208D01*
X51060643Y-112190211D01*
X51047993Y-112208277D01*
X50932477Y-112373251D01*
X50930154Y-112378233D01*
X50930151Y-112378238D01*
X50843245Y-112564610D01*
X50835716Y-112580757D01*
X50834294Y-112586065D01*
X50834293Y-112586067D01*
X50777881Y-112796598D01*
X50776457Y-112801913D01*
X50756502Y-113030000D01*
X48352334Y-113030000D01*
X48334852Y-112817361D01*
X48280431Y-112600702D01*
X48191354Y-112395840D01*
X48070014Y-112208277D01*
X47919670Y-112043051D01*
X47915619Y-112039852D01*
X47915615Y-112039848D01*
X47748414Y-111907800D01*
X47748410Y-111907798D01*
X47744359Y-111904598D01*
X47703053Y-111881796D01*
X47653084Y-111831364D01*
X47638312Y-111761921D01*
X47663428Y-111695516D01*
X47690780Y-111668909D01*
X47734603Y-111637650D01*
X47869860Y-111541173D01*
X48028096Y-111383489D01*
X48085222Y-111303990D01*
X48155435Y-111206277D01*
X48158453Y-111202077D01*
X48181791Y-111154857D01*
X48255136Y-111006453D01*
X48255137Y-111006451D01*
X48257430Y-111001811D01*
X48322370Y-110788069D01*
X48351529Y-110566590D01*
X48353156Y-110500000D01*
X48334852Y-110277361D01*
X48280431Y-110060702D01*
X48191354Y-109855840D01*
X48146927Y-109787167D01*
X48072822Y-109672617D01*
X48072820Y-109672614D01*
X48070014Y-109668277D01*
X47919670Y-109503051D01*
X47915619Y-109499852D01*
X47915615Y-109499848D01*
X47748414Y-109367800D01*
X47748410Y-109367798D01*
X47744359Y-109364598D01*
X47703053Y-109341796D01*
X47653084Y-109291364D01*
X47638312Y-109221921D01*
X47663428Y-109155516D01*
X47690780Y-109128909D01*
X47734603Y-109097650D01*
X47869860Y-109001173D01*
X48028096Y-108843489D01*
X48087594Y-108760689D01*
X48155435Y-108666277D01*
X48158453Y-108662077D01*
X48197634Y-108582801D01*
X48255136Y-108466453D01*
X48255137Y-108466451D01*
X48257430Y-108461811D01*
X48322370Y-108248069D01*
X48351529Y-108026590D01*
X48353156Y-107960000D01*
X48334852Y-107737361D01*
X48280431Y-107520702D01*
X48191354Y-107315840D01*
X48120973Y-107207048D01*
X48072822Y-107132617D01*
X48072820Y-107132614D01*
X48070014Y-107128277D01*
X48066540Y-107124459D01*
X48066533Y-107124450D01*
X47922435Y-106966088D01*
X47891383Y-106902242D01*
X47899779Y-106831744D01*
X47944956Y-106776976D01*
X47971400Y-106763307D01*
X48078052Y-106723325D01*
X48093649Y-106714786D01*
X48195724Y-106638285D01*
X48208285Y-106625724D01*
X48284786Y-106523649D01*
X48293324Y-106508054D01*
X48338478Y-106387606D01*
X48342105Y-106372351D01*
X48347631Y-106321486D01*
X48348000Y-106314672D01*
X48347999Y-105628094D01*
X48368001Y-105559973D01*
X48421657Y-105513480D01*
X48491930Y-105503376D01*
X48556511Y-105532869D01*
X48563094Y-105538999D01*
X50096348Y-107072253D01*
X50103888Y-107080539D01*
X50108000Y-107087018D01*
X50113777Y-107092443D01*
X50157651Y-107133643D01*
X50160493Y-107136398D01*
X50180230Y-107156135D01*
X50183427Y-107158615D01*
X50192447Y-107166318D01*
X50224679Y-107196586D01*
X50231625Y-107200405D01*
X50231628Y-107200407D01*
X50242434Y-107206348D01*
X50258953Y-107217199D01*
X50274959Y-107229614D01*
X50282228Y-107232759D01*
X50282232Y-107232762D01*
X50315537Y-107247174D01*
X50326187Y-107252391D01*
X50364940Y-107273695D01*
X50372615Y-107275666D01*
X50372616Y-107275666D01*
X50384562Y-107278733D01*
X50403267Y-107285137D01*
X50421855Y-107293181D01*
X50429678Y-107294420D01*
X50429688Y-107294423D01*
X50465524Y-107300099D01*
X50477144Y-107302505D01*
X50509929Y-107310922D01*
X50519970Y-107313500D01*
X50540224Y-107313500D01*
X50559934Y-107315051D01*
X50579943Y-107318220D01*
X50587835Y-107317474D01*
X50599263Y-107316394D01*
X50623962Y-107314059D01*
X50635819Y-107313500D01*
X52499233Y-107313500D01*
X52510416Y-107314027D01*
X52517909Y-107315702D01*
X52525835Y-107315453D01*
X52525836Y-107315453D01*
X52585986Y-107313562D01*
X52589945Y-107313500D01*
X52617856Y-107313500D01*
X52621791Y-107313003D01*
X52621856Y-107312995D01*
X52633693Y-107312062D01*
X52665951Y-107311048D01*
X52669970Y-107310922D01*
X52677889Y-107310673D01*
X52697343Y-107305021D01*
X52716700Y-107301013D01*
X52728930Y-107299468D01*
X52728931Y-107299468D01*
X52736797Y-107298474D01*
X52744168Y-107295555D01*
X52744170Y-107295555D01*
X52777912Y-107282196D01*
X52789142Y-107278351D01*
X52823983Y-107268229D01*
X52823984Y-107268229D01*
X52831593Y-107266018D01*
X52838412Y-107261985D01*
X52838417Y-107261983D01*
X52849028Y-107255707D01*
X52866776Y-107247012D01*
X52885617Y-107239552D01*
X52921387Y-107213564D01*
X52931307Y-107207048D01*
X52962535Y-107188580D01*
X52962538Y-107188578D01*
X52969362Y-107184542D01*
X52983683Y-107170221D01*
X52998717Y-107157380D01*
X53008694Y-107150131D01*
X53015107Y-107145472D01*
X53043298Y-107111395D01*
X53051288Y-107102616D01*
X54417211Y-105736693D01*
X54479523Y-105702667D01*
X54550338Y-105707732D01*
X54607174Y-105750279D01*
X54628012Y-105793176D01*
X54644290Y-105853925D01*
X54644294Y-105853936D01*
X54645716Y-105859243D01*
X54648039Y-105864224D01*
X54648039Y-105864225D01*
X54740151Y-106061762D01*
X54740154Y-106061767D01*
X54742477Y-106066749D01*
X54873802Y-106254300D01*
X55035700Y-106416198D01*
X55040208Y-106419355D01*
X55040211Y-106419357D01*
X55118389Y-106474098D01*
X55223251Y-106547523D01*
X55228233Y-106549846D01*
X55228238Y-106549849D01*
X55408606Y-106633955D01*
X55430757Y-106644284D01*
X55436065Y-106645706D01*
X55436067Y-106645707D01*
X55646598Y-106702119D01*
X55646600Y-106702119D01*
X55651913Y-106703543D01*
X55880000Y-106723498D01*
X56108087Y-106703543D01*
X56113398Y-106702120D01*
X56113409Y-106702118D01*
X56171541Y-106686541D01*
X56242517Y-106688230D01*
X56293248Y-106719152D01*
X59186343Y-109612247D01*
X59193887Y-109620537D01*
X59198000Y-109627018D01*
X59203777Y-109632443D01*
X59247667Y-109673658D01*
X59250509Y-109676413D01*
X59270231Y-109696135D01*
X59273355Y-109698558D01*
X59273359Y-109698562D01*
X59273424Y-109698612D01*
X59282445Y-109706317D01*
X59314679Y-109736586D01*
X59321627Y-109740405D01*
X59321629Y-109740407D01*
X59332432Y-109746346D01*
X59348959Y-109757202D01*
X59358698Y-109764757D01*
X59358700Y-109764758D01*
X59364960Y-109769614D01*
X59405540Y-109787174D01*
X59416188Y-109792391D01*
X59454940Y-109813695D01*
X59462616Y-109815666D01*
X59462619Y-109815667D01*
X59474562Y-109818733D01*
X59493267Y-109825137D01*
X59511855Y-109833181D01*
X59519678Y-109834420D01*
X59519688Y-109834423D01*
X59555524Y-109840099D01*
X59567144Y-109842505D01*
X59602149Y-109851492D01*
X59609970Y-109853500D01*
X59630224Y-109853500D01*
X59649934Y-109855051D01*
X59669943Y-109858220D01*
X59677835Y-109857474D01*
X59689263Y-109856394D01*
X59713962Y-109854059D01*
X59725819Y-109853500D01*
X60828367Y-109853500D01*
X60896488Y-109873502D01*
X60942981Y-109927158D01*
X60953085Y-109997432D01*
X60947009Y-110021458D01*
X60945688Y-110024305D01*
X60885989Y-110239570D01*
X60862251Y-110461695D01*
X60862548Y-110466848D01*
X60862548Y-110466851D01*
X60868011Y-110561590D01*
X60875110Y-110684715D01*
X60876247Y-110689761D01*
X60876248Y-110689767D01*
X60877375Y-110694767D01*
X60924222Y-110902639D01*
X61008266Y-111109616D01*
X61059019Y-111192438D01*
X61122291Y-111295688D01*
X61124987Y-111300088D01*
X61271250Y-111468938D01*
X61443126Y-111611632D01*
X61451683Y-111616632D01*
X61516445Y-111654476D01*
X61565169Y-111706114D01*
X61578240Y-111775897D01*
X61551509Y-111841669D01*
X61511055Y-111875027D01*
X61498607Y-111881507D01*
X61494474Y-111884610D01*
X61494471Y-111884612D01*
X61398813Y-111956434D01*
X61319965Y-112015635D01*
X61165629Y-112177138D01*
X61039743Y-112361680D01*
X60945688Y-112564305D01*
X60885989Y-112779570D01*
X60862251Y-113001695D01*
X60862548Y-113006848D01*
X60862548Y-113006851D01*
X60868011Y-113101590D01*
X60875110Y-113224715D01*
X60876247Y-113229761D01*
X60876248Y-113229767D01*
X60896119Y-113317939D01*
X60924222Y-113442639D01*
X61008266Y-113649616D01*
X61059019Y-113732438D01*
X61122291Y-113835688D01*
X61124987Y-113840088D01*
X61271250Y-114008938D01*
X61443126Y-114151632D01*
X61636000Y-114264338D01*
X61640825Y-114266180D01*
X61640826Y-114266181D01*
X61653920Y-114271181D01*
X61844692Y-114344030D01*
X61849760Y-114345061D01*
X61849763Y-114345062D01*
X61957017Y-114366883D01*
X62063597Y-114388567D01*
X62068772Y-114388757D01*
X62068774Y-114388757D01*
X62281673Y-114396564D01*
X62281677Y-114396564D01*
X62286837Y-114396753D01*
X62291957Y-114396097D01*
X62291959Y-114396097D01*
X62503288Y-114369025D01*
X62503289Y-114369025D01*
X62508416Y-114368368D01*
X62569433Y-114350062D01*
X62717429Y-114305661D01*
X62717434Y-114305659D01*
X62722384Y-114304174D01*
X62922994Y-114205896D01*
X63104860Y-114076173D01*
X63263096Y-113918489D01*
X63322594Y-113835689D01*
X63393453Y-113737077D01*
X63394776Y-113738028D01*
X63441645Y-113694857D01*
X63511580Y-113682625D01*
X63577026Y-113710144D01*
X63604875Y-113741994D01*
X63606764Y-113745077D01*
X63664987Y-113840088D01*
X63811250Y-114008938D01*
X63983126Y-114151632D01*
X64176000Y-114264338D01*
X64180825Y-114266180D01*
X64180826Y-114266181D01*
X64193920Y-114271181D01*
X64384692Y-114344030D01*
X64389760Y-114345061D01*
X64389763Y-114345062D01*
X64497017Y-114366883D01*
X64603597Y-114388567D01*
X64608772Y-114388757D01*
X64608774Y-114388757D01*
X64821673Y-114396564D01*
X64821677Y-114396564D01*
X64826837Y-114396753D01*
X64831957Y-114396097D01*
X64831959Y-114396097D01*
X65043288Y-114369025D01*
X65043289Y-114369025D01*
X65048416Y-114368368D01*
X65109433Y-114350062D01*
X65257429Y-114305661D01*
X65257434Y-114305659D01*
X65262384Y-114304174D01*
X65462994Y-114205896D01*
X65644860Y-114076173D01*
X65803096Y-113918489D01*
X65862594Y-113835689D01*
X65930435Y-113741277D01*
X65933453Y-113737077D01*
X65954320Y-113694857D01*
X66030136Y-113541453D01*
X66030137Y-113541451D01*
X66032430Y-113536811D01*
X66075656Y-113394539D01*
X66095865Y-113328023D01*
X66095865Y-113328021D01*
X66097370Y-113323069D01*
X66126529Y-113101590D01*
X66128156Y-113035000D01*
X66109852Y-112812361D01*
X66055431Y-112595702D01*
X65966354Y-112390840D01*
X65913081Y-112308493D01*
X65847822Y-112207617D01*
X65847820Y-112207614D01*
X65845014Y-112203277D01*
X65694670Y-112038051D01*
X65690619Y-112034852D01*
X65690615Y-112034848D01*
X65523414Y-111902800D01*
X65523410Y-111902798D01*
X65519359Y-111899598D01*
X65478053Y-111876796D01*
X65428084Y-111826364D01*
X65413312Y-111756921D01*
X65438428Y-111690516D01*
X65465780Y-111663909D01*
X65532060Y-111616632D01*
X65644860Y-111536173D01*
X65803096Y-111378489D01*
X65862594Y-111295689D01*
X65930435Y-111201277D01*
X65933453Y-111197077D01*
X65954320Y-111154857D01*
X66030136Y-111001453D01*
X66030137Y-111001451D01*
X66032430Y-110996811D01*
X66097370Y-110783069D01*
X66126529Y-110561590D01*
X66128156Y-110495000D01*
X66109852Y-110272361D01*
X66055431Y-110055702D01*
X65966354Y-109850840D01*
X65872858Y-109706317D01*
X65847822Y-109667617D01*
X65847820Y-109667614D01*
X65845014Y-109663277D01*
X65694670Y-109498051D01*
X65690619Y-109494852D01*
X65690615Y-109494848D01*
X65523414Y-109362800D01*
X65523410Y-109362798D01*
X65519359Y-109359598D01*
X65478053Y-109336796D01*
X65428084Y-109286364D01*
X65413312Y-109216921D01*
X65438428Y-109150516D01*
X65465780Y-109123909D01*
X65539070Y-109071632D01*
X65644860Y-108996173D01*
X65803096Y-108838489D01*
X65933453Y-108657077D01*
X65970163Y-108582801D01*
X66030136Y-108461453D01*
X66030137Y-108461451D01*
X66032430Y-108456811D01*
X66097370Y-108243069D01*
X66126529Y-108021590D01*
X66128156Y-107955000D01*
X66109852Y-107732361D01*
X66055431Y-107515702D01*
X65966354Y-107310840D01*
X65888929Y-107191159D01*
X65847822Y-107127617D01*
X65847820Y-107127614D01*
X65845014Y-107123277D01*
X65694670Y-106958051D01*
X65690619Y-106954852D01*
X65690615Y-106954848D01*
X65523414Y-106822800D01*
X65523410Y-106822798D01*
X65519359Y-106819598D01*
X65478053Y-106796796D01*
X65428084Y-106746364D01*
X65413312Y-106676921D01*
X65438428Y-106610516D01*
X65465780Y-106583909D01*
X65521217Y-106544366D01*
X65644860Y-106456173D01*
X65803096Y-106298489D01*
X65933453Y-106117077D01*
X65958327Y-106066749D01*
X66030136Y-105921453D01*
X66030137Y-105921451D01*
X66032430Y-105916811D01*
X66073341Y-105782158D01*
X66095865Y-105708023D01*
X66095865Y-105708021D01*
X66097370Y-105703069D01*
X66126529Y-105481590D01*
X66127073Y-105459339D01*
X66128074Y-105418365D01*
X66128074Y-105418361D01*
X66128156Y-105415000D01*
X66109852Y-105192361D01*
X66055431Y-104975702D01*
X65966354Y-104770840D01*
X65845014Y-104583277D01*
X65694670Y-104418051D01*
X65690619Y-104414852D01*
X65690615Y-104414848D01*
X65523414Y-104282800D01*
X65523410Y-104282798D01*
X65519359Y-104279598D01*
X65478053Y-104256796D01*
X65428084Y-104206364D01*
X65413312Y-104136921D01*
X65438428Y-104070516D01*
X65465780Y-104043909D01*
X65555332Y-103980032D01*
X65644860Y-103916173D01*
X65651841Y-103909217D01*
X65799435Y-103762137D01*
X65803096Y-103758489D01*
X65933453Y-103577077D01*
X66032430Y-103376811D01*
X66097370Y-103163069D01*
X66126529Y-102941590D01*
X66128156Y-102875000D01*
X66109852Y-102652361D01*
X66055431Y-102435702D01*
X65966354Y-102230840D01*
X65845014Y-102043277D01*
X65694670Y-101878051D01*
X65690619Y-101874852D01*
X65690615Y-101874848D01*
X65523414Y-101742800D01*
X65523410Y-101742798D01*
X65519359Y-101739598D01*
X65478053Y-101716796D01*
X65428084Y-101666364D01*
X65413312Y-101596921D01*
X65438428Y-101530516D01*
X65465780Y-101503909D01*
X65529137Y-101458717D01*
X65644860Y-101376173D01*
X65803096Y-101218489D01*
X65812300Y-101205681D01*
X65930435Y-101041277D01*
X65933453Y-101037077D01*
X65962696Y-100977909D01*
X66030136Y-100841453D01*
X66030137Y-100841451D01*
X66032430Y-100836811D01*
X66066576Y-100724423D01*
X66095865Y-100628023D01*
X66095865Y-100628021D01*
X66097370Y-100623069D01*
X66126529Y-100401590D01*
X66128156Y-100335000D01*
X66109852Y-100112361D01*
X66055431Y-99895702D01*
X65966354Y-99690840D01*
X65845014Y-99503277D01*
X65694670Y-99338051D01*
X65690619Y-99334852D01*
X65690615Y-99334848D01*
X65523414Y-99202800D01*
X65523410Y-99202798D01*
X65519359Y-99199598D01*
X65478053Y-99176796D01*
X65428084Y-99126364D01*
X65413312Y-99056921D01*
X65438428Y-98990516D01*
X65465780Y-98963909D01*
X65542420Y-98909242D01*
X65644860Y-98836173D01*
X65803096Y-98678489D01*
X65860222Y-98598990D01*
X65930435Y-98501277D01*
X65933453Y-98497077D01*
X65970063Y-98423003D01*
X66030136Y-98301453D01*
X66030137Y-98301451D01*
X66032430Y-98296811D01*
X66097370Y-98083069D01*
X66126529Y-97861590D01*
X66128156Y-97795000D01*
X66109852Y-97572361D01*
X66055431Y-97355702D01*
X65966354Y-97150840D01*
X65845014Y-96963277D01*
X65694670Y-96798051D01*
X65690619Y-96794852D01*
X65690615Y-96794848D01*
X65523414Y-96662800D01*
X65523410Y-96662798D01*
X65519359Y-96659598D01*
X65478053Y-96636796D01*
X65428084Y-96586364D01*
X65413312Y-96516921D01*
X65438428Y-96450516D01*
X65465780Y-96423909D01*
X65542420Y-96369242D01*
X65644860Y-96296173D01*
X65651870Y-96289188D01*
X65799435Y-96142137D01*
X65803096Y-96138489D01*
X65860222Y-96058990D01*
X65930435Y-95961277D01*
X65933453Y-95957077D01*
X65947217Y-95929229D01*
X66030136Y-95761453D01*
X66030137Y-95761451D01*
X66032430Y-95756811D01*
X66097370Y-95543069D01*
X66126529Y-95321590D01*
X66128156Y-95255000D01*
X66109852Y-95032361D01*
X66055431Y-94815702D01*
X65966354Y-94610840D01*
X65845014Y-94423277D01*
X65694670Y-94258051D01*
X65690619Y-94254852D01*
X65690615Y-94254848D01*
X65523414Y-94122800D01*
X65523410Y-94122798D01*
X65519359Y-94119598D01*
X65478053Y-94096796D01*
X65428084Y-94046364D01*
X65413312Y-93976921D01*
X65438428Y-93910516D01*
X65465780Y-93883909D01*
X65542420Y-93829242D01*
X65644860Y-93756173D01*
X65803096Y-93598489D01*
X65860222Y-93518990D01*
X65930435Y-93421277D01*
X65933453Y-93417077D01*
X66032430Y-93216811D01*
X66097370Y-93003069D01*
X66126529Y-92781590D01*
X66127792Y-92729909D01*
X66128074Y-92718365D01*
X66128074Y-92718361D01*
X66128156Y-92715000D01*
X66109852Y-92492361D01*
X66055431Y-92275702D01*
X65966354Y-92070840D01*
X65845014Y-91883277D01*
X65694670Y-91718051D01*
X65690619Y-91714852D01*
X65690615Y-91714848D01*
X65523414Y-91582800D01*
X65523410Y-91582798D01*
X65519359Y-91579598D01*
X65477569Y-91556529D01*
X65427598Y-91506097D01*
X65412826Y-91436654D01*
X65437942Y-91370248D01*
X65465294Y-91343641D01*
X65640328Y-91218792D01*
X65648200Y-91212139D01*
X65799052Y-91061812D01*
X65805730Y-91053965D01*
X65930003Y-90881020D01*
X65935313Y-90872183D01*
X66029670Y-90681267D01*
X66033469Y-90671672D01*
X66095377Y-90467910D01*
X66097555Y-90457837D01*
X66098986Y-90446962D01*
X66096775Y-90432778D01*
X66083617Y-90429000D01*
X60885116Y-90429000D01*
X60869877Y-90433475D01*
X60868672Y-90434865D01*
X60867001Y-90442548D01*
X60867001Y-91069669D01*
X60867371Y-91076490D01*
X60872895Y-91127352D01*
X60876521Y-91142604D01*
X60921676Y-91263054D01*
X60930214Y-91278649D01*
X61006715Y-91380724D01*
X61019276Y-91393285D01*
X61121351Y-91469786D01*
X61136946Y-91478324D01*
X61245827Y-91519142D01*
X61302591Y-91561784D01*
X61327291Y-91628345D01*
X61312083Y-91697694D01*
X61292691Y-91724175D01*
X61190129Y-91831500D01*
X61165629Y-91857138D01*
X61162720Y-91861403D01*
X61162714Y-91861411D01*
X61086492Y-91973149D01*
X61039743Y-92041680D01*
X61024003Y-92075590D01*
X60961649Y-92209920D01*
X60914825Y-92263287D01*
X60846582Y-92282868D01*
X60778586Y-92262445D01*
X60758266Y-92245965D01*
X58865048Y-90352747D01*
X58857508Y-90344461D01*
X58853396Y-90337982D01*
X58803744Y-90291356D01*
X58800903Y-90288602D01*
X58781166Y-90268865D01*
X58777969Y-90266385D01*
X58768947Y-90258680D01*
X58742496Y-90233841D01*
X58736717Y-90228414D01*
X58729771Y-90224595D01*
X58729768Y-90224593D01*
X58718962Y-90218652D01*
X58702443Y-90207801D01*
X58701979Y-90207441D01*
X58686437Y-90195386D01*
X58679168Y-90192241D01*
X58679164Y-90192238D01*
X58645859Y-90177826D01*
X58635209Y-90172609D01*
X58596456Y-90151305D01*
X58576833Y-90146267D01*
X58558130Y-90139863D01*
X58546816Y-90134967D01*
X58546815Y-90134967D01*
X58539541Y-90131819D01*
X58531718Y-90130580D01*
X58531708Y-90130577D01*
X58495872Y-90124901D01*
X58484252Y-90122495D01*
X58449107Y-90113472D01*
X58449106Y-90113472D01*
X58441426Y-90111500D01*
X58421172Y-90111500D01*
X58401461Y-90109949D01*
X58389282Y-90108020D01*
X58381453Y-90106780D01*
X58373561Y-90107526D01*
X58337435Y-90110941D01*
X58325577Y-90111500D01*
X56232198Y-90111500D01*
X56164077Y-90091498D01*
X56117584Y-90037842D01*
X56107480Y-89967568D01*
X56136974Y-89902988D01*
X56137070Y-89902885D01*
X60867000Y-89902885D01*
X60871475Y-89918124D01*
X60872865Y-89919329D01*
X60880548Y-89921000D01*
X61952885Y-89921000D01*
X61968124Y-89916525D01*
X61969329Y-89915135D01*
X61971000Y-89907452D01*
X61971000Y-89902885D01*
X62479000Y-89902885D01*
X62483475Y-89918124D01*
X62484865Y-89919329D01*
X62492548Y-89921000D01*
X64492885Y-89921000D01*
X64508124Y-89916525D01*
X64509329Y-89915135D01*
X64511000Y-89907452D01*
X64511000Y-89902885D01*
X65019000Y-89902885D01*
X65023475Y-89918124D01*
X65024865Y-89919329D01*
X65032548Y-89921000D01*
X66083344Y-89921000D01*
X66096875Y-89917027D01*
X66098180Y-89907947D01*
X66056214Y-89740875D01*
X66052894Y-89731124D01*
X65967972Y-89535814D01*
X65963105Y-89526739D01*
X65847426Y-89347926D01*
X65841136Y-89339757D01*
X65697806Y-89182240D01*
X65690273Y-89175215D01*
X65523139Y-89043222D01*
X65514552Y-89037517D01*
X65328117Y-88934599D01*
X65318705Y-88930369D01*
X65117959Y-88859280D01*
X65107988Y-88856646D01*
X65036837Y-88843972D01*
X65023540Y-88845432D01*
X65019000Y-88859989D01*
X65019000Y-89902885D01*
X64511000Y-89902885D01*
X64511000Y-88858102D01*
X64507082Y-88844758D01*
X64492806Y-88842771D01*
X64454324Y-88848660D01*
X64444288Y-88851051D01*
X64241868Y-88917212D01*
X64232359Y-88921209D01*
X64043463Y-89019542D01*
X64034738Y-89025036D01*
X63864433Y-89152905D01*
X63856726Y-89159748D01*
X63779094Y-89240985D01*
X63717570Y-89276415D01*
X63646657Y-89272958D01*
X63588871Y-89231712D01*
X63570018Y-89198164D01*
X63528324Y-89086946D01*
X63519786Y-89071351D01*
X63443285Y-88969276D01*
X63430724Y-88956715D01*
X63328649Y-88880214D01*
X63313054Y-88871676D01*
X63192606Y-88826522D01*
X63177351Y-88822895D01*
X63126486Y-88817369D01*
X63119672Y-88817000D01*
X62497115Y-88817000D01*
X62481876Y-88821475D01*
X62480671Y-88822865D01*
X62479000Y-88830548D01*
X62479000Y-89902885D01*
X61971000Y-89902885D01*
X61971000Y-88835116D01*
X61966525Y-88819877D01*
X61965135Y-88818672D01*
X61957452Y-88817001D01*
X61330331Y-88817001D01*
X61323510Y-88817371D01*
X61272648Y-88822895D01*
X61257396Y-88826521D01*
X61136946Y-88871676D01*
X61121351Y-88880214D01*
X61019276Y-88956715D01*
X61006715Y-88969276D01*
X60930214Y-89071351D01*
X60921676Y-89086946D01*
X60876522Y-89207394D01*
X60872895Y-89222649D01*
X60867369Y-89273514D01*
X60867000Y-89280328D01*
X60867000Y-89902885D01*
X56137070Y-89902885D01*
X56143103Y-89896405D01*
X57447247Y-88592261D01*
X57455537Y-88584717D01*
X57462018Y-88580604D01*
X57508659Y-88530936D01*
X57511413Y-88528095D01*
X57531134Y-88508374D01*
X57533612Y-88505179D01*
X57541318Y-88496157D01*
X57566158Y-88469705D01*
X57571586Y-88463925D01*
X57581346Y-88446172D01*
X57592199Y-88429649D01*
X57599753Y-88419910D01*
X57604613Y-88413645D01*
X57622176Y-88373061D01*
X57627383Y-88362431D01*
X57648695Y-88323664D01*
X57650666Y-88315987D01*
X57650668Y-88315982D01*
X57653732Y-88304046D01*
X57660138Y-88285334D01*
X57665034Y-88274021D01*
X57668181Y-88266749D01*
X57675097Y-88223085D01*
X57677504Y-88211464D01*
X57686528Y-88176315D01*
X57686528Y-88176314D01*
X57688500Y-88168634D01*
X57688500Y-88148373D01*
X57690049Y-88128676D01*
X57690662Y-88124803D01*
X57721068Y-88060646D01*
X57781332Y-88023113D01*
X57815113Y-88018500D01*
X59318134Y-88018500D01*
X59380316Y-88011745D01*
X59516705Y-87960615D01*
X59633261Y-87873261D01*
X59720615Y-87756705D01*
X59771745Y-87620316D01*
X59778500Y-87558134D01*
X59778500Y-84957856D01*
X59779578Y-84941409D01*
X59781092Y-84929908D01*
X59781529Y-84926590D01*
X59783156Y-84860000D01*
X59778924Y-84808524D01*
X59778500Y-84798200D01*
X59778500Y-83961866D01*
X59771745Y-83899684D01*
X59720615Y-83763295D01*
X59633261Y-83646739D01*
X59516705Y-83559385D01*
X59380316Y-83508255D01*
X59318134Y-83501500D01*
X58434985Y-83501500D01*
X58433446Y-83501491D01*
X58330081Y-83500228D01*
X58330079Y-83500228D01*
X58324911Y-83500165D01*
X58319797Y-83500948D01*
X58316289Y-83501193D01*
X58307496Y-83501500D01*
X57814500Y-83501500D01*
X57746379Y-83481498D01*
X57699886Y-83427842D01*
X57688500Y-83375500D01*
X57688500Y-54593768D01*
X57689027Y-54582585D01*
X57690702Y-54575092D01*
X57688562Y-54507001D01*
X57688500Y-54503044D01*
X57688500Y-54475144D01*
X57687996Y-54471153D01*
X57687063Y-54459311D01*
X57685923Y-54423036D01*
X57685674Y-54415111D01*
X57680021Y-54395652D01*
X57676012Y-54376293D01*
X57675846Y-54374983D01*
X57673474Y-54356203D01*
X57670558Y-54348837D01*
X57670556Y-54348831D01*
X57657200Y-54315098D01*
X57653355Y-54303868D01*
X57643230Y-54269017D01*
X57643230Y-54269016D01*
X57641019Y-54261407D01*
X57630705Y-54243966D01*
X57622008Y-54226213D01*
X57617472Y-54214758D01*
X57614552Y-54207383D01*
X57588563Y-54171612D01*
X57582047Y-54161692D01*
X57563578Y-54130463D01*
X57559542Y-54123638D01*
X57545221Y-54109317D01*
X57532380Y-54094283D01*
X57525131Y-54084306D01*
X57520472Y-54077893D01*
X57486395Y-54049702D01*
X57477616Y-54041712D01*
X48385405Y-44949500D01*
X48351379Y-44887188D01*
X48348500Y-44860405D01*
X48348500Y-44547856D01*
X48349578Y-44531409D01*
X48351092Y-44519908D01*
X48351529Y-44516590D01*
X48353156Y-44450000D01*
X48348924Y-44398524D01*
X48348500Y-44388200D01*
X48348500Y-43551866D01*
X48341745Y-43489684D01*
X48290615Y-43353295D01*
X48217370Y-43255564D01*
X48192522Y-43189059D01*
X48207575Y-43119676D01*
X48217370Y-43104435D01*
X48285229Y-43013891D01*
X48290615Y-43006705D01*
X48341745Y-42870316D01*
X48348500Y-42808134D01*
X48348500Y-41011866D01*
X48341745Y-40949684D01*
X48290615Y-40813295D01*
X48217370Y-40715564D01*
X48192522Y-40649059D01*
X48207575Y-40579676D01*
X48217370Y-40564435D01*
X48285229Y-40473891D01*
X48290615Y-40466705D01*
X48341745Y-40330316D01*
X48348500Y-40268134D01*
X48348500Y-39990000D01*
X52191693Y-39990000D01*
X52210885Y-40209371D01*
X52267880Y-40422076D01*
X52270205Y-40427061D01*
X52358618Y-40616666D01*
X52358621Y-40616671D01*
X52360944Y-40621653D01*
X52364100Y-40626160D01*
X52364101Y-40626162D01*
X52373791Y-40640000D01*
X52487251Y-40802038D01*
X52642962Y-40957749D01*
X52823346Y-41084056D01*
X53022924Y-41177120D01*
X53235629Y-41234115D01*
X53455000Y-41253307D01*
X53674371Y-41234115D01*
X53887076Y-41177120D01*
X54086654Y-41084056D01*
X54267038Y-40957749D01*
X54422749Y-40802038D01*
X54536210Y-40640000D01*
X54545899Y-40626162D01*
X54545900Y-40626160D01*
X54549056Y-40621653D01*
X54551379Y-40616671D01*
X54551382Y-40616666D01*
X54639795Y-40427061D01*
X54642120Y-40422076D01*
X54699115Y-40209371D01*
X54718307Y-39990000D01*
X57041693Y-39990000D01*
X57060885Y-40209371D01*
X57117880Y-40422076D01*
X57120205Y-40427061D01*
X57208618Y-40616666D01*
X57208621Y-40616671D01*
X57210944Y-40621653D01*
X57214100Y-40626160D01*
X57214101Y-40626162D01*
X57223791Y-40640000D01*
X57337251Y-40802038D01*
X57492962Y-40957749D01*
X57673346Y-41084056D01*
X57872924Y-41177120D01*
X58085629Y-41234115D01*
X58305000Y-41253307D01*
X58524371Y-41234115D01*
X58737076Y-41177120D01*
X58936654Y-41084056D01*
X59117038Y-40957749D01*
X59272749Y-40802038D01*
X59386210Y-40640000D01*
X59395899Y-40626162D01*
X59395900Y-40626160D01*
X59399056Y-40621653D01*
X59401379Y-40616671D01*
X59401382Y-40616666D01*
X59489795Y-40427061D01*
X59492120Y-40422076D01*
X59549115Y-40209371D01*
X59568307Y-39990000D01*
X59549115Y-39770629D01*
X59492120Y-39557924D01*
X59442451Y-39451409D01*
X59401382Y-39363334D01*
X59401379Y-39363329D01*
X59399056Y-39358347D01*
X59395899Y-39353838D01*
X59275908Y-39182473D01*
X59275906Y-39182470D01*
X59272749Y-39177962D01*
X59117038Y-39022251D01*
X58936654Y-38895944D01*
X58737076Y-38802880D01*
X58524371Y-38745885D01*
X58305000Y-38726693D01*
X58085629Y-38745885D01*
X57872924Y-38802880D01*
X57779562Y-38846415D01*
X57678334Y-38893618D01*
X57678329Y-38893621D01*
X57673347Y-38895944D01*
X57668840Y-38899100D01*
X57668838Y-38899101D01*
X57497473Y-39019092D01*
X57497470Y-39019094D01*
X57492962Y-39022251D01*
X57337251Y-39177962D01*
X57334094Y-39182470D01*
X57334092Y-39182473D01*
X57214101Y-39353838D01*
X57210944Y-39358347D01*
X57208621Y-39363329D01*
X57208618Y-39363334D01*
X57167549Y-39451409D01*
X57117880Y-39557924D01*
X57060885Y-39770629D01*
X57041693Y-39990000D01*
X54718307Y-39990000D01*
X54699115Y-39770629D01*
X54642120Y-39557924D01*
X54592451Y-39451409D01*
X54551382Y-39363334D01*
X54551379Y-39363329D01*
X54549056Y-39358347D01*
X54545899Y-39353838D01*
X54425908Y-39182473D01*
X54425906Y-39182470D01*
X54422749Y-39177962D01*
X54267038Y-39022251D01*
X54086654Y-38895944D01*
X53887076Y-38802880D01*
X53674371Y-38745885D01*
X53455000Y-38726693D01*
X53235629Y-38745885D01*
X53022924Y-38802880D01*
X52929562Y-38846415D01*
X52828334Y-38893618D01*
X52828329Y-38893621D01*
X52823347Y-38895944D01*
X52818840Y-38899100D01*
X52818838Y-38899101D01*
X52647473Y-39019092D01*
X52647470Y-39019094D01*
X52642962Y-39022251D01*
X52487251Y-39177962D01*
X52484094Y-39182470D01*
X52484092Y-39182473D01*
X52364101Y-39353838D01*
X52360944Y-39358347D01*
X52358621Y-39363329D01*
X52358618Y-39363334D01*
X52317549Y-39451409D01*
X52267880Y-39557924D01*
X52210885Y-39770629D01*
X52191693Y-39990000D01*
X48348500Y-39990000D01*
X48348500Y-39467856D01*
X48349578Y-39451409D01*
X48351092Y-39439908D01*
X48351529Y-39436590D01*
X48353156Y-39370000D01*
X48348924Y-39318524D01*
X48348500Y-39308200D01*
X48348500Y-38471866D01*
X48341745Y-38409684D01*
X48290615Y-38273295D01*
X48217370Y-38175564D01*
X48192522Y-38109059D01*
X48207575Y-38039676D01*
X48217370Y-38024435D01*
X48285229Y-37933891D01*
X48290615Y-37926705D01*
X48341745Y-37790316D01*
X48348500Y-37728134D01*
X48348500Y-36927856D01*
X48348656Y-36925469D01*
X51742095Y-36925469D01*
X51742392Y-36930622D01*
X51742392Y-36930625D01*
X51748067Y-37029041D01*
X51755427Y-37156697D01*
X51756564Y-37161743D01*
X51756565Y-37161749D01*
X51788741Y-37304523D01*
X51806346Y-37382642D01*
X51808288Y-37387424D01*
X51808289Y-37387428D01*
X51891540Y-37592450D01*
X51893484Y-37597237D01*
X52014501Y-37794719D01*
X52166147Y-37969784D01*
X52344349Y-38117730D01*
X52544322Y-38234584D01*
X52760694Y-38317209D01*
X52765760Y-38318240D01*
X52765761Y-38318240D01*
X52818846Y-38329040D01*
X52987656Y-38363385D01*
X53118324Y-38368176D01*
X53213949Y-38371683D01*
X53213953Y-38371683D01*
X53219113Y-38371872D01*
X53224233Y-38371216D01*
X53224235Y-38371216D01*
X53297270Y-38361860D01*
X53448847Y-38342442D01*
X53453795Y-38340957D01*
X53453802Y-38340956D01*
X53665747Y-38277369D01*
X53670690Y-38275886D01*
X53675979Y-38273295D01*
X53874049Y-38176262D01*
X53874052Y-38176260D01*
X53878684Y-38173991D01*
X54067243Y-38039494D01*
X54231303Y-37876005D01*
X54366458Y-37687917D01*
X54413641Y-37592450D01*
X54466784Y-37484922D01*
X54466785Y-37484920D01*
X54469078Y-37480280D01*
X54536408Y-37258671D01*
X54566640Y-37029041D01*
X54568327Y-36960000D01*
X54565488Y-36925469D01*
X57192095Y-36925469D01*
X57192392Y-36930622D01*
X57192392Y-36930625D01*
X57198067Y-37029041D01*
X57205427Y-37156697D01*
X57206564Y-37161743D01*
X57206565Y-37161749D01*
X57238741Y-37304523D01*
X57256346Y-37382642D01*
X57258288Y-37387424D01*
X57258289Y-37387428D01*
X57341540Y-37592450D01*
X57343484Y-37597237D01*
X57464501Y-37794719D01*
X57616147Y-37969784D01*
X57794349Y-38117730D01*
X57994322Y-38234584D01*
X58210694Y-38317209D01*
X58215760Y-38318240D01*
X58215761Y-38318240D01*
X58268846Y-38329040D01*
X58437656Y-38363385D01*
X58568324Y-38368176D01*
X58663949Y-38371683D01*
X58663953Y-38371683D01*
X58669113Y-38371872D01*
X58674233Y-38371216D01*
X58674235Y-38371216D01*
X58747270Y-38361860D01*
X58898847Y-38342442D01*
X58903795Y-38340957D01*
X58903802Y-38340956D01*
X59115747Y-38277369D01*
X59120690Y-38275886D01*
X59125979Y-38273295D01*
X59324049Y-38176262D01*
X59324052Y-38176260D01*
X59328684Y-38173991D01*
X59517243Y-38039494D01*
X59681303Y-37876005D01*
X59816458Y-37687917D01*
X59863641Y-37592450D01*
X59916784Y-37484922D01*
X59916785Y-37484920D01*
X59919078Y-37480280D01*
X59986408Y-37258671D01*
X60016640Y-37029041D01*
X60018327Y-36960000D01*
X60010960Y-36870388D01*
X59999773Y-36734318D01*
X59999772Y-36734312D01*
X59999349Y-36729167D01*
X59942925Y-36504533D01*
X59940866Y-36499797D01*
X59852630Y-36296868D01*
X59852628Y-36296865D01*
X59850570Y-36292131D01*
X59724764Y-36097665D01*
X59568887Y-35926358D01*
X59564836Y-35923159D01*
X59564832Y-35923155D01*
X59391177Y-35786011D01*
X59391172Y-35786008D01*
X59387123Y-35782810D01*
X59382607Y-35780317D01*
X59382604Y-35780315D01*
X59188879Y-35673373D01*
X59188875Y-35673371D01*
X59184355Y-35670876D01*
X59179486Y-35669152D01*
X59179482Y-35669150D01*
X58970903Y-35595288D01*
X58970899Y-35595287D01*
X58966028Y-35593562D01*
X58960935Y-35592655D01*
X58960932Y-35592654D01*
X58743095Y-35553851D01*
X58743089Y-35553850D01*
X58738006Y-35552945D01*
X58665096Y-35552054D01*
X58511581Y-35550179D01*
X58511579Y-35550179D01*
X58506411Y-35550116D01*
X58277464Y-35585150D01*
X58057314Y-35657106D01*
X58052726Y-35659494D01*
X58052722Y-35659496D01*
X57856461Y-35761663D01*
X57851872Y-35764052D01*
X57847739Y-35767155D01*
X57847736Y-35767157D01*
X57700720Y-35877540D01*
X57666655Y-35903117D01*
X57506639Y-36070564D01*
X57503725Y-36074836D01*
X57503724Y-36074837D01*
X57488152Y-36097665D01*
X57376119Y-36261899D01*
X57278602Y-36471981D01*
X57216707Y-36695169D01*
X57192095Y-36925469D01*
X54565488Y-36925469D01*
X54560960Y-36870388D01*
X54549773Y-36734318D01*
X54549772Y-36734312D01*
X54549349Y-36729167D01*
X54492925Y-36504533D01*
X54490866Y-36499797D01*
X54402630Y-36296868D01*
X54402628Y-36296865D01*
X54400570Y-36292131D01*
X54274764Y-36097665D01*
X54118887Y-35926358D01*
X54114836Y-35923159D01*
X54114832Y-35923155D01*
X53941177Y-35786011D01*
X53941172Y-35786008D01*
X53937123Y-35782810D01*
X53932607Y-35780317D01*
X53932604Y-35780315D01*
X53738879Y-35673373D01*
X53738875Y-35673371D01*
X53734355Y-35670876D01*
X53729486Y-35669152D01*
X53729482Y-35669150D01*
X53520903Y-35595288D01*
X53520899Y-35595287D01*
X53516028Y-35593562D01*
X53510935Y-35592655D01*
X53510932Y-35592654D01*
X53293095Y-35553851D01*
X53293089Y-35553850D01*
X53288006Y-35552945D01*
X53215096Y-35552054D01*
X53061581Y-35550179D01*
X53061579Y-35550179D01*
X53056411Y-35550116D01*
X52827464Y-35585150D01*
X52607314Y-35657106D01*
X52602726Y-35659494D01*
X52602722Y-35659496D01*
X52406461Y-35761663D01*
X52401872Y-35764052D01*
X52397739Y-35767155D01*
X52397736Y-35767157D01*
X52250720Y-35877540D01*
X52216655Y-35903117D01*
X52056639Y-36070564D01*
X52053725Y-36074836D01*
X52053724Y-36074837D01*
X52038152Y-36097665D01*
X51926119Y-36261899D01*
X51828602Y-36471981D01*
X51766707Y-36695169D01*
X51742095Y-36925469D01*
X48348656Y-36925469D01*
X48349578Y-36911409D01*
X48351092Y-36899908D01*
X48351529Y-36896590D01*
X48353156Y-36830000D01*
X48348924Y-36778524D01*
X48348500Y-36768200D01*
X48348500Y-35931866D01*
X48341745Y-35869684D01*
X48290615Y-35733295D01*
X48203261Y-35616739D01*
X48086705Y-35529385D01*
X47950316Y-35478255D01*
X47888134Y-35471500D01*
X47004985Y-35471500D01*
X47003446Y-35471491D01*
X46900081Y-35470228D01*
X46900079Y-35470228D01*
X46894911Y-35470165D01*
X46889797Y-35470948D01*
X46886289Y-35471193D01*
X46877496Y-35471500D01*
X44291866Y-35471500D01*
X44229684Y-35478255D01*
X44093295Y-35529385D01*
X43976739Y-35616739D01*
X43971358Y-35623919D01*
X43915326Y-35698682D01*
X43858467Y-35741197D01*
X43787648Y-35746223D01*
X43725355Y-35712163D01*
X43691365Y-35649832D01*
X43688500Y-35623117D01*
X43688500Y-34924500D01*
X43708502Y-34856379D01*
X43762158Y-34809886D01*
X43814500Y-34798500D01*
X67945500Y-34798500D01*
X68013621Y-34818502D01*
G37*
%TD.AperFunction*%
%TA.AperFunction,Conductor*%
G36*
X46965443Y-86448585D02*
G01*
X47046673Y-86451564D01*
X47046677Y-86451564D01*
X47051837Y-86451753D01*
X47056957Y-86451097D01*
X47056959Y-86451097D01*
X47069261Y-86449521D01*
X47085271Y-86448500D01*
X47885228Y-86448500D01*
X47953349Y-86468502D01*
X47999842Y-86522158D01*
X48011228Y-86574500D01*
X48011228Y-88686000D01*
X47991226Y-88754121D01*
X47937570Y-88800614D01*
X47885228Y-88812000D01*
X47262115Y-88812000D01*
X47246876Y-88816475D01*
X47245671Y-88817865D01*
X47244000Y-88825548D01*
X47244000Y-90298000D01*
X47223998Y-90366121D01*
X47170342Y-90412614D01*
X47118000Y-90424000D01*
X46862000Y-90424000D01*
X46793879Y-90403998D01*
X46747386Y-90350342D01*
X46736000Y-90298000D01*
X46736000Y-88830116D01*
X46731525Y-88814877D01*
X46730135Y-88813672D01*
X46722452Y-88812001D01*
X46095331Y-88812001D01*
X46088510Y-88812371D01*
X46037648Y-88817895D01*
X46022396Y-88821521D01*
X45901946Y-88866676D01*
X45886351Y-88875214D01*
X45793065Y-88945128D01*
X45726558Y-88969976D01*
X45657176Y-88954923D01*
X45606946Y-88904749D01*
X45591500Y-88844302D01*
X45591500Y-87436595D01*
X45611502Y-87368474D01*
X45628405Y-87347499D01*
X46490501Y-86485404D01*
X46552813Y-86451379D01*
X46579596Y-86448500D01*
X46960826Y-86448500D01*
X46965443Y-86448585D01*
G37*
%TD.AperFunction*%
%TD*%
M02*
