%TF.GenerationSoftware,KiCad,Pcbnew,(6.0.6)*%
%TF.CreationDate,2022-08-06T18:53:41-04:00*%
%TF.ProjectId,freedap-pico,66726565-6461-4702-9d70-69636f2e6b69,rev?*%
%TF.SameCoordinates,Original*%
%TF.FileFunction,Legend,Bot*%
%TF.FilePolarity,Positive*%
%FSLAX46Y46*%
G04 Gerber Fmt 4.6, Leading zero omitted, Abs format (unit mm)*
G04 Created by KiCad (PCBNEW (6.0.6)) date 2022-08-06 18:53:41*
%MOMM*%
%LPD*%
G01*
G04 APERTURE LIST*
%ADD10C,0.150000*%
G04 APERTURE END LIST*
D10*
X54722380Y-49888571D02*
X53722380Y-49888571D01*
X53722380Y-50269523D01*
X53770000Y-50364761D01*
X53817619Y-50412380D01*
X53912857Y-50460000D01*
X54055714Y-50460000D01*
X54150952Y-50412380D01*
X54198571Y-50364761D01*
X54246190Y-50269523D01*
X54246190Y-49888571D01*
X54722380Y-50888571D02*
X54055714Y-50888571D01*
X53722380Y-50888571D02*
X53770000Y-50840952D01*
X53817619Y-50888571D01*
X53770000Y-50936190D01*
X53722380Y-50888571D01*
X53817619Y-50888571D01*
X54722380Y-52126666D02*
X53722380Y-52126666D01*
X53722380Y-52507619D01*
X53770000Y-52602857D01*
X53817619Y-52650476D01*
X53912857Y-52698095D01*
X54055714Y-52698095D01*
X54150952Y-52650476D01*
X54198571Y-52602857D01*
X54246190Y-52507619D01*
X54246190Y-52126666D01*
X54722380Y-53126666D02*
X54055714Y-53126666D01*
X53722380Y-53126666D02*
X53770000Y-53079047D01*
X53817619Y-53126666D01*
X53770000Y-53174285D01*
X53722380Y-53126666D01*
X53817619Y-53126666D01*
X54674761Y-54031428D02*
X54722380Y-53936190D01*
X54722380Y-53745714D01*
X54674761Y-53650476D01*
X54627142Y-53602857D01*
X54531904Y-53555238D01*
X54246190Y-53555238D01*
X54150952Y-53602857D01*
X54103333Y-53650476D01*
X54055714Y-53745714D01*
X54055714Y-53936190D01*
X54103333Y-54031428D01*
X54722380Y-54602857D02*
X54674761Y-54507619D01*
X54627142Y-54460000D01*
X54531904Y-54412380D01*
X54246190Y-54412380D01*
X54150952Y-54460000D01*
X54103333Y-54507619D01*
X54055714Y-54602857D01*
X54055714Y-54745714D01*
X54103333Y-54840952D01*
X54150952Y-54888571D01*
X54246190Y-54936190D01*
X54531904Y-54936190D01*
X54627142Y-54888571D01*
X54674761Y-54840952D01*
X54722380Y-54745714D01*
X54722380Y-54602857D01*
X54198571Y-56460000D02*
X54198571Y-56126666D01*
X54722380Y-56126666D02*
X53722380Y-56126666D01*
X53722380Y-56602857D01*
X54722380Y-56983809D02*
X54055714Y-56983809D01*
X54246190Y-56983809D02*
X54150952Y-57031428D01*
X54103333Y-57079047D01*
X54055714Y-57174285D01*
X54055714Y-57269523D01*
X54674761Y-57983809D02*
X54722380Y-57888571D01*
X54722380Y-57698095D01*
X54674761Y-57602857D01*
X54579523Y-57555238D01*
X54198571Y-57555238D01*
X54103333Y-57602857D01*
X54055714Y-57698095D01*
X54055714Y-57888571D01*
X54103333Y-57983809D01*
X54198571Y-58031428D01*
X54293809Y-58031428D01*
X54389047Y-57555238D01*
X54674761Y-58840952D02*
X54722380Y-58745714D01*
X54722380Y-58555238D01*
X54674761Y-58460000D01*
X54579523Y-58412380D01*
X54198571Y-58412380D01*
X54103333Y-58460000D01*
X54055714Y-58555238D01*
X54055714Y-58745714D01*
X54103333Y-58840952D01*
X54198571Y-58888571D01*
X54293809Y-58888571D01*
X54389047Y-58412380D01*
X54722380Y-59317142D02*
X53722380Y-59317142D01*
X53722380Y-59555238D01*
X53770000Y-59698095D01*
X53865238Y-59793333D01*
X53960476Y-59840952D01*
X54150952Y-59888571D01*
X54293809Y-59888571D01*
X54484285Y-59840952D01*
X54579523Y-59793333D01*
X54674761Y-59698095D01*
X54722380Y-59555238D01*
X54722380Y-59317142D01*
X54436666Y-60269523D02*
X54436666Y-60745714D01*
X54722380Y-60174285D02*
X53722380Y-60507619D01*
X54722380Y-60840952D01*
X54722380Y-61174285D02*
X53722380Y-61174285D01*
X53722380Y-61555238D01*
X53770000Y-61650476D01*
X53817619Y-61698095D01*
X53912857Y-61745714D01*
X54055714Y-61745714D01*
X54150952Y-61698095D01*
X54198571Y-61650476D01*
X54246190Y-61555238D01*
X54246190Y-61174285D01*
X54722380Y-63364761D02*
X54198571Y-63364761D01*
X54103333Y-63317142D01*
X54055714Y-63221904D01*
X54055714Y-63031428D01*
X54103333Y-62936190D01*
X54674761Y-63364761D02*
X54722380Y-63269523D01*
X54722380Y-63031428D01*
X54674761Y-62936190D01*
X54579523Y-62888571D01*
X54484285Y-62888571D01*
X54389047Y-62936190D01*
X54341428Y-63031428D01*
X54341428Y-63269523D01*
X54293809Y-63364761D01*
X54722380Y-64269523D02*
X53722380Y-64269523D01*
X54674761Y-64269523D02*
X54722380Y-64174285D01*
X54722380Y-63983809D01*
X54674761Y-63888571D01*
X54627142Y-63840952D01*
X54531904Y-63793333D01*
X54246190Y-63793333D01*
X54150952Y-63840952D01*
X54103333Y-63888571D01*
X54055714Y-63983809D01*
X54055714Y-64174285D01*
X54103333Y-64269523D01*
X54722380Y-65174285D02*
X54198571Y-65174285D01*
X54103333Y-65126666D01*
X54055714Y-65031428D01*
X54055714Y-64840952D01*
X54103333Y-64745714D01*
X54674761Y-65174285D02*
X54722380Y-65079047D01*
X54722380Y-64840952D01*
X54674761Y-64745714D01*
X54579523Y-64698095D01*
X54484285Y-64698095D01*
X54389047Y-64745714D01*
X54341428Y-64840952D01*
X54341428Y-65079047D01*
X54293809Y-65174285D01*
X54055714Y-65650476D02*
X55055714Y-65650476D01*
X54103333Y-65650476D02*
X54055714Y-65745714D01*
X54055714Y-65936190D01*
X54103333Y-66031428D01*
X54150952Y-66079047D01*
X54246190Y-66126666D01*
X54531904Y-66126666D01*
X54627142Y-66079047D01*
X54674761Y-66031428D01*
X54722380Y-65936190D01*
X54722380Y-65745714D01*
X54674761Y-65650476D01*
X54055714Y-66412380D02*
X54055714Y-66793333D01*
X53722380Y-66555238D02*
X54579523Y-66555238D01*
X54674761Y-66602857D01*
X54722380Y-66698095D01*
X54722380Y-66793333D01*
X54674761Y-67507619D02*
X54722380Y-67412380D01*
X54722380Y-67221904D01*
X54674761Y-67126666D01*
X54579523Y-67079047D01*
X54198571Y-67079047D01*
X54103333Y-67126666D01*
X54055714Y-67221904D01*
X54055714Y-67412380D01*
X54103333Y-67507619D01*
X54198571Y-67555238D01*
X54293809Y-67555238D01*
X54389047Y-67079047D01*
X54722380Y-67983809D02*
X54055714Y-67983809D01*
X54246190Y-67983809D02*
X54150952Y-68031428D01*
X54103333Y-68079047D01*
X54055714Y-68174285D01*
X54055714Y-68269523D01*
X54055714Y-69269523D02*
X54722380Y-69507619D01*
X54055714Y-69745714D01*
X54722380Y-70650476D02*
X54722380Y-70079047D01*
X54722380Y-70364761D02*
X53722380Y-70364761D01*
X53865238Y-70269523D01*
X53960476Y-70174285D01*
X54008095Y-70079047D01*
X54627142Y-71079047D02*
X54674761Y-71126666D01*
X54722380Y-71079047D01*
X54674761Y-71031428D01*
X54627142Y-71079047D01*
X54722380Y-71079047D01*
X53722380Y-71745714D02*
X53722380Y-71840952D01*
X53770000Y-71936190D01*
X53817619Y-71983809D01*
X53912857Y-72031428D01*
X54103333Y-72079047D01*
X54341428Y-72079047D01*
X54531904Y-72031428D01*
X54627142Y-71983809D01*
X54674761Y-71936190D01*
X54722380Y-71840952D01*
X54722380Y-71745714D01*
X54674761Y-71650476D01*
X54627142Y-71602857D01*
X54531904Y-71555238D01*
X54341428Y-71507619D01*
X54103333Y-71507619D01*
X53912857Y-71555238D01*
X53817619Y-71602857D01*
X53770000Y-71650476D01*
X53722380Y-71745714D01*
X56332380Y-51650476D02*
X55332380Y-51650476D01*
X55332380Y-51888571D01*
X55380000Y-52031428D01*
X55475238Y-52126666D01*
X55570476Y-52174285D01*
X55760952Y-52221904D01*
X55903809Y-52221904D01*
X56094285Y-52174285D01*
X56189523Y-52126666D01*
X56284761Y-52031428D01*
X56332380Y-51888571D01*
X56332380Y-51650476D01*
X56284761Y-53031428D02*
X56332380Y-52936190D01*
X56332380Y-52745714D01*
X56284761Y-52650476D01*
X56189523Y-52602857D01*
X55808571Y-52602857D01*
X55713333Y-52650476D01*
X55665714Y-52745714D01*
X55665714Y-52936190D01*
X55713333Y-53031428D01*
X55808571Y-53079047D01*
X55903809Y-53079047D01*
X55999047Y-52602857D01*
X56284761Y-53460000D02*
X56332380Y-53555238D01*
X56332380Y-53745714D01*
X56284761Y-53840952D01*
X56189523Y-53888571D01*
X56141904Y-53888571D01*
X56046666Y-53840952D01*
X55999047Y-53745714D01*
X55999047Y-53602857D01*
X55951428Y-53507619D01*
X55856190Y-53460000D01*
X55808571Y-53460000D01*
X55713333Y-53507619D01*
X55665714Y-53602857D01*
X55665714Y-53745714D01*
X55713333Y-53840952D01*
X56332380Y-54317142D02*
X55665714Y-54317142D01*
X55332380Y-54317142D02*
X55380000Y-54269523D01*
X55427619Y-54317142D01*
X55380000Y-54364761D01*
X55332380Y-54317142D01*
X55427619Y-54317142D01*
X55665714Y-55221904D02*
X56475238Y-55221904D01*
X56570476Y-55174285D01*
X56618095Y-55126666D01*
X56665714Y-55031428D01*
X56665714Y-54888571D01*
X56618095Y-54793333D01*
X56284761Y-55221904D02*
X56332380Y-55126666D01*
X56332380Y-54936190D01*
X56284761Y-54840952D01*
X56237142Y-54793333D01*
X56141904Y-54745714D01*
X55856190Y-54745714D01*
X55760952Y-54793333D01*
X55713333Y-54840952D01*
X55665714Y-54936190D01*
X55665714Y-55126666D01*
X55713333Y-55221904D01*
X55665714Y-55698095D02*
X56332380Y-55698095D01*
X55760952Y-55698095D02*
X55713333Y-55745714D01*
X55665714Y-55840952D01*
X55665714Y-55983809D01*
X55713333Y-56079047D01*
X55808571Y-56126666D01*
X56332380Y-56126666D01*
X56284761Y-56983809D02*
X56332380Y-56888571D01*
X56332380Y-56698095D01*
X56284761Y-56602857D01*
X56189523Y-56555238D01*
X55808571Y-56555238D01*
X55713333Y-56602857D01*
X55665714Y-56698095D01*
X55665714Y-56888571D01*
X55713333Y-56983809D01*
X55808571Y-57031428D01*
X55903809Y-57031428D01*
X55999047Y-56555238D01*
X56332380Y-57888571D02*
X55332380Y-57888571D01*
X56284761Y-57888571D02*
X56332380Y-57793333D01*
X56332380Y-57602857D01*
X56284761Y-57507619D01*
X56237142Y-57460000D01*
X56141904Y-57412380D01*
X55856190Y-57412380D01*
X55760952Y-57460000D01*
X55713333Y-57507619D01*
X55665714Y-57602857D01*
X55665714Y-57793333D01*
X55713333Y-57888571D01*
X56332380Y-59126666D02*
X55332380Y-59126666D01*
X55713333Y-59126666D02*
X55665714Y-59221904D01*
X55665714Y-59412380D01*
X55713333Y-59507619D01*
X55760952Y-59555238D01*
X55856190Y-59602857D01*
X56141904Y-59602857D01*
X56237142Y-59555238D01*
X56284761Y-59507619D01*
X56332380Y-59412380D01*
X56332380Y-59221904D01*
X56284761Y-59126666D01*
X55665714Y-59936190D02*
X56332380Y-60174285D01*
X55665714Y-60412380D02*
X56332380Y-60174285D01*
X56570476Y-60079047D01*
X56618095Y-60031428D01*
X56665714Y-59936190D01*
X55808571Y-61888571D02*
X55856190Y-62031428D01*
X55903809Y-62079047D01*
X55999047Y-62126666D01*
X56141904Y-62126666D01*
X56237142Y-62079047D01*
X56284761Y-62031428D01*
X56332380Y-61936190D01*
X56332380Y-61555238D01*
X55332380Y-61555238D01*
X55332380Y-61888571D01*
X55380000Y-61983809D01*
X55427619Y-62031428D01*
X55522857Y-62079047D01*
X55618095Y-62079047D01*
X55713333Y-62031428D01*
X55760952Y-61983809D01*
X55808571Y-61888571D01*
X55808571Y-61555238D01*
X56284761Y-62936190D02*
X56332380Y-62840952D01*
X56332380Y-62650476D01*
X56284761Y-62555238D01*
X56189523Y-62507619D01*
X55808571Y-62507619D01*
X55713333Y-62555238D01*
X55665714Y-62650476D01*
X55665714Y-62840952D01*
X55713333Y-62936190D01*
X55808571Y-62983809D01*
X55903809Y-62983809D01*
X55999047Y-62507619D01*
X55665714Y-63412380D02*
X56332380Y-63412380D01*
X55760952Y-63412380D02*
X55713333Y-63460000D01*
X55665714Y-63555238D01*
X55665714Y-63698095D01*
X55713333Y-63793333D01*
X55808571Y-63840952D01*
X56332380Y-63840952D01*
X55380000Y-65602857D02*
X55332380Y-65507619D01*
X55332380Y-65364761D01*
X55380000Y-65221904D01*
X55475238Y-65126666D01*
X55570476Y-65079047D01*
X55760952Y-65031428D01*
X55903809Y-65031428D01*
X56094285Y-65079047D01*
X56189523Y-65126666D01*
X56284761Y-65221904D01*
X56332380Y-65364761D01*
X56332380Y-65460000D01*
X56284761Y-65602857D01*
X56237142Y-65650476D01*
X55903809Y-65650476D01*
X55903809Y-65460000D01*
X56332380Y-66079047D02*
X55665714Y-66079047D01*
X55856190Y-66079047D02*
X55760952Y-66126666D01*
X55713333Y-66174285D01*
X55665714Y-66269523D01*
X55665714Y-66364761D01*
X56332380Y-67126666D02*
X55808571Y-67126666D01*
X55713333Y-67079047D01*
X55665714Y-66983809D01*
X55665714Y-66793333D01*
X55713333Y-66698095D01*
X56284761Y-67126666D02*
X56332380Y-67031428D01*
X56332380Y-66793333D01*
X56284761Y-66698095D01*
X56189523Y-66650476D01*
X56094285Y-66650476D01*
X55999047Y-66698095D01*
X55951428Y-66793333D01*
X55951428Y-67031428D01*
X55903809Y-67126666D01*
X56332380Y-67602857D02*
X55332380Y-67602857D01*
X56332380Y-68031428D02*
X55808571Y-68031428D01*
X55713333Y-67983809D01*
X55665714Y-67888571D01*
X55665714Y-67745714D01*
X55713333Y-67650476D01*
X55760952Y-67602857D01*
X56332380Y-68936190D02*
X55808571Y-68936190D01*
X55713333Y-68888571D01*
X55665714Y-68793333D01*
X55665714Y-68602857D01*
X55713333Y-68507619D01*
X56284761Y-68936190D02*
X56332380Y-68840952D01*
X56332380Y-68602857D01*
X56284761Y-68507619D01*
X56189523Y-68460000D01*
X56094285Y-68460000D01*
X55999047Y-68507619D01*
X55951428Y-68602857D01*
X55951428Y-68840952D01*
X55903809Y-68936190D01*
X56332380Y-69412380D02*
X55665714Y-69412380D01*
X55760952Y-69412380D02*
X55713333Y-69460000D01*
X55665714Y-69555238D01*
X55665714Y-69698095D01*
X55713333Y-69793333D01*
X55808571Y-69840952D01*
X56332380Y-69840952D01*
X55808571Y-69840952D02*
X55713333Y-69888571D01*
X55665714Y-69983809D01*
X55665714Y-70126666D01*
X55713333Y-70221904D01*
X55808571Y-70269523D01*
X56332380Y-70269523D01*
X57418571Y-48531428D02*
X57418571Y-48198095D01*
X57942380Y-48198095D02*
X56942380Y-48198095D01*
X56942380Y-48674285D01*
X57942380Y-49055238D02*
X57275714Y-49055238D01*
X57466190Y-49055238D02*
X57370952Y-49102857D01*
X57323333Y-49150476D01*
X57275714Y-49245714D01*
X57275714Y-49340952D01*
X57894761Y-50055238D02*
X57942380Y-49960000D01*
X57942380Y-49769523D01*
X57894761Y-49674285D01*
X57799523Y-49626666D01*
X57418571Y-49626666D01*
X57323333Y-49674285D01*
X57275714Y-49769523D01*
X57275714Y-49960000D01*
X57323333Y-50055238D01*
X57418571Y-50102857D01*
X57513809Y-50102857D01*
X57609047Y-49626666D01*
X57894761Y-50912380D02*
X57942380Y-50817142D01*
X57942380Y-50626666D01*
X57894761Y-50531428D01*
X57799523Y-50483809D01*
X57418571Y-50483809D01*
X57323333Y-50531428D01*
X57275714Y-50626666D01*
X57275714Y-50817142D01*
X57323333Y-50912380D01*
X57418571Y-50960000D01*
X57513809Y-50960000D01*
X57609047Y-50483809D01*
X57942380Y-51388571D02*
X56942380Y-51388571D01*
X56942380Y-51626666D01*
X56990000Y-51769523D01*
X57085238Y-51864761D01*
X57180476Y-51912380D01*
X57370952Y-51960000D01*
X57513809Y-51960000D01*
X57704285Y-51912380D01*
X57799523Y-51864761D01*
X57894761Y-51769523D01*
X57942380Y-51626666D01*
X57942380Y-51388571D01*
X57656666Y-52340952D02*
X57656666Y-52817142D01*
X57942380Y-52245714D02*
X56942380Y-52579047D01*
X57942380Y-52912380D01*
X57942380Y-53245714D02*
X56942380Y-53245714D01*
X56942380Y-53626666D01*
X56990000Y-53721904D01*
X57037619Y-53769523D01*
X57132857Y-53817142D01*
X57275714Y-53817142D01*
X57370952Y-53769523D01*
X57418571Y-53721904D01*
X57466190Y-53626666D01*
X57466190Y-53245714D01*
X57275714Y-54864761D02*
X57275714Y-55245714D01*
X57942380Y-55007619D02*
X57085238Y-55007619D01*
X56990000Y-55055238D01*
X56942380Y-55150476D01*
X56942380Y-55245714D01*
X57942380Y-55579047D02*
X57275714Y-55579047D01*
X56942380Y-55579047D02*
X56990000Y-55531428D01*
X57037619Y-55579047D01*
X56990000Y-55626666D01*
X56942380Y-55579047D01*
X57037619Y-55579047D01*
X57942380Y-56055238D02*
X57275714Y-56055238D01*
X57466190Y-56055238D02*
X57370952Y-56102857D01*
X57323333Y-56150476D01*
X57275714Y-56245714D01*
X57275714Y-56340952D01*
X57942380Y-56674285D02*
X57275714Y-56674285D01*
X57370952Y-56674285D02*
X57323333Y-56721904D01*
X57275714Y-56817142D01*
X57275714Y-56960000D01*
X57323333Y-57055238D01*
X57418571Y-57102857D01*
X57942380Y-57102857D01*
X57418571Y-57102857D02*
X57323333Y-57150476D01*
X57275714Y-57245714D01*
X57275714Y-57388571D01*
X57323333Y-57483809D01*
X57418571Y-57531428D01*
X57942380Y-57531428D01*
X57275714Y-57912380D02*
X57942380Y-58102857D01*
X57466190Y-58293333D01*
X57942380Y-58483809D01*
X57275714Y-58674285D01*
X57942380Y-59483809D02*
X57418571Y-59483809D01*
X57323333Y-59436190D01*
X57275714Y-59340952D01*
X57275714Y-59150476D01*
X57323333Y-59055238D01*
X57894761Y-59483809D02*
X57942380Y-59388571D01*
X57942380Y-59150476D01*
X57894761Y-59055238D01*
X57799523Y-59007619D01*
X57704285Y-59007619D01*
X57609047Y-59055238D01*
X57561428Y-59150476D01*
X57561428Y-59388571D01*
X57513809Y-59483809D01*
X57942380Y-59960000D02*
X57275714Y-59960000D01*
X57466190Y-59960000D02*
X57370952Y-60007619D01*
X57323333Y-60055238D01*
X57275714Y-60150476D01*
X57275714Y-60245714D01*
X57894761Y-60960000D02*
X57942380Y-60864761D01*
X57942380Y-60674285D01*
X57894761Y-60579047D01*
X57799523Y-60531428D01*
X57418571Y-60531428D01*
X57323333Y-60579047D01*
X57275714Y-60674285D01*
X57275714Y-60864761D01*
X57323333Y-60960000D01*
X57418571Y-61007619D01*
X57513809Y-61007619D01*
X57609047Y-60531428D01*
X57942380Y-62198095D02*
X56942380Y-62198095D01*
X57323333Y-62198095D02*
X57275714Y-62293333D01*
X57275714Y-62483809D01*
X57323333Y-62579047D01*
X57370952Y-62626666D01*
X57466190Y-62674285D01*
X57751904Y-62674285D01*
X57847142Y-62626666D01*
X57894761Y-62579047D01*
X57942380Y-62483809D01*
X57942380Y-62293333D01*
X57894761Y-62198095D01*
X57275714Y-63007619D02*
X57942380Y-63245714D01*
X57275714Y-63483809D02*
X57942380Y-63245714D01*
X58180476Y-63150476D01*
X58228095Y-63102857D01*
X58275714Y-63007619D01*
X57656666Y-64579047D02*
X57656666Y-65055238D01*
X57942380Y-64483809D02*
X56942380Y-64817142D01*
X57942380Y-65150476D01*
X57942380Y-65626666D02*
X57894761Y-65531428D01*
X57799523Y-65483809D01*
X56942380Y-65483809D01*
X57894761Y-66388571D02*
X57942380Y-66293333D01*
X57942380Y-66102857D01*
X57894761Y-66007619D01*
X57799523Y-65959999D01*
X57418571Y-65959999D01*
X57323333Y-66007619D01*
X57275714Y-66102857D01*
X57275714Y-66293333D01*
X57323333Y-66388571D01*
X57418571Y-66436190D01*
X57513809Y-66436190D01*
X57609047Y-65959999D01*
X57942380Y-66769523D02*
X57275714Y-67293333D01*
X57275714Y-66769523D02*
X57942380Y-67293333D01*
X56942380Y-68293333D02*
X56942380Y-68864761D01*
X57942380Y-68579047D02*
X56942380Y-68579047D01*
X57942380Y-69626666D02*
X57418571Y-69626666D01*
X57323333Y-69579047D01*
X57275714Y-69483809D01*
X57275714Y-69293333D01*
X57323333Y-69198095D01*
X57894761Y-69626666D02*
X57942380Y-69531428D01*
X57942380Y-69293333D01*
X57894761Y-69198095D01*
X57799523Y-69150476D01*
X57704285Y-69150476D01*
X57609047Y-69198095D01*
X57561428Y-69293333D01*
X57561428Y-69531428D01*
X57513809Y-69626666D01*
X57942380Y-70102857D02*
X57275714Y-70102857D01*
X57466190Y-70102857D02*
X57370952Y-70150476D01*
X57323333Y-70198095D01*
X57275714Y-70293333D01*
X57275714Y-70388571D01*
X57942380Y-71150476D02*
X57418571Y-71150476D01*
X57323333Y-71102857D01*
X57275714Y-71007619D01*
X57275714Y-70817142D01*
X57323333Y-70721904D01*
X57894761Y-71150476D02*
X57942380Y-71055238D01*
X57942380Y-70817142D01*
X57894761Y-70721904D01*
X57799523Y-70674285D01*
X57704285Y-70674285D01*
X57609047Y-70721904D01*
X57561428Y-70817142D01*
X57561428Y-71055238D01*
X57513809Y-71150476D01*
X57942380Y-72055238D02*
X56942380Y-72055238D01*
X57894761Y-72055238D02*
X57942380Y-71960000D01*
X57942380Y-71769523D01*
X57894761Y-71674285D01*
X57847142Y-71626666D01*
X57751904Y-71579047D01*
X57466190Y-71579047D01*
X57370952Y-71626666D01*
X57323333Y-71674285D01*
X57275714Y-71769523D01*
X57275714Y-71960000D01*
X57323333Y-72055238D01*
X57942380Y-72674285D02*
X57894761Y-72579047D01*
X57847142Y-72531428D01*
X57751904Y-72483809D01*
X57466190Y-72483809D01*
X57370952Y-72531428D01*
X57323333Y-72579047D01*
X57275714Y-72674285D01*
X57275714Y-72817142D01*
X57323333Y-72912380D01*
X57370952Y-72960000D01*
X57466190Y-73007619D01*
X57751904Y-73007619D01*
X57847142Y-72960000D01*
X57894761Y-72912380D01*
X57942380Y-72817142D01*
X57942380Y-72674285D01*
X57275714Y-73340952D02*
X57942380Y-73579047D01*
X57275714Y-73817142D01*
M02*
