%TF.GenerationSoftware,KiCad,Pcbnew,(6.0.6)*%
%TF.CreationDate,2022-08-06T18:53:41-04:00*%
%TF.ProjectId,freedap-pico,66726565-6461-4702-9d70-69636f2e6b69,rev?*%
%TF.SameCoordinates,Original*%
%TF.FileFunction,Soldermask,Bot*%
%TF.FilePolarity,Negative*%
%FSLAX46Y46*%
G04 Gerber Fmt 4.6, Leading zero omitted, Abs format (unit mm)*
G04 Created by KiCad (PCBNEW (6.0.6)) date 2022-08-06 18:53:41*
%MOMM*%
%LPD*%
G01*
G04 APERTURE LIST*
%ADD10R,1.700000X1.700000*%
%ADD11O,1.700000X1.700000*%
%ADD12O,1.500000X1.500000*%
%ADD13O,1.800000X1.800000*%
%ADD14C,1.600000*%
%ADD15O,1.600000X1.600000*%
%ADD16R,1.800000X1.800000*%
%ADD17C,1.800000*%
G04 APERTURE END LIST*
D10*
%TO.C,JPILL1*%
X46990000Y-90170000D03*
D11*
X46990000Y-92710000D03*
X46990000Y-95250000D03*
X46990000Y-97790000D03*
%TD*%
D10*
%TO.C,JVCP1*%
X46990000Y-105420000D03*
D11*
X46990000Y-107960000D03*
X46990000Y-110500000D03*
X46990000Y-113040000D03*
%TD*%
D12*
%TO.C,U1*%
X53455000Y-39990000D03*
X58305000Y-39990000D03*
D13*
X53155000Y-36960000D03*
X58605000Y-36960000D03*
D11*
X46990000Y-36830000D03*
X46990000Y-39370000D03*
D10*
X46990000Y-41910000D03*
D11*
X46990000Y-44450000D03*
X46990000Y-46990000D03*
X46990000Y-49530000D03*
X46990000Y-52070000D03*
D10*
X46990000Y-54610000D03*
D11*
X46990000Y-57150000D03*
X46990000Y-59690000D03*
X46990000Y-62230000D03*
X46990000Y-64770000D03*
D10*
X46990000Y-67310000D03*
D11*
X46990000Y-69850000D03*
X46990000Y-72390000D03*
X46990000Y-74930000D03*
X46990000Y-77470000D03*
D10*
X46990000Y-80010000D03*
D11*
X46990000Y-82550000D03*
X46990000Y-85090000D03*
X64770000Y-85090000D03*
X64770000Y-82550000D03*
D10*
X64770000Y-80010000D03*
D11*
X64770000Y-77470000D03*
X64770000Y-74930000D03*
X64770000Y-72390000D03*
X64770000Y-69850000D03*
D10*
X64770000Y-67310000D03*
D11*
X64770000Y-64770000D03*
X64770000Y-62230000D03*
X64770000Y-59690000D03*
X64770000Y-57150000D03*
D10*
X64770000Y-54610000D03*
D11*
X64770000Y-52070000D03*
X64770000Y-49530000D03*
X64770000Y-46990000D03*
X64770000Y-44450000D03*
D10*
X64770000Y-41910000D03*
D11*
X64770000Y-39370000D03*
X64770000Y-36830000D03*
X53340000Y-84860000D03*
D10*
X55880000Y-84860000D03*
D11*
X58420000Y-84860000D03*
%TD*%
D10*
%TO.C,JJTAG1*%
X62225000Y-90175000D03*
D11*
X64765000Y-90175000D03*
X62225000Y-92715000D03*
X64765000Y-92715000D03*
X62225000Y-95255000D03*
X64765000Y-95255000D03*
X62225000Y-97795000D03*
X64765000Y-97795000D03*
X62225000Y-100335000D03*
X64765000Y-100335000D03*
X62225000Y-102875000D03*
X64765000Y-102875000D03*
X62225000Y-105415000D03*
X64765000Y-105415000D03*
X62225000Y-107955000D03*
X64765000Y-107955000D03*
X62225000Y-110495000D03*
X64765000Y-110495000D03*
X62225000Y-113035000D03*
X64765000Y-113035000D03*
%TD*%
D14*
%TO.C,RLED1*%
X52070000Y-105410000D03*
D15*
X52070000Y-113030000D03*
%TD*%
D16*
%TO.C,DVCP1*%
X53340000Y-101600000D03*
D17*
X55880000Y-101600000D03*
%TD*%
D14*
%TO.C,RTRS1*%
X55880000Y-113030000D03*
D15*
X55880000Y-105410000D03*
%TD*%
M02*
