%TF.GenerationSoftware,KiCad,Pcbnew,(6.0.6)*%
%TF.CreationDate,2022-08-06T18:53:41-04:00*%
%TF.ProjectId,freedap-pico,66726565-6461-4702-9d70-69636f2e6b69,rev?*%
%TF.SameCoordinates,Original*%
%TF.FileFunction,Copper,L2,Bot*%
%TF.FilePolarity,Positive*%
%FSLAX46Y46*%
G04 Gerber Fmt 4.6, Leading zero omitted, Abs format (unit mm)*
G04 Created by KiCad (PCBNEW (6.0.6)) date 2022-08-06 18:53:41*
%MOMM*%
%LPD*%
G01*
G04 APERTURE LIST*
%TA.AperFunction,ComponentPad*%
%ADD10R,1.700000X1.700000*%
%TD*%
%TA.AperFunction,ComponentPad*%
%ADD11O,1.700000X1.700000*%
%TD*%
%TA.AperFunction,ComponentPad*%
%ADD12C,1.600000*%
%TD*%
%TA.AperFunction,ComponentPad*%
%ADD13O,1.600000X1.600000*%
%TD*%
%TA.AperFunction,ComponentPad*%
%ADD14R,1.800000X1.800000*%
%TD*%
%TA.AperFunction,ComponentPad*%
%ADD15C,1.800000*%
%TD*%
%TA.AperFunction,ViaPad*%
%ADD16C,0.800000*%
%TD*%
%TA.AperFunction,Conductor*%
%ADD17C,0.250000*%
%TD*%
G04 APERTURE END LIST*
D10*
%TO.P,JPILL1,1,Pin_1*%
%TO.N,+3V3*%
X46990000Y-90170000D03*
D11*
%TO.P,JPILL1,2,Pin_2*%
%TO.N,/SWDIO{slash}TMS*%
X46990000Y-92710000D03*
%TO.P,JPILL1,3,Pin_3*%
%TO.N,/SWCLK{slash}TCLK*%
X46990000Y-95250000D03*
%TO.P,JPILL1,4,Pin_4*%
%TO.N,GND*%
X46990000Y-97790000D03*
%TD*%
D10*
%TO.P,JVCP1,1,Pin_1*%
%TO.N,+3V3*%
X46990000Y-105420000D03*
D11*
%TO.P,JVCP1,2,Pin_2*%
%TO.N,/VRX*%
X46990000Y-107960000D03*
%TO.P,JVCP1,3,Pin_3*%
%TO.N,/VTX*%
X46990000Y-110500000D03*
%TO.P,JVCP1,4,Pin_4*%
%TO.N,GND*%
X46990000Y-113040000D03*
%TD*%
%TO.P,U1,1,GPIO0*%
%TO.N,/VTX*%
X46990000Y-36830000D03*
%TO.P,U1,2,GPIO1*%
%TO.N,/VRX*%
X46990000Y-39370000D03*
D10*
%TO.P,U1,3,GND*%
%TO.N,GND*%
X46990000Y-41910000D03*
D11*
%TO.P,U1,4,GPIO2*%
%TO.N,/VSTAT*%
X46990000Y-44450000D03*
%TO.P,U1,5,GPIO3*%
%TO.N,unconnected-(U1-Pad5)*%
X46990000Y-46990000D03*
%TO.P,U1,6,GPIO4*%
%TO.N,unconnected-(U1-Pad6)*%
X46990000Y-49530000D03*
%TO.P,U1,7,GPIO5*%
%TO.N,unconnected-(U1-Pad7)*%
X46990000Y-52070000D03*
D10*
%TO.P,U1,8,GND*%
%TO.N,GND*%
X46990000Y-54610000D03*
D11*
%TO.P,U1,9,GPIO6*%
%TO.N,unconnected-(U1-Pad9)*%
X46990000Y-57150000D03*
%TO.P,U1,10,GPIO7*%
%TO.N,unconnected-(U1-Pad10)*%
X46990000Y-59690000D03*
%TO.P,U1,11,GPIO8*%
%TO.N,unconnected-(U1-Pad11)*%
X46990000Y-62230000D03*
%TO.P,U1,12,GPIO9*%
%TO.N,unconnected-(U1-Pad12)*%
X46990000Y-64770000D03*
D10*
%TO.P,U1,13,GND*%
%TO.N,unconnected-(U1-Pad13)*%
X46990000Y-67310000D03*
D11*
%TO.P,U1,14,GPIO10*%
%TO.N,unconnected-(U1-Pad14)*%
X46990000Y-69850000D03*
%TO.P,U1,15,GPIO11*%
%TO.N,/SWCLK{slash}TCLK*%
X46990000Y-72390000D03*
%TO.P,U1,16,GPIO12*%
%TO.N,/SWDIO{slash}TMS*%
X46990000Y-74930000D03*
%TO.P,U1,17,GPIO13*%
%TO.N,/TDI*%
X46990000Y-77470000D03*
D10*
%TO.P,U1,18,GND*%
%TO.N,GND*%
X46990000Y-80010000D03*
D11*
%TO.P,U1,19,GPIO14*%
%TO.N,/TDO*%
X46990000Y-82550000D03*
%TO.P,U1,20,GPIO15*%
%TO.N,/nRST*%
X46990000Y-85090000D03*
%TO.P,U1,21,GPIO16*%
%TO.N,unconnected-(U1-Pad21)*%
X64770000Y-85090000D03*
%TO.P,U1,22,GPIO17*%
%TO.N,unconnected-(U1-Pad22)*%
X64770000Y-82550000D03*
D10*
%TO.P,U1,23,GND*%
%TO.N,GND*%
X64770000Y-80010000D03*
D11*
%TO.P,U1,24,GPIO18*%
%TO.N,unconnected-(U1-Pad24)*%
X64770000Y-77470000D03*
%TO.P,U1,25,GPIO19*%
%TO.N,unconnected-(U1-Pad25)*%
X64770000Y-74930000D03*
%TO.P,U1,26,GPIO20*%
%TO.N,unconnected-(U1-Pad26)*%
X64770000Y-72390000D03*
%TO.P,U1,27,GPIO21*%
%TO.N,unconnected-(U1-Pad27)*%
X64770000Y-69850000D03*
D10*
%TO.P,U1,28,GND*%
%TO.N,GND*%
X64770000Y-67310000D03*
D11*
%TO.P,U1,29,GPIO22*%
%TO.N,unconnected-(U1-Pad29)*%
X64770000Y-64770000D03*
%TO.P,U1,30,RUN*%
%TO.N,unconnected-(U1-Pad30)*%
X64770000Y-62230000D03*
%TO.P,U1,31,GPIO26_ADC0*%
%TO.N,unconnected-(U1-Pad31)*%
X64770000Y-59690000D03*
%TO.P,U1,32,GPIO27_ADC1*%
%TO.N,unconnected-(U1-Pad32)*%
X64770000Y-57150000D03*
D10*
%TO.P,U1,33,AGND*%
%TO.N,GND*%
X64770000Y-54610000D03*
D11*
%TO.P,U1,34,GPIO28_ADC2*%
%TO.N,unconnected-(U1-Pad34)*%
X64770000Y-52070000D03*
%TO.P,U1,35,ADC_VREF*%
%TO.N,unconnected-(U1-Pad35)*%
X64770000Y-49530000D03*
%TO.P,U1,36,3V3*%
%TO.N,+3V3*%
X64770000Y-46990000D03*
%TO.P,U1,37,3V3_EN*%
%TO.N,unconnected-(U1-Pad37)*%
X64770000Y-44450000D03*
D10*
%TO.P,U1,38,GND*%
%TO.N,GND*%
X64770000Y-41910000D03*
D11*
%TO.P,U1,39,VSYS*%
%TO.N,unconnected-(U1-Pad39)*%
X64770000Y-39370000D03*
%TO.P,U1,40,VBUS*%
%TO.N,unconnected-(U1-Pad40)*%
X64770000Y-36830000D03*
%TO.P,U1,41,SWCLK*%
%TO.N,unconnected-(U1-Pad41)*%
X53340000Y-84860000D03*
D10*
%TO.P,U1,42,GND*%
%TO.N,GND*%
X55880000Y-84860000D03*
D11*
%TO.P,U1,43,SWDIO*%
%TO.N,unconnected-(U1-Pad43)*%
X58420000Y-84860000D03*
%TD*%
D10*
%TO.P,JJTAG1,1,Pin_1*%
%TO.N,+3V3*%
X62225000Y-90175000D03*
D11*
%TO.P,JJTAG1,2,Pin_2*%
X64765000Y-90175000D03*
%TO.P,JJTAG1,3,Pin_3*%
%TO.N,Net-(JJTAG1-Pad3)*%
X62225000Y-92715000D03*
%TO.P,JJTAG1,4,Pin_4*%
%TO.N,GND*%
X64765000Y-92715000D03*
%TO.P,JJTAG1,5,Pin_5*%
%TO.N,/TDI*%
X62225000Y-95255000D03*
%TO.P,JJTAG1,6,Pin_6*%
%TO.N,GND*%
X64765000Y-95255000D03*
%TO.P,JJTAG1,7,Pin_7*%
%TO.N,/SWDIO{slash}TMS*%
X62225000Y-97795000D03*
%TO.P,JJTAG1,8,Pin_8*%
%TO.N,GND*%
X64765000Y-97795000D03*
%TO.P,JJTAG1,9,Pin_9*%
%TO.N,/SWCLK{slash}TCLK*%
X62225000Y-100335000D03*
%TO.P,JJTAG1,10,Pin_10*%
%TO.N,GND*%
X64765000Y-100335000D03*
%TO.P,JJTAG1,11,Pin_11*%
%TO.N,unconnected-(JJTAG1-Pad11)*%
X62225000Y-102875000D03*
%TO.P,JJTAG1,12,Pin_12*%
%TO.N,GND*%
X64765000Y-102875000D03*
%TO.P,JJTAG1,13,Pin_13*%
%TO.N,/TDO*%
X62225000Y-105415000D03*
%TO.P,JJTAG1,14,Pin_14*%
%TO.N,GND*%
X64765000Y-105415000D03*
%TO.P,JJTAG1,15,Pin_15*%
%TO.N,/nRST*%
X62225000Y-107955000D03*
%TO.P,JJTAG1,16,Pin_16*%
%TO.N,GND*%
X64765000Y-107955000D03*
%TO.P,JJTAG1,17,Pin_17*%
%TO.N,unconnected-(JJTAG1-Pad17)*%
X62225000Y-110495000D03*
%TO.P,JJTAG1,18,Pin_18*%
%TO.N,GND*%
X64765000Y-110495000D03*
%TO.P,JJTAG1,19,Pin_19*%
%TO.N,unconnected-(JJTAG1-Pad19)*%
X62225000Y-113035000D03*
%TO.P,JJTAG1,20,Pin_20*%
%TO.N,GND*%
X64765000Y-113035000D03*
%TD*%
D12*
%TO.P,RLED1,1*%
%TO.N,Net-(DVCP1-Pad1)*%
X52070000Y-105410000D03*
D13*
%TO.P,RLED1,2*%
%TO.N,GND*%
X52070000Y-113030000D03*
%TD*%
D14*
%TO.P,DVCP1,1,K*%
%TO.N,Net-(DVCP1-Pad1)*%
X53340000Y-101600000D03*
D15*
%TO.P,DVCP1,2,A*%
%TO.N,/VSTAT*%
X55880000Y-101600000D03*
%TD*%
D12*
%TO.P,RTRS1,1*%
%TO.N,+3V3*%
X55880000Y-113030000D03*
D13*
%TO.P,RTRS1,2*%
%TO.N,Net-(JJTAG1-Pad3)*%
X55880000Y-105410000D03*
%TD*%
D16*
%TO.N,+3V3*%
X52660000Y-91440000D03*
%TO.N,GND*%
X46990000Y-101600000D03*
%TD*%
D17*
%TO.N,+3V3*%
X62225000Y-90175000D02*
X60960000Y-91440000D01*
X52660000Y-91440000D02*
X48260000Y-91440000D01*
X48260000Y-91440000D02*
X46990000Y-90170000D01*
X60960000Y-91440000D02*
X52660000Y-91440000D01*
%TO.N,/TDI*%
X63499278Y-88277577D02*
X52691701Y-77470000D01*
X62225000Y-95255000D02*
X63499278Y-93980722D01*
X52691701Y-77470000D02*
X46990000Y-77470000D01*
X63499278Y-93980722D02*
X63499278Y-88277577D01*
%TO.N,/SWDIO{slash}TMS*%
X46990000Y-92710000D02*
X49022000Y-94742000D01*
X59172000Y-94742000D02*
X62225000Y-97795000D01*
X49022000Y-94742000D02*
X59172000Y-94742000D01*
%TO.N,/SWCLK{slash}TCLK*%
X48644728Y-82426728D02*
X47403000Y-81185000D01*
X45212000Y-74168000D02*
X46990000Y-72390000D01*
X45212000Y-80582000D02*
X45212000Y-74168000D01*
X45815000Y-81185000D02*
X45212000Y-80582000D01*
X45815000Y-89154000D02*
X48644728Y-86324272D01*
X46990000Y-95250000D02*
X57140000Y-95250000D01*
X48644728Y-86324272D02*
X48644728Y-82426728D01*
X45815000Y-94075000D02*
X45815000Y-89154000D01*
X47403000Y-81185000D02*
X45815000Y-81185000D01*
X57140000Y-95250000D02*
X62225000Y-100335000D01*
X46990000Y-95250000D02*
X45815000Y-94075000D01*
%TO.N,/TDO*%
X50408299Y-102870000D02*
X45212000Y-97673701D01*
X45212000Y-84328000D02*
X46990000Y-82550000D01*
X59680000Y-102870000D02*
X50408299Y-102870000D01*
X62225000Y-105415000D02*
X59680000Y-102870000D01*
X45212000Y-97673701D02*
X45212000Y-84328000D01*
%TO.N,/VTX*%
X44254000Y-107764000D02*
X44254000Y-73406000D01*
X44254000Y-73406000D02*
X45016000Y-72644000D01*
X46990000Y-110500000D02*
X44254000Y-107764000D01*
X45016000Y-72644000D02*
X45016000Y-38804000D01*
X45016000Y-38804000D02*
X46990000Y-36830000D01*
%TO.N,/VRX*%
X46990000Y-39370000D02*
X45466000Y-40894000D01*
X44704000Y-105674000D02*
X46990000Y-107960000D01*
X45466000Y-40894000D02*
X45466000Y-73152000D01*
X44704000Y-73914000D02*
X44704000Y-105674000D01*
X45466000Y-73152000D02*
X44704000Y-73914000D01*
%TD*%
%TA.AperFunction,Conductor*%
%TO.N,GND*%
G36*
X68013621Y-34818502D02*
G01*
X68060114Y-34872158D01*
X68071500Y-34924500D01*
X68071500Y-114935500D01*
X68051498Y-115003621D01*
X67997842Y-115050114D01*
X67945500Y-115061500D01*
X43814500Y-115061500D01*
X43746379Y-115041498D01*
X43699886Y-114987842D01*
X43688500Y-114935500D01*
X43688500Y-113307966D01*
X45658257Y-113307966D01*
X45688565Y-113442446D01*
X45691645Y-113452275D01*
X45771770Y-113649603D01*
X45776413Y-113658794D01*
X45887694Y-113840388D01*
X45893777Y-113848699D01*
X46033213Y-114009667D01*
X46040580Y-114016883D01*
X46204434Y-114152916D01*
X46212881Y-114158831D01*
X46396756Y-114266279D01*
X46406042Y-114270729D01*
X46605001Y-114346703D01*
X46614899Y-114349579D01*
X46718250Y-114370606D01*
X46732299Y-114369410D01*
X46736000Y-114359065D01*
X46736000Y-114358517D01*
X47244000Y-114358517D01*
X47248064Y-114372359D01*
X47261478Y-114374393D01*
X47268184Y-114373534D01*
X47278262Y-114371392D01*
X47482255Y-114310191D01*
X47491842Y-114306433D01*
X47683095Y-114212739D01*
X47691945Y-114207464D01*
X47865328Y-114083792D01*
X47873200Y-114077139D01*
X48024052Y-113926812D01*
X48030730Y-113918965D01*
X48155003Y-113746020D01*
X48160313Y-113737183D01*
X48254670Y-113546267D01*
X48258469Y-113536672D01*
X48320377Y-113332910D01*
X48322555Y-113322837D01*
X48323986Y-113311962D01*
X48321775Y-113297778D01*
X48317401Y-113296522D01*
X50787273Y-113296522D01*
X50834764Y-113473761D01*
X50838510Y-113484053D01*
X50930586Y-113681511D01*
X50936069Y-113691007D01*
X51061028Y-113869467D01*
X51068084Y-113877875D01*
X51222125Y-114031916D01*
X51230533Y-114038972D01*
X51408993Y-114163931D01*
X51418489Y-114169414D01*
X51615947Y-114261490D01*
X51626239Y-114265236D01*
X51798503Y-114311394D01*
X51812599Y-114311058D01*
X51816000Y-114303116D01*
X51816000Y-114297967D01*
X52324000Y-114297967D01*
X52327973Y-114311498D01*
X52336522Y-114312727D01*
X52513761Y-114265236D01*
X52524053Y-114261490D01*
X52721511Y-114169414D01*
X52731007Y-114163931D01*
X52909467Y-114038972D01*
X52917875Y-114031916D01*
X53071916Y-113877875D01*
X53078972Y-113869467D01*
X53203931Y-113691007D01*
X53209414Y-113681511D01*
X53301490Y-113484053D01*
X53305236Y-113473761D01*
X53351394Y-113301497D01*
X53351058Y-113287401D01*
X53343116Y-113284000D01*
X52342115Y-113284000D01*
X52326876Y-113288475D01*
X52325671Y-113289865D01*
X52324000Y-113297548D01*
X52324000Y-114297967D01*
X51816000Y-114297967D01*
X51816000Y-113302115D01*
X51811525Y-113286876D01*
X51810135Y-113285671D01*
X51802452Y-113284000D01*
X50802033Y-113284000D01*
X50788502Y-113287973D01*
X50787273Y-113296522D01*
X48317401Y-113296522D01*
X48308617Y-113294000D01*
X47262115Y-113294000D01*
X47246876Y-113298475D01*
X47245671Y-113299865D01*
X47244000Y-113307548D01*
X47244000Y-114358517D01*
X46736000Y-114358517D01*
X46736000Y-113312115D01*
X46731525Y-113296876D01*
X46730135Y-113295671D01*
X46722452Y-113294000D01*
X45673225Y-113294000D01*
X45659694Y-113297973D01*
X45658257Y-113307966D01*
X43688500Y-113307966D01*
X43688500Y-113030000D01*
X54566502Y-113030000D01*
X54586457Y-113258087D01*
X54587881Y-113263400D01*
X54587881Y-113263402D01*
X54634557Y-113437596D01*
X54645716Y-113479243D01*
X54648039Y-113484224D01*
X54648039Y-113484225D01*
X54740151Y-113681762D01*
X54740154Y-113681767D01*
X54742477Y-113686749D01*
X54780478Y-113741020D01*
X54852579Y-113843990D01*
X54873802Y-113874300D01*
X55035700Y-114036198D01*
X55040208Y-114039355D01*
X55040211Y-114039357D01*
X55103671Y-114083792D01*
X55223251Y-114167523D01*
X55228233Y-114169846D01*
X55228238Y-114169849D01*
X55424765Y-114261490D01*
X55430757Y-114264284D01*
X55436065Y-114265706D01*
X55436067Y-114265707D01*
X55646598Y-114322119D01*
X55646600Y-114322119D01*
X55651913Y-114323543D01*
X55880000Y-114343498D01*
X56108087Y-114323543D01*
X56113400Y-114322119D01*
X56113402Y-114322119D01*
X56323933Y-114265707D01*
X56323935Y-114265706D01*
X56329243Y-114264284D01*
X56335235Y-114261490D01*
X56531762Y-114169849D01*
X56531767Y-114169846D01*
X56536749Y-114167523D01*
X56656329Y-114083792D01*
X56719789Y-114039357D01*
X56719792Y-114039355D01*
X56724300Y-114036198D01*
X56886198Y-113874300D01*
X56907422Y-113843990D01*
X56979522Y-113741020D01*
X57017523Y-113686749D01*
X57019846Y-113681767D01*
X57019849Y-113681762D01*
X57111961Y-113484225D01*
X57111961Y-113484224D01*
X57114284Y-113479243D01*
X57125444Y-113437596D01*
X57172119Y-113263402D01*
X57172119Y-113263400D01*
X57173543Y-113258087D01*
X57193498Y-113030000D01*
X57173543Y-112801913D01*
X57163244Y-112763478D01*
X57115707Y-112586067D01*
X57115706Y-112586065D01*
X57114284Y-112580757D01*
X57106835Y-112564783D01*
X57019849Y-112378238D01*
X57019846Y-112378233D01*
X57017523Y-112373251D01*
X56901761Y-112207926D01*
X56889357Y-112190211D01*
X56889355Y-112190208D01*
X56886198Y-112185700D01*
X56724300Y-112023802D01*
X56719792Y-112020645D01*
X56719789Y-112020643D01*
X56552094Y-111903222D01*
X56536749Y-111892477D01*
X56531767Y-111890154D01*
X56531762Y-111890151D01*
X56334225Y-111798039D01*
X56334224Y-111798039D01*
X56329243Y-111795716D01*
X56323935Y-111794294D01*
X56323933Y-111794293D01*
X56113402Y-111737881D01*
X56113400Y-111737881D01*
X56108087Y-111736457D01*
X55880000Y-111716502D01*
X55651913Y-111736457D01*
X55646600Y-111737881D01*
X55646598Y-111737881D01*
X55436067Y-111794293D01*
X55436065Y-111794294D01*
X55430757Y-111795716D01*
X55425776Y-111798039D01*
X55425775Y-111798039D01*
X55228238Y-111890151D01*
X55228233Y-111890154D01*
X55223251Y-111892477D01*
X55207906Y-111903222D01*
X55040211Y-112020643D01*
X55040208Y-112020645D01*
X55035700Y-112023802D01*
X54873802Y-112185700D01*
X54870645Y-112190208D01*
X54870643Y-112190211D01*
X54858239Y-112207926D01*
X54742477Y-112373251D01*
X54740154Y-112378233D01*
X54740151Y-112378238D01*
X54653165Y-112564783D01*
X54645716Y-112580757D01*
X54644294Y-112586065D01*
X54644293Y-112586067D01*
X54596756Y-112763478D01*
X54586457Y-112801913D01*
X54566502Y-113030000D01*
X43688500Y-113030000D01*
X43688500Y-108398594D01*
X43708502Y-108330473D01*
X43762158Y-108283980D01*
X43832432Y-108273876D01*
X43897012Y-108303370D01*
X43903595Y-108309499D01*
X45639778Y-110045682D01*
X45673804Y-110107994D01*
X45672100Y-110168448D01*
X45650989Y-110244570D01*
X45650441Y-110249700D01*
X45650440Y-110249704D01*
X45646933Y-110282522D01*
X45627251Y-110466695D01*
X45627548Y-110471848D01*
X45627548Y-110471851D01*
X45633011Y-110566590D01*
X45640110Y-110689715D01*
X45641247Y-110694761D01*
X45641248Y-110694767D01*
X45662275Y-110788069D01*
X45689222Y-110907639D01*
X45773266Y-111114616D01*
X45889987Y-111305088D01*
X46036250Y-111473938D01*
X46111213Y-111536173D01*
X46198123Y-111608327D01*
X46208126Y-111616632D01*
X46272889Y-111654476D01*
X46281955Y-111659774D01*
X46330679Y-111711412D01*
X46343750Y-111781195D01*
X46317019Y-111846967D01*
X46276562Y-111880327D01*
X46268457Y-111884546D01*
X46259738Y-111890036D01*
X46089433Y-112017905D01*
X46081726Y-112024748D01*
X45934590Y-112178717D01*
X45928104Y-112186727D01*
X45808098Y-112362649D01*
X45803000Y-112371623D01*
X45713338Y-112564783D01*
X45709775Y-112574470D01*
X45654389Y-112774183D01*
X45655912Y-112782607D01*
X45668292Y-112786000D01*
X48308344Y-112786000D01*
X48321875Y-112782027D01*
X48323180Y-112772947D01*
X48319552Y-112758503D01*
X50788606Y-112758503D01*
X50788942Y-112772599D01*
X50796884Y-112776000D01*
X51797885Y-112776000D01*
X51813124Y-112771525D01*
X51814329Y-112770135D01*
X51816000Y-112762452D01*
X51816000Y-112757885D01*
X52324000Y-112757885D01*
X52328475Y-112773124D01*
X52329865Y-112774329D01*
X52337548Y-112776000D01*
X53337967Y-112776000D01*
X53351498Y-112772027D01*
X53352727Y-112763478D01*
X53305236Y-112586239D01*
X53301490Y-112575947D01*
X53209414Y-112378489D01*
X53203931Y-112368993D01*
X53078972Y-112190533D01*
X53071916Y-112182125D01*
X52917875Y-112028084D01*
X52909467Y-112021028D01*
X52731007Y-111896069D01*
X52721511Y-111890586D01*
X52524053Y-111798510D01*
X52513761Y-111794764D01*
X52341497Y-111748606D01*
X52327401Y-111748942D01*
X52324000Y-111756884D01*
X52324000Y-112757885D01*
X51816000Y-112757885D01*
X51816000Y-111762033D01*
X51812027Y-111748502D01*
X51803478Y-111747273D01*
X51626239Y-111794764D01*
X51615947Y-111798510D01*
X51418489Y-111890586D01*
X51408993Y-111896069D01*
X51230533Y-112021028D01*
X51222125Y-112028084D01*
X51068084Y-112182125D01*
X51061028Y-112190533D01*
X50936069Y-112368993D01*
X50930586Y-112378489D01*
X50838510Y-112575947D01*
X50834764Y-112586239D01*
X50788606Y-112758503D01*
X48319552Y-112758503D01*
X48281214Y-112605875D01*
X48277894Y-112596124D01*
X48192972Y-112400814D01*
X48188105Y-112391739D01*
X48072426Y-112212926D01*
X48066136Y-112204757D01*
X47922806Y-112047240D01*
X47915273Y-112040215D01*
X47748139Y-111908222D01*
X47739556Y-111902520D01*
X47702602Y-111882120D01*
X47652631Y-111831687D01*
X47637859Y-111762245D01*
X47662975Y-111695839D01*
X47690327Y-111669232D01*
X47713797Y-111652491D01*
X47869860Y-111541173D01*
X48028096Y-111383489D01*
X48085222Y-111303990D01*
X48155435Y-111206277D01*
X48158453Y-111202077D01*
X48174466Y-111169678D01*
X48255136Y-111006453D01*
X48255137Y-111006451D01*
X48257430Y-111001811D01*
X48322370Y-110788069D01*
X48351529Y-110566590D01*
X48353156Y-110500000D01*
X48334852Y-110277361D01*
X48280431Y-110060702D01*
X48191354Y-109855840D01*
X48070014Y-109668277D01*
X47919670Y-109503051D01*
X47915619Y-109499852D01*
X47915615Y-109499848D01*
X47748414Y-109367800D01*
X47748410Y-109367798D01*
X47744359Y-109364598D01*
X47703053Y-109341796D01*
X47653084Y-109291364D01*
X47638312Y-109221921D01*
X47663428Y-109155516D01*
X47690780Y-109128909D01*
X47767420Y-109074242D01*
X47869860Y-109001173D01*
X48028096Y-108843489D01*
X48085222Y-108763990D01*
X48155435Y-108666277D01*
X48158453Y-108662077D01*
X48174466Y-108629678D01*
X48255136Y-108466453D01*
X48255137Y-108466451D01*
X48257430Y-108461811D01*
X48322370Y-108248069D01*
X48351529Y-108026590D01*
X48351651Y-108021590D01*
X48353074Y-107963365D01*
X48353074Y-107963361D01*
X48353156Y-107960000D01*
X48334852Y-107737361D01*
X48280431Y-107520702D01*
X48191354Y-107315840D01*
X48070014Y-107128277D01*
X48066532Y-107124450D01*
X47922798Y-106966488D01*
X47891746Y-106902642D01*
X47900141Y-106832143D01*
X47945317Y-106777375D01*
X47971761Y-106763706D01*
X48078297Y-106723767D01*
X48086705Y-106720615D01*
X48203261Y-106633261D01*
X48290615Y-106516705D01*
X48341745Y-106380316D01*
X48348500Y-106318134D01*
X48348500Y-105410000D01*
X50756502Y-105410000D01*
X50776457Y-105638087D01*
X50777881Y-105643400D01*
X50777881Y-105643402D01*
X50824557Y-105817596D01*
X50835716Y-105859243D01*
X50838039Y-105864224D01*
X50838039Y-105864225D01*
X50930151Y-106061762D01*
X50930154Y-106061767D01*
X50932477Y-106066749D01*
X50970478Y-106121020D01*
X51042579Y-106223990D01*
X51063802Y-106254300D01*
X51225700Y-106416198D01*
X51230208Y-106419355D01*
X51230211Y-106419357D01*
X51308389Y-106474098D01*
X51413251Y-106547523D01*
X51418233Y-106549846D01*
X51418238Y-106549849D01*
X51615775Y-106641961D01*
X51620757Y-106644284D01*
X51626065Y-106645706D01*
X51626067Y-106645707D01*
X51836598Y-106702119D01*
X51836600Y-106702119D01*
X51841913Y-106703543D01*
X52070000Y-106723498D01*
X52298087Y-106703543D01*
X52303400Y-106702119D01*
X52303402Y-106702119D01*
X52513933Y-106645707D01*
X52513935Y-106645706D01*
X52519243Y-106644284D01*
X52524225Y-106641961D01*
X52721762Y-106549849D01*
X52721767Y-106549846D01*
X52726749Y-106547523D01*
X52831611Y-106474098D01*
X52909789Y-106419357D01*
X52909792Y-106419355D01*
X52914300Y-106416198D01*
X53076198Y-106254300D01*
X53097422Y-106223990D01*
X53169522Y-106121020D01*
X53207523Y-106066749D01*
X53209846Y-106061767D01*
X53209849Y-106061762D01*
X53301961Y-105864225D01*
X53301961Y-105864224D01*
X53304284Y-105859243D01*
X53315444Y-105817596D01*
X53362119Y-105643402D01*
X53362119Y-105643400D01*
X53363543Y-105638087D01*
X53383498Y-105410000D01*
X54566502Y-105410000D01*
X54586457Y-105638087D01*
X54587881Y-105643400D01*
X54587881Y-105643402D01*
X54634557Y-105817596D01*
X54645716Y-105859243D01*
X54648039Y-105864224D01*
X54648039Y-105864225D01*
X54740151Y-106061762D01*
X54740154Y-106061767D01*
X54742477Y-106066749D01*
X54780478Y-106121020D01*
X54852579Y-106223990D01*
X54873802Y-106254300D01*
X55035700Y-106416198D01*
X55040208Y-106419355D01*
X55040211Y-106419357D01*
X55118389Y-106474098D01*
X55223251Y-106547523D01*
X55228233Y-106549846D01*
X55228238Y-106549849D01*
X55425775Y-106641961D01*
X55430757Y-106644284D01*
X55436065Y-106645706D01*
X55436067Y-106645707D01*
X55646598Y-106702119D01*
X55646600Y-106702119D01*
X55651913Y-106703543D01*
X55880000Y-106723498D01*
X56108087Y-106703543D01*
X56113400Y-106702119D01*
X56113402Y-106702119D01*
X56323933Y-106645707D01*
X56323935Y-106645706D01*
X56329243Y-106644284D01*
X56334225Y-106641961D01*
X56531762Y-106549849D01*
X56531767Y-106549846D01*
X56536749Y-106547523D01*
X56641611Y-106474098D01*
X56719789Y-106419357D01*
X56719792Y-106419355D01*
X56724300Y-106416198D01*
X56886198Y-106254300D01*
X56907422Y-106223990D01*
X56979522Y-106121020D01*
X57017523Y-106066749D01*
X57019846Y-106061767D01*
X57019849Y-106061762D01*
X57111961Y-105864225D01*
X57111961Y-105864224D01*
X57114284Y-105859243D01*
X57125444Y-105817596D01*
X57172119Y-105643402D01*
X57172119Y-105643400D01*
X57173543Y-105638087D01*
X57193498Y-105410000D01*
X57173543Y-105181913D01*
X57164442Y-105147947D01*
X57115707Y-104966067D01*
X57115706Y-104966065D01*
X57114284Y-104960757D01*
X57111961Y-104955775D01*
X57019849Y-104758238D01*
X57019846Y-104758233D01*
X57017523Y-104753251D01*
X56901761Y-104587926D01*
X56889357Y-104570211D01*
X56889355Y-104570208D01*
X56886198Y-104565700D01*
X56724300Y-104403802D01*
X56719792Y-104400645D01*
X56719789Y-104400643D01*
X56609324Y-104323295D01*
X56536749Y-104272477D01*
X56531767Y-104270154D01*
X56531762Y-104270151D01*
X56334225Y-104178039D01*
X56334224Y-104178039D01*
X56329243Y-104175716D01*
X56323935Y-104174294D01*
X56323933Y-104174293D01*
X56113402Y-104117881D01*
X56113400Y-104117881D01*
X56108087Y-104116457D01*
X55880000Y-104096502D01*
X55651913Y-104116457D01*
X55646600Y-104117881D01*
X55646598Y-104117881D01*
X55436067Y-104174293D01*
X55436065Y-104174294D01*
X55430757Y-104175716D01*
X55425776Y-104178039D01*
X55425775Y-104178039D01*
X55228238Y-104270151D01*
X55228233Y-104270154D01*
X55223251Y-104272477D01*
X55150676Y-104323295D01*
X55040211Y-104400643D01*
X55040208Y-104400645D01*
X55035700Y-104403802D01*
X54873802Y-104565700D01*
X54870645Y-104570208D01*
X54870643Y-104570211D01*
X54858239Y-104587926D01*
X54742477Y-104753251D01*
X54740154Y-104758233D01*
X54740151Y-104758238D01*
X54648039Y-104955775D01*
X54645716Y-104960757D01*
X54644294Y-104966065D01*
X54644293Y-104966067D01*
X54595558Y-105147947D01*
X54586457Y-105181913D01*
X54566502Y-105410000D01*
X53383498Y-105410000D01*
X53363543Y-105181913D01*
X53354442Y-105147947D01*
X53305707Y-104966067D01*
X53305706Y-104966065D01*
X53304284Y-104960757D01*
X53301961Y-104955775D01*
X53209849Y-104758238D01*
X53209846Y-104758233D01*
X53207523Y-104753251D01*
X53091761Y-104587926D01*
X53079357Y-104570211D01*
X53079355Y-104570208D01*
X53076198Y-104565700D01*
X52914300Y-104403802D01*
X52909792Y-104400645D01*
X52909789Y-104400643D01*
X52799324Y-104323295D01*
X52726749Y-104272477D01*
X52721767Y-104270154D01*
X52721762Y-104270151D01*
X52524225Y-104178039D01*
X52524224Y-104178039D01*
X52519243Y-104175716D01*
X52513935Y-104174294D01*
X52513933Y-104174293D01*
X52303402Y-104117881D01*
X52303400Y-104117881D01*
X52298087Y-104116457D01*
X52070000Y-104096502D01*
X51841913Y-104116457D01*
X51836600Y-104117881D01*
X51836598Y-104117881D01*
X51626067Y-104174293D01*
X51626065Y-104174294D01*
X51620757Y-104175716D01*
X51615776Y-104178039D01*
X51615775Y-104178039D01*
X51418238Y-104270151D01*
X51418233Y-104270154D01*
X51413251Y-104272477D01*
X51340676Y-104323295D01*
X51230211Y-104400643D01*
X51230208Y-104400645D01*
X51225700Y-104403802D01*
X51063802Y-104565700D01*
X51060645Y-104570208D01*
X51060643Y-104570211D01*
X51048239Y-104587926D01*
X50932477Y-104753251D01*
X50930154Y-104758233D01*
X50930151Y-104758238D01*
X50838039Y-104955775D01*
X50835716Y-104960757D01*
X50834294Y-104966065D01*
X50834293Y-104966067D01*
X50785558Y-105147947D01*
X50776457Y-105181913D01*
X50756502Y-105410000D01*
X48348500Y-105410000D01*
X48348500Y-104521866D01*
X48341745Y-104459684D01*
X48290615Y-104323295D01*
X48203261Y-104206739D01*
X48086705Y-104119385D01*
X47950316Y-104068255D01*
X47888134Y-104061500D01*
X46091866Y-104061500D01*
X46029684Y-104068255D01*
X45893295Y-104119385D01*
X45776739Y-104206739D01*
X45689385Y-104323295D01*
X45638255Y-104459684D01*
X45631500Y-104521866D01*
X45631500Y-105401405D01*
X45611498Y-105469526D01*
X45557842Y-105516019D01*
X45487568Y-105526123D01*
X45422988Y-105496629D01*
X45416405Y-105490500D01*
X45374405Y-105448500D01*
X45340379Y-105386188D01*
X45337500Y-105359405D01*
X45337500Y-98999295D01*
X45357502Y-98931174D01*
X45411158Y-98884681D01*
X45481432Y-98874577D01*
X45546012Y-98904071D01*
X45552595Y-98910200D01*
X49904642Y-103262247D01*
X49912186Y-103270537D01*
X49916299Y-103277018D01*
X49922076Y-103282443D01*
X49965966Y-103323658D01*
X49968808Y-103326413D01*
X49988530Y-103346135D01*
X49991654Y-103348558D01*
X49991658Y-103348562D01*
X49991723Y-103348612D01*
X50000744Y-103356317D01*
X50032978Y-103386586D01*
X50039926Y-103390405D01*
X50039928Y-103390407D01*
X50050731Y-103396346D01*
X50067258Y-103407202D01*
X50076997Y-103414757D01*
X50076999Y-103414758D01*
X50083259Y-103419614D01*
X50123839Y-103437174D01*
X50134487Y-103442391D01*
X50173239Y-103463695D01*
X50180915Y-103465666D01*
X50180918Y-103465667D01*
X50192861Y-103468733D01*
X50211566Y-103475137D01*
X50230154Y-103483181D01*
X50237977Y-103484420D01*
X50237987Y-103484423D01*
X50273823Y-103490099D01*
X50285443Y-103492505D01*
X50320588Y-103501528D01*
X50328269Y-103503500D01*
X50348523Y-103503500D01*
X50368233Y-103505051D01*
X50388242Y-103508220D01*
X50396134Y-103507474D01*
X50432260Y-103504059D01*
X50444118Y-103503500D01*
X59365406Y-103503500D01*
X59433527Y-103523502D01*
X59454501Y-103540405D01*
X60874778Y-104960682D01*
X60908804Y-105022994D01*
X60907100Y-105083448D01*
X60885989Y-105159570D01*
X60885441Y-105164700D01*
X60885440Y-105164704D01*
X60875654Y-105256281D01*
X60862251Y-105381695D01*
X60862548Y-105386848D01*
X60862548Y-105386851D01*
X60874812Y-105599547D01*
X60875110Y-105604715D01*
X60876247Y-105609761D01*
X60876248Y-105609767D01*
X60889597Y-105669000D01*
X60924222Y-105822639D01*
X61008266Y-106029616D01*
X61124987Y-106220088D01*
X61271250Y-106388938D01*
X61443126Y-106531632D01*
X61474301Y-106549849D01*
X61516445Y-106574476D01*
X61565169Y-106626114D01*
X61578240Y-106695897D01*
X61551509Y-106761669D01*
X61511055Y-106795027D01*
X61498607Y-106801507D01*
X61494474Y-106804610D01*
X61494471Y-106804612D01*
X61324100Y-106932530D01*
X61319965Y-106935635D01*
X61165629Y-107097138D01*
X61039743Y-107281680D01*
X61025905Y-107311492D01*
X60949456Y-107476188D01*
X60945688Y-107484305D01*
X60885989Y-107699570D01*
X60862251Y-107921695D01*
X60862548Y-107926848D01*
X60862548Y-107926851D01*
X60868490Y-108029908D01*
X60875110Y-108144715D01*
X60876247Y-108149761D01*
X60876248Y-108149767D01*
X60896096Y-108237837D01*
X60924222Y-108362639D01*
X61008266Y-108569616D01*
X61124987Y-108760088D01*
X61271250Y-108928938D01*
X61443126Y-109071632D01*
X61513595Y-109112811D01*
X61516445Y-109114476D01*
X61565169Y-109166114D01*
X61578240Y-109235897D01*
X61551509Y-109301669D01*
X61511055Y-109335027D01*
X61498607Y-109341507D01*
X61494474Y-109344610D01*
X61494471Y-109344612D01*
X61324100Y-109472530D01*
X61319965Y-109475635D01*
X61165629Y-109637138D01*
X61039743Y-109821680D01*
X60945688Y-110024305D01*
X60885989Y-110239570D01*
X60862251Y-110461695D01*
X60862548Y-110466848D01*
X60862548Y-110466851D01*
X60868011Y-110561590D01*
X60875110Y-110684715D01*
X60876247Y-110689761D01*
X60876248Y-110689767D01*
X60877375Y-110694767D01*
X60924222Y-110902639D01*
X61008266Y-111109616D01*
X61124987Y-111300088D01*
X61271250Y-111468938D01*
X61443126Y-111611632D01*
X61451683Y-111616632D01*
X61516445Y-111654476D01*
X61565169Y-111706114D01*
X61578240Y-111775897D01*
X61551509Y-111841669D01*
X61511055Y-111875027D01*
X61498607Y-111881507D01*
X61494474Y-111884610D01*
X61494471Y-111884612D01*
X61324100Y-112012530D01*
X61319965Y-112015635D01*
X61165629Y-112177138D01*
X61162715Y-112181410D01*
X61162714Y-112181411D01*
X61144838Y-112207617D01*
X61039743Y-112361680D01*
X60945688Y-112564305D01*
X60885989Y-112779570D01*
X60862251Y-113001695D01*
X60862548Y-113006848D01*
X60862548Y-113006851D01*
X60868011Y-113101590D01*
X60875110Y-113224715D01*
X60876247Y-113229761D01*
X60876248Y-113229767D01*
X60891733Y-113298475D01*
X60924222Y-113442639D01*
X61008266Y-113649616D01*
X61124987Y-113840088D01*
X61271250Y-114008938D01*
X61443126Y-114151632D01*
X61636000Y-114264338D01*
X61844692Y-114344030D01*
X61849760Y-114345061D01*
X61849763Y-114345062D01*
X61944862Y-114364410D01*
X62063597Y-114388567D01*
X62068772Y-114388757D01*
X62068774Y-114388757D01*
X62281673Y-114396564D01*
X62281677Y-114396564D01*
X62286837Y-114396753D01*
X62291957Y-114396097D01*
X62291959Y-114396097D01*
X62503288Y-114369025D01*
X62503289Y-114369025D01*
X62508416Y-114368368D01*
X62513366Y-114366883D01*
X62717429Y-114305661D01*
X62717434Y-114305659D01*
X62722384Y-114304174D01*
X62922994Y-114205896D01*
X63104860Y-114076173D01*
X63263096Y-113918489D01*
X63322594Y-113835689D01*
X63393453Y-113737077D01*
X63394640Y-113737930D01*
X63441960Y-113694362D01*
X63511897Y-113682145D01*
X63577338Y-113709678D01*
X63605166Y-113741511D01*
X63662694Y-113835388D01*
X63668777Y-113843699D01*
X63808213Y-114004667D01*
X63815580Y-114011883D01*
X63979434Y-114147916D01*
X63987881Y-114153831D01*
X64171756Y-114261279D01*
X64181042Y-114265729D01*
X64380001Y-114341703D01*
X64389899Y-114344579D01*
X64493250Y-114365606D01*
X64507299Y-114364410D01*
X64511000Y-114354065D01*
X64511000Y-114353517D01*
X65019000Y-114353517D01*
X65023064Y-114367359D01*
X65036478Y-114369393D01*
X65043184Y-114368534D01*
X65053262Y-114366392D01*
X65257255Y-114305191D01*
X65266842Y-114301433D01*
X65458095Y-114207739D01*
X65466945Y-114202464D01*
X65640328Y-114078792D01*
X65648200Y-114072139D01*
X65799052Y-113921812D01*
X65805730Y-113913965D01*
X65930003Y-113741020D01*
X65935313Y-113732183D01*
X66029670Y-113541267D01*
X66033469Y-113531672D01*
X66095377Y-113327910D01*
X66097555Y-113317837D01*
X66098986Y-113306962D01*
X66096775Y-113292778D01*
X66083617Y-113289000D01*
X65037115Y-113289000D01*
X65021876Y-113293475D01*
X65020671Y-113294865D01*
X65019000Y-113302548D01*
X65019000Y-114353517D01*
X64511000Y-114353517D01*
X64511000Y-112762885D01*
X65019000Y-112762885D01*
X65023475Y-112778124D01*
X65024865Y-112779329D01*
X65032548Y-112781000D01*
X66083344Y-112781000D01*
X66096875Y-112777027D01*
X66098180Y-112767947D01*
X66056214Y-112600875D01*
X66052894Y-112591124D01*
X65967972Y-112395814D01*
X65963105Y-112386739D01*
X65847426Y-112207926D01*
X65841136Y-112199757D01*
X65697806Y-112042240D01*
X65690273Y-112035215D01*
X65523139Y-111903222D01*
X65514552Y-111897517D01*
X65477116Y-111876851D01*
X65427146Y-111826419D01*
X65412374Y-111756976D01*
X65437490Y-111690571D01*
X65464842Y-111663964D01*
X65640327Y-111538792D01*
X65648200Y-111532139D01*
X65799052Y-111381812D01*
X65805730Y-111373965D01*
X65930003Y-111201020D01*
X65935313Y-111192183D01*
X66029670Y-111001267D01*
X66033469Y-110991672D01*
X66095377Y-110787910D01*
X66097555Y-110777837D01*
X66098986Y-110766962D01*
X66096775Y-110752778D01*
X66083617Y-110749000D01*
X65037115Y-110749000D01*
X65021876Y-110753475D01*
X65020671Y-110754865D01*
X65019000Y-110762548D01*
X65019000Y-112762885D01*
X64511000Y-112762885D01*
X64511000Y-110222885D01*
X65019000Y-110222885D01*
X65023475Y-110238124D01*
X65024865Y-110239329D01*
X65032548Y-110241000D01*
X66083344Y-110241000D01*
X66096875Y-110237027D01*
X66098180Y-110227947D01*
X66056214Y-110060875D01*
X66052894Y-110051124D01*
X65967972Y-109855814D01*
X65963105Y-109846739D01*
X65847426Y-109667926D01*
X65841136Y-109659757D01*
X65697806Y-109502240D01*
X65690273Y-109495215D01*
X65523139Y-109363222D01*
X65514552Y-109357517D01*
X65477116Y-109336851D01*
X65427146Y-109286419D01*
X65412374Y-109216976D01*
X65437490Y-109150571D01*
X65464842Y-109123964D01*
X65640327Y-108998792D01*
X65648200Y-108992139D01*
X65799052Y-108841812D01*
X65805730Y-108833965D01*
X65930003Y-108661020D01*
X65935313Y-108652183D01*
X66029670Y-108461267D01*
X66033469Y-108451672D01*
X66095377Y-108247910D01*
X66097555Y-108237837D01*
X66098986Y-108226962D01*
X66096775Y-108212778D01*
X66083617Y-108209000D01*
X65037115Y-108209000D01*
X65021876Y-108213475D01*
X65020671Y-108214865D01*
X65019000Y-108222548D01*
X65019000Y-110222885D01*
X64511000Y-110222885D01*
X64511000Y-107682885D01*
X65019000Y-107682885D01*
X65023475Y-107698124D01*
X65024865Y-107699329D01*
X65032548Y-107701000D01*
X66083344Y-107701000D01*
X66096875Y-107697027D01*
X66098180Y-107687947D01*
X66056214Y-107520875D01*
X66052894Y-107511124D01*
X65967972Y-107315814D01*
X65963105Y-107306739D01*
X65847426Y-107127926D01*
X65841136Y-107119757D01*
X65697806Y-106962240D01*
X65690273Y-106955215D01*
X65523139Y-106823222D01*
X65514552Y-106817517D01*
X65477116Y-106796851D01*
X65427146Y-106746419D01*
X65412374Y-106676976D01*
X65437490Y-106610571D01*
X65464842Y-106583964D01*
X65640327Y-106458792D01*
X65648200Y-106452139D01*
X65799052Y-106301812D01*
X65805730Y-106293965D01*
X65930003Y-106121020D01*
X65935313Y-106112183D01*
X66029670Y-105921267D01*
X66033469Y-105911672D01*
X66095377Y-105707910D01*
X66097555Y-105697837D01*
X66098986Y-105686962D01*
X66096775Y-105672778D01*
X66083617Y-105669000D01*
X65037115Y-105669000D01*
X65021876Y-105673475D01*
X65020671Y-105674865D01*
X65019000Y-105682548D01*
X65019000Y-107682885D01*
X64511000Y-107682885D01*
X64511000Y-105142885D01*
X65019000Y-105142885D01*
X65023475Y-105158124D01*
X65024865Y-105159329D01*
X65032548Y-105161000D01*
X66083344Y-105161000D01*
X66096875Y-105157027D01*
X66098180Y-105147947D01*
X66056214Y-104980875D01*
X66052894Y-104971124D01*
X65967972Y-104775814D01*
X65963105Y-104766739D01*
X65847426Y-104587926D01*
X65841136Y-104579757D01*
X65697806Y-104422240D01*
X65690273Y-104415215D01*
X65523139Y-104283222D01*
X65514552Y-104277517D01*
X65477116Y-104256851D01*
X65427146Y-104206419D01*
X65412374Y-104136976D01*
X65437490Y-104070571D01*
X65464842Y-104043964D01*
X65640327Y-103918792D01*
X65648200Y-103912139D01*
X65799052Y-103761812D01*
X65805730Y-103753965D01*
X65930003Y-103581020D01*
X65935313Y-103572183D01*
X66029670Y-103381267D01*
X66033469Y-103371672D01*
X66095377Y-103167910D01*
X66097555Y-103157837D01*
X66098986Y-103146962D01*
X66096775Y-103132778D01*
X66083617Y-103129000D01*
X65037115Y-103129000D01*
X65021876Y-103133475D01*
X65020671Y-103134865D01*
X65019000Y-103142548D01*
X65019000Y-105142885D01*
X64511000Y-105142885D01*
X64511000Y-102602885D01*
X65019000Y-102602885D01*
X65023475Y-102618124D01*
X65024865Y-102619329D01*
X65032548Y-102621000D01*
X66083344Y-102621000D01*
X66096875Y-102617027D01*
X66098180Y-102607947D01*
X66056214Y-102440875D01*
X66052894Y-102431124D01*
X65967972Y-102235814D01*
X65963105Y-102226739D01*
X65847426Y-102047926D01*
X65841136Y-102039757D01*
X65697806Y-101882240D01*
X65690273Y-101875215D01*
X65523139Y-101743222D01*
X65514552Y-101737517D01*
X65477116Y-101716851D01*
X65427146Y-101666419D01*
X65412374Y-101596976D01*
X65437490Y-101530571D01*
X65464842Y-101503964D01*
X65640327Y-101378792D01*
X65648200Y-101372139D01*
X65799052Y-101221812D01*
X65805730Y-101213965D01*
X65930003Y-101041020D01*
X65935313Y-101032183D01*
X66029670Y-100841267D01*
X66033469Y-100831672D01*
X66095377Y-100627910D01*
X66097555Y-100617837D01*
X66098986Y-100606962D01*
X66096775Y-100592778D01*
X66083617Y-100589000D01*
X65037115Y-100589000D01*
X65021876Y-100593475D01*
X65020671Y-100594865D01*
X65019000Y-100602548D01*
X65019000Y-102602885D01*
X64511000Y-102602885D01*
X64511000Y-100062885D01*
X65019000Y-100062885D01*
X65023475Y-100078124D01*
X65024865Y-100079329D01*
X65032548Y-100081000D01*
X66083344Y-100081000D01*
X66096875Y-100077027D01*
X66098180Y-100067947D01*
X66056214Y-99900875D01*
X66052894Y-99891124D01*
X65967972Y-99695814D01*
X65963105Y-99686739D01*
X65847426Y-99507926D01*
X65841136Y-99499757D01*
X65697806Y-99342240D01*
X65690273Y-99335215D01*
X65523139Y-99203222D01*
X65514552Y-99197517D01*
X65477116Y-99176851D01*
X65427146Y-99126419D01*
X65412374Y-99056976D01*
X65437490Y-98990571D01*
X65464842Y-98963964D01*
X65640327Y-98838792D01*
X65648200Y-98832139D01*
X65799052Y-98681812D01*
X65805730Y-98673965D01*
X65930003Y-98501020D01*
X65935313Y-98492183D01*
X66029670Y-98301267D01*
X66033469Y-98291672D01*
X66095377Y-98087910D01*
X66097555Y-98077837D01*
X66098986Y-98066962D01*
X66096775Y-98052778D01*
X66083617Y-98049000D01*
X65037115Y-98049000D01*
X65021876Y-98053475D01*
X65020671Y-98054865D01*
X65019000Y-98062548D01*
X65019000Y-100062885D01*
X64511000Y-100062885D01*
X64511000Y-97522885D01*
X65019000Y-97522885D01*
X65023475Y-97538124D01*
X65024865Y-97539329D01*
X65032548Y-97541000D01*
X66083344Y-97541000D01*
X66096875Y-97537027D01*
X66098180Y-97527947D01*
X66056214Y-97360875D01*
X66052894Y-97351124D01*
X65967972Y-97155814D01*
X65963105Y-97146739D01*
X65847426Y-96967926D01*
X65841136Y-96959757D01*
X65697806Y-96802240D01*
X65690273Y-96795215D01*
X65523139Y-96663222D01*
X65514552Y-96657517D01*
X65477116Y-96636851D01*
X65427146Y-96586419D01*
X65412374Y-96516976D01*
X65437490Y-96450571D01*
X65464842Y-96423964D01*
X65640327Y-96298792D01*
X65648200Y-96292139D01*
X65799052Y-96141812D01*
X65805730Y-96133965D01*
X65930003Y-95961020D01*
X65935313Y-95952183D01*
X66029670Y-95761267D01*
X66033469Y-95751672D01*
X66095377Y-95547910D01*
X66097555Y-95537837D01*
X66098986Y-95526962D01*
X66096775Y-95512778D01*
X66083617Y-95509000D01*
X65037115Y-95509000D01*
X65021876Y-95513475D01*
X65020671Y-95514865D01*
X65019000Y-95522548D01*
X65019000Y-97522885D01*
X64511000Y-97522885D01*
X64511000Y-94982885D01*
X65019000Y-94982885D01*
X65023475Y-94998124D01*
X65024865Y-94999329D01*
X65032548Y-95001000D01*
X66083344Y-95001000D01*
X66096875Y-94997027D01*
X66098180Y-94987947D01*
X66056214Y-94820875D01*
X66052894Y-94811124D01*
X65967972Y-94615814D01*
X65963105Y-94606739D01*
X65847426Y-94427926D01*
X65841136Y-94419757D01*
X65697806Y-94262240D01*
X65690273Y-94255215D01*
X65523139Y-94123222D01*
X65514552Y-94117517D01*
X65477116Y-94096851D01*
X65427146Y-94046419D01*
X65412374Y-93976976D01*
X65437490Y-93910571D01*
X65464842Y-93883964D01*
X65640327Y-93758792D01*
X65648200Y-93752139D01*
X65799052Y-93601812D01*
X65805730Y-93593965D01*
X65930003Y-93421020D01*
X65935313Y-93412183D01*
X66029670Y-93221267D01*
X66033469Y-93211672D01*
X66095377Y-93007910D01*
X66097555Y-92997837D01*
X66098986Y-92986962D01*
X66096775Y-92972778D01*
X66083617Y-92969000D01*
X65037115Y-92969000D01*
X65021876Y-92973475D01*
X65020671Y-92974865D01*
X65019000Y-92982548D01*
X65019000Y-94982885D01*
X64511000Y-94982885D01*
X64511000Y-92587000D01*
X64531002Y-92518879D01*
X64584658Y-92472386D01*
X64637000Y-92461000D01*
X66083344Y-92461000D01*
X66096875Y-92457027D01*
X66098180Y-92447947D01*
X66056214Y-92280875D01*
X66052894Y-92271124D01*
X65967972Y-92075814D01*
X65963105Y-92066739D01*
X65847426Y-91887926D01*
X65841136Y-91879757D01*
X65697806Y-91722240D01*
X65690273Y-91715215D01*
X65523139Y-91583222D01*
X65514556Y-91577520D01*
X65477602Y-91557120D01*
X65427631Y-91506687D01*
X65412859Y-91437245D01*
X65437975Y-91370839D01*
X65465327Y-91344232D01*
X65488797Y-91327491D01*
X65644860Y-91216173D01*
X65803096Y-91058489D01*
X65933453Y-90877077D01*
X65986764Y-90769211D01*
X66030136Y-90681453D01*
X66030137Y-90681451D01*
X66032430Y-90676811D01*
X66097370Y-90463069D01*
X66126529Y-90241590D01*
X66128156Y-90175000D01*
X66109852Y-89952361D01*
X66055431Y-89735702D01*
X65966354Y-89530840D01*
X65845014Y-89343277D01*
X65694670Y-89178051D01*
X65690619Y-89174852D01*
X65690615Y-89174848D01*
X65523414Y-89042800D01*
X65523410Y-89042798D01*
X65519359Y-89039598D01*
X65323789Y-88931638D01*
X65318920Y-88929914D01*
X65318916Y-88929912D01*
X65118087Y-88858795D01*
X65118083Y-88858794D01*
X65113212Y-88857069D01*
X65108119Y-88856162D01*
X65108116Y-88856161D01*
X64898373Y-88818800D01*
X64898367Y-88818799D01*
X64893284Y-88817894D01*
X64819452Y-88816992D01*
X64675081Y-88815228D01*
X64675079Y-88815228D01*
X64669911Y-88815165D01*
X64449091Y-88848955D01*
X64386586Y-88869385D01*
X64297923Y-88898364D01*
X64226959Y-88900515D01*
X64166097Y-88863959D01*
X64134661Y-88800301D01*
X64132778Y-88778599D01*
X64132778Y-88356344D01*
X64133305Y-88345161D01*
X64134980Y-88337668D01*
X64132840Y-88269577D01*
X64132778Y-88265620D01*
X64132778Y-88237721D01*
X64132274Y-88233730D01*
X64131341Y-88221888D01*
X64130201Y-88185613D01*
X64129952Y-88177688D01*
X64127740Y-88170074D01*
X64127739Y-88170069D01*
X64124301Y-88158236D01*
X64120290Y-88138872D01*
X64118745Y-88126641D01*
X64117752Y-88118780D01*
X64114835Y-88111413D01*
X64114834Y-88111408D01*
X64101476Y-88077669D01*
X64097632Y-88066442D01*
X64087508Y-88031599D01*
X64085296Y-88023984D01*
X64074985Y-88006549D01*
X64066290Y-87988801D01*
X64058830Y-87969960D01*
X64032842Y-87934190D01*
X64026326Y-87924270D01*
X64007858Y-87893042D01*
X64007856Y-87893039D01*
X64003820Y-87886215D01*
X63989499Y-87871894D01*
X63976658Y-87856860D01*
X63969409Y-87846883D01*
X63964750Y-87840470D01*
X63930673Y-87812279D01*
X63921894Y-87804289D01*
X61174300Y-85056695D01*
X63407251Y-85056695D01*
X63407548Y-85061848D01*
X63407548Y-85061851D01*
X63413011Y-85156590D01*
X63420110Y-85279715D01*
X63421247Y-85284761D01*
X63421248Y-85284767D01*
X63438581Y-85361675D01*
X63469222Y-85497639D01*
X63553266Y-85704616D01*
X63669987Y-85895088D01*
X63816250Y-86063938D01*
X63988126Y-86206632D01*
X64181000Y-86319338D01*
X64389692Y-86399030D01*
X64394760Y-86400061D01*
X64394763Y-86400062D01*
X64502012Y-86421882D01*
X64608597Y-86443567D01*
X64613772Y-86443757D01*
X64613774Y-86443757D01*
X64826673Y-86451564D01*
X64826677Y-86451564D01*
X64831837Y-86451753D01*
X64836957Y-86451097D01*
X64836959Y-86451097D01*
X65048288Y-86424025D01*
X65048289Y-86424025D01*
X65053416Y-86423368D01*
X65112313Y-86405698D01*
X65262429Y-86360661D01*
X65262434Y-86360659D01*
X65267384Y-86359174D01*
X65467994Y-86260896D01*
X65649860Y-86131173D01*
X65691842Y-86089338D01*
X65750488Y-86030896D01*
X65808096Y-85973489D01*
X65862679Y-85897529D01*
X65935435Y-85796277D01*
X65938453Y-85792077D01*
X65943341Y-85782188D01*
X66035136Y-85596453D01*
X66035137Y-85596451D01*
X66037430Y-85591811D01*
X66102370Y-85378069D01*
X66131529Y-85156590D01*
X66133156Y-85090000D01*
X66114852Y-84867361D01*
X66060431Y-84650702D01*
X65971354Y-84445840D01*
X65850014Y-84258277D01*
X65699670Y-84093051D01*
X65695619Y-84089852D01*
X65695615Y-84089848D01*
X65528414Y-83957800D01*
X65528410Y-83957798D01*
X65524359Y-83954598D01*
X65483053Y-83931796D01*
X65433084Y-83881364D01*
X65418312Y-83811921D01*
X65443428Y-83745516D01*
X65470780Y-83718909D01*
X65539484Y-83669903D01*
X65649860Y-83591173D01*
X65808096Y-83433489D01*
X65867594Y-83350689D01*
X65935435Y-83256277D01*
X65938453Y-83252077D01*
X66037430Y-83051811D01*
X66102370Y-82838069D01*
X66131529Y-82616590D01*
X66133156Y-82550000D01*
X66114852Y-82327361D01*
X66060431Y-82110702D01*
X65971354Y-81905840D01*
X65893955Y-81786199D01*
X65852822Y-81722617D01*
X65852820Y-81722614D01*
X65850014Y-81718277D01*
X65846540Y-81714459D01*
X65846533Y-81714450D01*
X65702435Y-81556088D01*
X65671383Y-81492242D01*
X65679779Y-81421744D01*
X65724956Y-81366976D01*
X65751400Y-81353307D01*
X65858052Y-81313325D01*
X65873649Y-81304786D01*
X65975724Y-81228285D01*
X65988285Y-81215724D01*
X66064786Y-81113649D01*
X66073324Y-81098054D01*
X66118478Y-80977606D01*
X66122105Y-80962351D01*
X66127631Y-80911486D01*
X66128000Y-80904672D01*
X66128000Y-80282115D01*
X66123525Y-80266876D01*
X66122135Y-80265671D01*
X66114452Y-80264000D01*
X63430116Y-80264000D01*
X63414877Y-80268475D01*
X63413672Y-80269865D01*
X63412001Y-80277548D01*
X63412001Y-80904669D01*
X63412371Y-80911490D01*
X63417895Y-80962352D01*
X63421521Y-80977604D01*
X63466676Y-81098054D01*
X63475214Y-81113649D01*
X63551715Y-81215724D01*
X63564276Y-81228285D01*
X63666351Y-81304786D01*
X63681946Y-81313324D01*
X63790827Y-81354142D01*
X63847591Y-81396784D01*
X63872291Y-81463345D01*
X63857083Y-81532694D01*
X63837691Y-81559175D01*
X63740256Y-81661135D01*
X63710629Y-81692138D01*
X63584743Y-81876680D01*
X63569003Y-81910590D01*
X63493420Y-82073420D01*
X63490688Y-82079305D01*
X63430989Y-82294570D01*
X63407251Y-82516695D01*
X63407548Y-82521848D01*
X63407548Y-82521851D01*
X63413011Y-82616590D01*
X63420110Y-82739715D01*
X63421247Y-82744761D01*
X63421248Y-82744767D01*
X63441119Y-82832939D01*
X63469222Y-82957639D01*
X63553266Y-83164616D01*
X63555965Y-83169020D01*
X63640271Y-83306595D01*
X63669987Y-83355088D01*
X63816250Y-83523938D01*
X63988126Y-83666632D01*
X63993724Y-83669903D01*
X64061445Y-83709476D01*
X64110169Y-83761114D01*
X64123240Y-83830897D01*
X64096509Y-83896669D01*
X64056055Y-83930027D01*
X64043607Y-83936507D01*
X64039474Y-83939610D01*
X64039471Y-83939612D01*
X63869100Y-84067530D01*
X63864965Y-84070635D01*
X63710629Y-84232138D01*
X63584743Y-84416680D01*
X63569003Y-84450590D01*
X63497528Y-84604570D01*
X63490688Y-84619305D01*
X63430989Y-84834570D01*
X63407251Y-85056695D01*
X61174300Y-85056695D01*
X53554301Y-77436695D01*
X63407251Y-77436695D01*
X63407548Y-77441848D01*
X63407548Y-77441851D01*
X63413011Y-77536590D01*
X63420110Y-77659715D01*
X63421247Y-77664761D01*
X63421248Y-77664767D01*
X63441119Y-77752939D01*
X63469222Y-77877639D01*
X63553266Y-78084616D01*
X63669987Y-78275088D01*
X63816250Y-78443938D01*
X63820225Y-78447238D01*
X63820231Y-78447244D01*
X63825425Y-78451556D01*
X63865059Y-78510460D01*
X63866555Y-78581441D01*
X63829439Y-78641962D01*
X63789168Y-78666480D01*
X63681946Y-78706676D01*
X63666351Y-78715214D01*
X63564276Y-78791715D01*
X63551715Y-78804276D01*
X63475214Y-78906351D01*
X63466676Y-78921946D01*
X63421522Y-79042394D01*
X63417895Y-79057649D01*
X63412369Y-79108514D01*
X63412000Y-79115328D01*
X63412000Y-79737885D01*
X63416475Y-79753124D01*
X63417865Y-79754329D01*
X63425548Y-79756000D01*
X66109884Y-79756000D01*
X66125123Y-79751525D01*
X66126328Y-79750135D01*
X66127999Y-79742452D01*
X66127999Y-79115331D01*
X66127629Y-79108510D01*
X66122105Y-79057648D01*
X66118479Y-79042396D01*
X66073324Y-78921946D01*
X66064786Y-78906351D01*
X65988285Y-78804276D01*
X65975724Y-78791715D01*
X65873649Y-78715214D01*
X65858054Y-78706676D01*
X65747813Y-78665348D01*
X65691049Y-78622706D01*
X65666349Y-78556145D01*
X65681557Y-78486796D01*
X65703104Y-78458115D01*
X65804430Y-78357144D01*
X65804440Y-78357132D01*
X65808096Y-78353489D01*
X65867594Y-78270689D01*
X65935435Y-78176277D01*
X65938453Y-78172077D01*
X65942145Y-78164608D01*
X66035136Y-77976453D01*
X66035137Y-77976451D01*
X66037430Y-77971811D01*
X66102370Y-77758069D01*
X66131529Y-77536590D01*
X66133156Y-77470000D01*
X66114852Y-77247361D01*
X66060431Y-77030702D01*
X65971354Y-76825840D01*
X65850014Y-76638277D01*
X65699670Y-76473051D01*
X65695619Y-76469852D01*
X65695615Y-76469848D01*
X65528414Y-76337800D01*
X65528410Y-76337798D01*
X65524359Y-76334598D01*
X65483053Y-76311796D01*
X65433084Y-76261364D01*
X65418312Y-76191921D01*
X65443428Y-76125516D01*
X65470780Y-76098909D01*
X65514603Y-76067650D01*
X65649860Y-75971173D01*
X65721954Y-75899331D01*
X65804435Y-75817137D01*
X65808096Y-75813489D01*
X65867594Y-75730689D01*
X65935435Y-75636277D01*
X65938453Y-75632077D01*
X66037430Y-75431811D01*
X66102370Y-75218069D01*
X66131529Y-74996590D01*
X66133156Y-74930000D01*
X66114852Y-74707361D01*
X66060431Y-74490702D01*
X65971354Y-74285840D01*
X65850014Y-74098277D01*
X65699670Y-73933051D01*
X65695619Y-73929852D01*
X65695615Y-73929848D01*
X65528414Y-73797800D01*
X65528410Y-73797798D01*
X65524359Y-73794598D01*
X65483053Y-73771796D01*
X65433084Y-73721364D01*
X65418312Y-73651921D01*
X65443428Y-73585516D01*
X65470780Y-73558909D01*
X65514603Y-73527650D01*
X65649860Y-73431173D01*
X65808096Y-73273489D01*
X65867594Y-73190689D01*
X65935435Y-73096277D01*
X65938453Y-73092077D01*
X66037430Y-72891811D01*
X66102370Y-72678069D01*
X66131529Y-72456590D01*
X66133156Y-72390000D01*
X66114852Y-72167361D01*
X66060431Y-71950702D01*
X65971354Y-71745840D01*
X65850014Y-71558277D01*
X65699670Y-71393051D01*
X65695619Y-71389852D01*
X65695615Y-71389848D01*
X65528414Y-71257800D01*
X65528410Y-71257798D01*
X65524359Y-71254598D01*
X65483053Y-71231796D01*
X65433084Y-71181364D01*
X65418312Y-71111921D01*
X65443428Y-71045516D01*
X65470780Y-71018909D01*
X65514603Y-70987650D01*
X65649860Y-70891173D01*
X65808096Y-70733489D01*
X65867594Y-70650689D01*
X65935435Y-70556277D01*
X65938453Y-70552077D01*
X66037430Y-70351811D01*
X66102370Y-70138069D01*
X66131529Y-69916590D01*
X66133156Y-69850000D01*
X66114852Y-69627361D01*
X66060431Y-69410702D01*
X65971354Y-69205840D01*
X65850014Y-69018277D01*
X65846540Y-69014459D01*
X65846533Y-69014450D01*
X65702435Y-68856088D01*
X65671383Y-68792242D01*
X65679779Y-68721744D01*
X65724956Y-68666976D01*
X65751400Y-68653307D01*
X65858052Y-68613325D01*
X65873649Y-68604786D01*
X65975724Y-68528285D01*
X65988285Y-68515724D01*
X66064786Y-68413649D01*
X66073324Y-68398054D01*
X66118478Y-68277606D01*
X66122105Y-68262351D01*
X66127631Y-68211486D01*
X66128000Y-68204672D01*
X66128000Y-67582115D01*
X66123525Y-67566876D01*
X66122135Y-67565671D01*
X66114452Y-67564000D01*
X63430116Y-67564000D01*
X63414877Y-67568475D01*
X63413672Y-67569865D01*
X63412001Y-67577548D01*
X63412001Y-68204669D01*
X63412371Y-68211490D01*
X63417895Y-68262352D01*
X63421521Y-68277604D01*
X63466676Y-68398054D01*
X63475214Y-68413649D01*
X63551715Y-68515724D01*
X63564276Y-68528285D01*
X63666351Y-68604786D01*
X63681946Y-68613324D01*
X63790827Y-68654142D01*
X63847591Y-68696784D01*
X63872291Y-68763345D01*
X63857083Y-68832694D01*
X63837691Y-68859175D01*
X63714200Y-68988401D01*
X63710629Y-68992138D01*
X63584743Y-69176680D01*
X63490688Y-69379305D01*
X63430989Y-69594570D01*
X63407251Y-69816695D01*
X63407548Y-69821848D01*
X63407548Y-69821851D01*
X63413011Y-69916590D01*
X63420110Y-70039715D01*
X63421247Y-70044761D01*
X63421248Y-70044767D01*
X63441119Y-70132939D01*
X63469222Y-70257639D01*
X63553266Y-70464616D01*
X63669987Y-70655088D01*
X63816250Y-70823938D01*
X63988126Y-70966632D01*
X64058595Y-71007811D01*
X64061445Y-71009476D01*
X64110169Y-71061114D01*
X64123240Y-71130897D01*
X64096509Y-71196669D01*
X64056055Y-71230027D01*
X64043607Y-71236507D01*
X64039474Y-71239610D01*
X64039471Y-71239612D01*
X63869100Y-71367530D01*
X63864965Y-71370635D01*
X63710629Y-71532138D01*
X63584743Y-71716680D01*
X63490688Y-71919305D01*
X63430989Y-72134570D01*
X63407251Y-72356695D01*
X63407548Y-72361848D01*
X63407548Y-72361851D01*
X63413011Y-72456590D01*
X63420110Y-72579715D01*
X63421247Y-72584761D01*
X63421248Y-72584767D01*
X63441119Y-72672939D01*
X63469222Y-72797639D01*
X63553266Y-73004616D01*
X63669987Y-73195088D01*
X63816250Y-73363938D01*
X63988126Y-73506632D01*
X64058595Y-73547811D01*
X64061445Y-73549476D01*
X64110169Y-73601114D01*
X64123240Y-73670897D01*
X64096509Y-73736669D01*
X64056055Y-73770027D01*
X64043607Y-73776507D01*
X64039474Y-73779610D01*
X64039471Y-73779612D01*
X64015247Y-73797800D01*
X63864965Y-73910635D01*
X63710629Y-74072138D01*
X63584743Y-74256680D01*
X63490688Y-74459305D01*
X63430989Y-74674570D01*
X63407251Y-74896695D01*
X63407548Y-74901848D01*
X63407548Y-74901851D01*
X63413011Y-74996590D01*
X63420110Y-75119715D01*
X63421247Y-75124761D01*
X63421248Y-75124767D01*
X63441119Y-75212939D01*
X63469222Y-75337639D01*
X63553266Y-75544616D01*
X63669987Y-75735088D01*
X63816250Y-75903938D01*
X63988126Y-76046632D01*
X64058595Y-76087811D01*
X64061445Y-76089476D01*
X64110169Y-76141114D01*
X64123240Y-76210897D01*
X64096509Y-76276669D01*
X64056055Y-76310027D01*
X64043607Y-76316507D01*
X64039474Y-76319610D01*
X64039471Y-76319612D01*
X63933960Y-76398832D01*
X63864965Y-76450635D01*
X63710629Y-76612138D01*
X63584743Y-76796680D01*
X63546011Y-76880121D01*
X63509471Y-76958841D01*
X63490688Y-76999305D01*
X63430989Y-77214570D01*
X63407251Y-77436695D01*
X53554301Y-77436695D01*
X53195353Y-77077747D01*
X53187813Y-77069461D01*
X53183701Y-77062982D01*
X53134049Y-77016356D01*
X53131208Y-77013602D01*
X53111471Y-76993865D01*
X53108274Y-76991385D01*
X53099252Y-76983680D01*
X53072801Y-76958841D01*
X53067022Y-76953414D01*
X53060076Y-76949595D01*
X53060073Y-76949593D01*
X53049267Y-76943652D01*
X53032748Y-76932801D01*
X53032284Y-76932441D01*
X53016742Y-76920386D01*
X53009473Y-76917241D01*
X53009469Y-76917238D01*
X52976164Y-76902826D01*
X52965514Y-76897609D01*
X52926761Y-76876305D01*
X52907138Y-76871267D01*
X52888435Y-76864863D01*
X52877121Y-76859967D01*
X52877120Y-76859967D01*
X52869846Y-76856819D01*
X52862023Y-76855580D01*
X52862013Y-76855577D01*
X52826177Y-76849901D01*
X52814557Y-76847495D01*
X52779412Y-76838472D01*
X52779411Y-76838472D01*
X52771731Y-76836500D01*
X52751477Y-76836500D01*
X52731766Y-76834949D01*
X52719587Y-76833020D01*
X52711758Y-76831780D01*
X52703866Y-76832526D01*
X52667740Y-76835941D01*
X52655882Y-76836500D01*
X48266805Y-76836500D01*
X48198684Y-76816498D01*
X48161013Y-76778940D01*
X48072822Y-76642617D01*
X48072820Y-76642614D01*
X48070014Y-76638277D01*
X47919670Y-76473051D01*
X47915619Y-76469852D01*
X47915615Y-76469848D01*
X47748414Y-76337800D01*
X47748410Y-76337798D01*
X47744359Y-76334598D01*
X47703053Y-76311796D01*
X47653084Y-76261364D01*
X47638312Y-76191921D01*
X47663428Y-76125516D01*
X47690780Y-76098909D01*
X47734603Y-76067650D01*
X47869860Y-75971173D01*
X47941954Y-75899331D01*
X48024435Y-75817137D01*
X48028096Y-75813489D01*
X48087594Y-75730689D01*
X48155435Y-75636277D01*
X48158453Y-75632077D01*
X48257430Y-75431811D01*
X48322370Y-75218069D01*
X48351529Y-74996590D01*
X48353156Y-74930000D01*
X48334852Y-74707361D01*
X48280431Y-74490702D01*
X48191354Y-74285840D01*
X48070014Y-74098277D01*
X47919670Y-73933051D01*
X47915619Y-73929852D01*
X47915615Y-73929848D01*
X47748414Y-73797800D01*
X47748410Y-73797798D01*
X47744359Y-73794598D01*
X47703053Y-73771796D01*
X47653084Y-73721364D01*
X47638312Y-73651921D01*
X47663428Y-73585516D01*
X47690780Y-73558909D01*
X47734603Y-73527650D01*
X47869860Y-73431173D01*
X48028096Y-73273489D01*
X48087594Y-73190689D01*
X48155435Y-73096277D01*
X48158453Y-73092077D01*
X48257430Y-72891811D01*
X48322370Y-72678069D01*
X48351529Y-72456590D01*
X48353156Y-72390000D01*
X48334852Y-72167361D01*
X48280431Y-71950702D01*
X48191354Y-71745840D01*
X48070014Y-71558277D01*
X47919670Y-71393051D01*
X47915619Y-71389852D01*
X47915615Y-71389848D01*
X47748414Y-71257800D01*
X47748410Y-71257798D01*
X47744359Y-71254598D01*
X47703053Y-71231796D01*
X47653084Y-71181364D01*
X47638312Y-71111921D01*
X47663428Y-71045516D01*
X47690780Y-71018909D01*
X47734603Y-70987650D01*
X47869860Y-70891173D01*
X48028096Y-70733489D01*
X48087594Y-70650689D01*
X48155435Y-70556277D01*
X48158453Y-70552077D01*
X48257430Y-70351811D01*
X48322370Y-70138069D01*
X48351529Y-69916590D01*
X48353156Y-69850000D01*
X48334852Y-69627361D01*
X48280431Y-69410702D01*
X48191354Y-69205840D01*
X48070014Y-69018277D01*
X48066532Y-69014450D01*
X47922798Y-68856488D01*
X47891746Y-68792642D01*
X47900141Y-68722143D01*
X47945317Y-68667375D01*
X47971761Y-68653706D01*
X48078297Y-68613767D01*
X48086705Y-68610615D01*
X48203261Y-68523261D01*
X48290615Y-68406705D01*
X48341745Y-68270316D01*
X48348500Y-68208134D01*
X48348500Y-66411866D01*
X48341745Y-66349684D01*
X48290615Y-66213295D01*
X48203261Y-66096739D01*
X48086705Y-66009385D01*
X48059905Y-65999338D01*
X47968203Y-65964960D01*
X47911439Y-65922318D01*
X47886739Y-65855756D01*
X47901947Y-65786408D01*
X47923493Y-65757727D01*
X48024435Y-65657137D01*
X48028096Y-65653489D01*
X48087594Y-65570689D01*
X48155435Y-65476277D01*
X48158453Y-65472077D01*
X48257430Y-65271811D01*
X48322370Y-65058069D01*
X48351529Y-64836590D01*
X48353156Y-64770000D01*
X48350418Y-64736695D01*
X63407251Y-64736695D01*
X63407548Y-64741848D01*
X63407548Y-64741851D01*
X63413011Y-64836590D01*
X63420110Y-64959715D01*
X63421247Y-64964761D01*
X63421248Y-64964767D01*
X63441119Y-65052939D01*
X63469222Y-65177639D01*
X63553266Y-65384616D01*
X63669987Y-65575088D01*
X63816250Y-65743938D01*
X63820225Y-65747238D01*
X63820231Y-65747244D01*
X63825425Y-65751556D01*
X63865059Y-65810460D01*
X63866555Y-65881441D01*
X63829439Y-65941962D01*
X63789168Y-65966480D01*
X63681946Y-66006676D01*
X63666351Y-66015214D01*
X63564276Y-66091715D01*
X63551715Y-66104276D01*
X63475214Y-66206351D01*
X63466676Y-66221946D01*
X63421522Y-66342394D01*
X63417895Y-66357649D01*
X63412369Y-66408514D01*
X63412000Y-66415328D01*
X63412000Y-67037885D01*
X63416475Y-67053124D01*
X63417865Y-67054329D01*
X63425548Y-67056000D01*
X66109884Y-67056000D01*
X66125123Y-67051525D01*
X66126328Y-67050135D01*
X66127999Y-67042452D01*
X66127999Y-66415331D01*
X66127629Y-66408510D01*
X66122105Y-66357648D01*
X66118479Y-66342396D01*
X66073324Y-66221946D01*
X66064786Y-66206351D01*
X65988285Y-66104276D01*
X65975724Y-66091715D01*
X65873649Y-66015214D01*
X65858054Y-66006676D01*
X65747813Y-65965348D01*
X65691049Y-65922706D01*
X65666349Y-65856145D01*
X65681557Y-65786796D01*
X65703104Y-65758115D01*
X65804430Y-65657144D01*
X65804440Y-65657132D01*
X65808096Y-65653489D01*
X65867594Y-65570689D01*
X65935435Y-65476277D01*
X65938453Y-65472077D01*
X66037430Y-65271811D01*
X66102370Y-65058069D01*
X66131529Y-64836590D01*
X66133156Y-64770000D01*
X66114852Y-64547361D01*
X66060431Y-64330702D01*
X65971354Y-64125840D01*
X65850014Y-63938277D01*
X65699670Y-63773051D01*
X65695619Y-63769852D01*
X65695615Y-63769848D01*
X65528414Y-63637800D01*
X65528410Y-63637798D01*
X65524359Y-63634598D01*
X65483053Y-63611796D01*
X65433084Y-63561364D01*
X65418312Y-63491921D01*
X65443428Y-63425516D01*
X65470780Y-63398909D01*
X65514603Y-63367650D01*
X65649860Y-63271173D01*
X65808096Y-63113489D01*
X65867594Y-63030689D01*
X65935435Y-62936277D01*
X65938453Y-62932077D01*
X66037430Y-62731811D01*
X66102370Y-62518069D01*
X66131529Y-62296590D01*
X66133156Y-62230000D01*
X66114852Y-62007361D01*
X66060431Y-61790702D01*
X65971354Y-61585840D01*
X65850014Y-61398277D01*
X65699670Y-61233051D01*
X65695619Y-61229852D01*
X65695615Y-61229848D01*
X65528414Y-61097800D01*
X65528410Y-61097798D01*
X65524359Y-61094598D01*
X65483053Y-61071796D01*
X65433084Y-61021364D01*
X65418312Y-60951921D01*
X65443428Y-60885516D01*
X65470780Y-60858909D01*
X65514603Y-60827650D01*
X65649860Y-60731173D01*
X65808096Y-60573489D01*
X65867594Y-60490689D01*
X65935435Y-60396277D01*
X65938453Y-60392077D01*
X66037430Y-60191811D01*
X66102370Y-59978069D01*
X66131529Y-59756590D01*
X66133156Y-59690000D01*
X66114852Y-59467361D01*
X66060431Y-59250702D01*
X65971354Y-59045840D01*
X65850014Y-58858277D01*
X65699670Y-58693051D01*
X65695619Y-58689852D01*
X65695615Y-58689848D01*
X65528414Y-58557800D01*
X65528410Y-58557798D01*
X65524359Y-58554598D01*
X65483053Y-58531796D01*
X65433084Y-58481364D01*
X65418312Y-58411921D01*
X65443428Y-58345516D01*
X65470780Y-58318909D01*
X65514603Y-58287650D01*
X65649860Y-58191173D01*
X65808096Y-58033489D01*
X65867594Y-57950689D01*
X65935435Y-57856277D01*
X65938453Y-57852077D01*
X66037430Y-57651811D01*
X66102370Y-57438069D01*
X66131529Y-57216590D01*
X66133156Y-57150000D01*
X66114852Y-56927361D01*
X66060431Y-56710702D01*
X65971354Y-56505840D01*
X65850014Y-56318277D01*
X65846540Y-56314459D01*
X65846533Y-56314450D01*
X65702435Y-56156088D01*
X65671383Y-56092242D01*
X65679779Y-56021744D01*
X65724956Y-55966976D01*
X65751400Y-55953307D01*
X65858052Y-55913325D01*
X65873649Y-55904786D01*
X65975724Y-55828285D01*
X65988285Y-55815724D01*
X66064786Y-55713649D01*
X66073324Y-55698054D01*
X66118478Y-55577606D01*
X66122105Y-55562351D01*
X66127631Y-55511486D01*
X66128000Y-55504672D01*
X66128000Y-54882115D01*
X66123525Y-54866876D01*
X66122135Y-54865671D01*
X66114452Y-54864000D01*
X63430116Y-54864000D01*
X63414877Y-54868475D01*
X63413672Y-54869865D01*
X63412001Y-54877548D01*
X63412001Y-55504669D01*
X63412371Y-55511490D01*
X63417895Y-55562352D01*
X63421521Y-55577604D01*
X63466676Y-55698054D01*
X63475214Y-55713649D01*
X63551715Y-55815724D01*
X63564276Y-55828285D01*
X63666351Y-55904786D01*
X63681946Y-55913324D01*
X63790827Y-55954142D01*
X63847591Y-55996784D01*
X63872291Y-56063345D01*
X63857083Y-56132694D01*
X63837691Y-56159175D01*
X63714200Y-56288401D01*
X63710629Y-56292138D01*
X63584743Y-56476680D01*
X63490688Y-56679305D01*
X63430989Y-56894570D01*
X63407251Y-57116695D01*
X63407548Y-57121848D01*
X63407548Y-57121851D01*
X63413011Y-57216590D01*
X63420110Y-57339715D01*
X63421247Y-57344761D01*
X63421248Y-57344767D01*
X63441119Y-57432939D01*
X63469222Y-57557639D01*
X63553266Y-57764616D01*
X63669987Y-57955088D01*
X63816250Y-58123938D01*
X63988126Y-58266632D01*
X64058595Y-58307811D01*
X64061445Y-58309476D01*
X64110169Y-58361114D01*
X64123240Y-58430897D01*
X64096509Y-58496669D01*
X64056055Y-58530027D01*
X64043607Y-58536507D01*
X64039474Y-58539610D01*
X64039471Y-58539612D01*
X63869100Y-58667530D01*
X63864965Y-58670635D01*
X63710629Y-58832138D01*
X63584743Y-59016680D01*
X63490688Y-59219305D01*
X63430989Y-59434570D01*
X63407251Y-59656695D01*
X63407548Y-59661848D01*
X63407548Y-59661851D01*
X63413011Y-59756590D01*
X63420110Y-59879715D01*
X63421247Y-59884761D01*
X63421248Y-59884767D01*
X63441119Y-59972939D01*
X63469222Y-60097639D01*
X63553266Y-60304616D01*
X63669987Y-60495088D01*
X63816250Y-60663938D01*
X63988126Y-60806632D01*
X64058595Y-60847811D01*
X64061445Y-60849476D01*
X64110169Y-60901114D01*
X64123240Y-60970897D01*
X64096509Y-61036669D01*
X64056055Y-61070027D01*
X64043607Y-61076507D01*
X64039474Y-61079610D01*
X64039471Y-61079612D01*
X63869100Y-61207530D01*
X63864965Y-61210635D01*
X63710629Y-61372138D01*
X63584743Y-61556680D01*
X63490688Y-61759305D01*
X63430989Y-61974570D01*
X63407251Y-62196695D01*
X63407548Y-62201848D01*
X63407548Y-62201851D01*
X63413011Y-62296590D01*
X63420110Y-62419715D01*
X63421247Y-62424761D01*
X63421248Y-62424767D01*
X63441119Y-62512939D01*
X63469222Y-62637639D01*
X63553266Y-62844616D01*
X63669987Y-63035088D01*
X63816250Y-63203938D01*
X63988126Y-63346632D01*
X64058595Y-63387811D01*
X64061445Y-63389476D01*
X64110169Y-63441114D01*
X64123240Y-63510897D01*
X64096509Y-63576669D01*
X64056055Y-63610027D01*
X64043607Y-63616507D01*
X64039474Y-63619610D01*
X64039471Y-63619612D01*
X63869100Y-63747530D01*
X63864965Y-63750635D01*
X63710629Y-63912138D01*
X63584743Y-64096680D01*
X63490688Y-64299305D01*
X63430989Y-64514570D01*
X63407251Y-64736695D01*
X48350418Y-64736695D01*
X48334852Y-64547361D01*
X48280431Y-64330702D01*
X48191354Y-64125840D01*
X48070014Y-63938277D01*
X47919670Y-63773051D01*
X47915619Y-63769852D01*
X47915615Y-63769848D01*
X47748414Y-63637800D01*
X47748410Y-63637798D01*
X47744359Y-63634598D01*
X47703053Y-63611796D01*
X47653084Y-63561364D01*
X47638312Y-63491921D01*
X47663428Y-63425516D01*
X47690780Y-63398909D01*
X47734603Y-63367650D01*
X47869860Y-63271173D01*
X48028096Y-63113489D01*
X48087594Y-63030689D01*
X48155435Y-62936277D01*
X48158453Y-62932077D01*
X48257430Y-62731811D01*
X48322370Y-62518069D01*
X48351529Y-62296590D01*
X48353156Y-62230000D01*
X48334852Y-62007361D01*
X48280431Y-61790702D01*
X48191354Y-61585840D01*
X48070014Y-61398277D01*
X47919670Y-61233051D01*
X47915619Y-61229852D01*
X47915615Y-61229848D01*
X47748414Y-61097800D01*
X47748410Y-61097798D01*
X47744359Y-61094598D01*
X47703053Y-61071796D01*
X47653084Y-61021364D01*
X47638312Y-60951921D01*
X47663428Y-60885516D01*
X47690780Y-60858909D01*
X47734603Y-60827650D01*
X47869860Y-60731173D01*
X48028096Y-60573489D01*
X48087594Y-60490689D01*
X48155435Y-60396277D01*
X48158453Y-60392077D01*
X48257430Y-60191811D01*
X48322370Y-59978069D01*
X48351529Y-59756590D01*
X48353156Y-59690000D01*
X48334852Y-59467361D01*
X48280431Y-59250702D01*
X48191354Y-59045840D01*
X48070014Y-58858277D01*
X47919670Y-58693051D01*
X47915619Y-58689852D01*
X47915615Y-58689848D01*
X47748414Y-58557800D01*
X47748410Y-58557798D01*
X47744359Y-58554598D01*
X47703053Y-58531796D01*
X47653084Y-58481364D01*
X47638312Y-58411921D01*
X47663428Y-58345516D01*
X47690780Y-58318909D01*
X47734603Y-58287650D01*
X47869860Y-58191173D01*
X48028096Y-58033489D01*
X48087594Y-57950689D01*
X48155435Y-57856277D01*
X48158453Y-57852077D01*
X48257430Y-57651811D01*
X48322370Y-57438069D01*
X48351529Y-57216590D01*
X48353156Y-57150000D01*
X48334852Y-56927361D01*
X48280431Y-56710702D01*
X48191354Y-56505840D01*
X48070014Y-56318277D01*
X48066540Y-56314459D01*
X48066533Y-56314450D01*
X47922435Y-56156088D01*
X47891383Y-56092242D01*
X47899779Y-56021744D01*
X47944956Y-55966976D01*
X47971400Y-55953307D01*
X48078052Y-55913325D01*
X48093649Y-55904786D01*
X48195724Y-55828285D01*
X48208285Y-55815724D01*
X48284786Y-55713649D01*
X48293324Y-55698054D01*
X48338478Y-55577606D01*
X48342105Y-55562351D01*
X48347631Y-55511486D01*
X48348000Y-55504672D01*
X48348000Y-54882115D01*
X48343525Y-54866876D01*
X48342135Y-54865671D01*
X48334452Y-54864000D01*
X46862000Y-54864000D01*
X46793879Y-54843998D01*
X46747386Y-54790342D01*
X46736000Y-54738000D01*
X46736000Y-54482000D01*
X46756002Y-54413879D01*
X46809658Y-54367386D01*
X46862000Y-54356000D01*
X48329884Y-54356000D01*
X48345123Y-54351525D01*
X48346328Y-54350135D01*
X48347999Y-54342452D01*
X48347999Y-53715331D01*
X48347629Y-53708510D01*
X48342105Y-53657648D01*
X48338479Y-53642396D01*
X48293324Y-53521946D01*
X48284786Y-53506351D01*
X48208285Y-53404276D01*
X48195724Y-53391715D01*
X48093649Y-53315214D01*
X48078054Y-53306676D01*
X47967813Y-53265348D01*
X47911049Y-53222706D01*
X47886349Y-53156145D01*
X47901557Y-53086796D01*
X47923104Y-53058115D01*
X48024430Y-52957144D01*
X48024440Y-52957132D01*
X48028096Y-52953489D01*
X48087594Y-52870689D01*
X48155435Y-52776277D01*
X48158453Y-52772077D01*
X48257430Y-52571811D01*
X48322370Y-52358069D01*
X48351529Y-52136590D01*
X48353156Y-52070000D01*
X48350418Y-52036695D01*
X63407251Y-52036695D01*
X63407548Y-52041848D01*
X63407548Y-52041851D01*
X63413011Y-52136590D01*
X63420110Y-52259715D01*
X63421247Y-52264761D01*
X63421248Y-52264767D01*
X63441119Y-52352939D01*
X63469222Y-52477639D01*
X63553266Y-52684616D01*
X63669987Y-52875088D01*
X63816250Y-53043938D01*
X63820225Y-53047238D01*
X63820231Y-53047244D01*
X63825425Y-53051556D01*
X63865059Y-53110460D01*
X63866555Y-53181441D01*
X63829439Y-53241962D01*
X63789168Y-53266480D01*
X63681946Y-53306676D01*
X63666351Y-53315214D01*
X63564276Y-53391715D01*
X63551715Y-53404276D01*
X63475214Y-53506351D01*
X63466676Y-53521946D01*
X63421522Y-53642394D01*
X63417895Y-53657649D01*
X63412369Y-53708514D01*
X63412000Y-53715328D01*
X63412000Y-54337885D01*
X63416475Y-54353124D01*
X63417865Y-54354329D01*
X63425548Y-54356000D01*
X66109884Y-54356000D01*
X66125123Y-54351525D01*
X66126328Y-54350135D01*
X66127999Y-54342452D01*
X66127999Y-53715331D01*
X66127629Y-53708510D01*
X66122105Y-53657648D01*
X66118479Y-53642396D01*
X66073324Y-53521946D01*
X66064786Y-53506351D01*
X65988285Y-53404276D01*
X65975724Y-53391715D01*
X65873649Y-53315214D01*
X65858054Y-53306676D01*
X65747813Y-53265348D01*
X65691049Y-53222706D01*
X65666349Y-53156145D01*
X65681557Y-53086796D01*
X65703104Y-53058115D01*
X65804430Y-52957144D01*
X65804440Y-52957132D01*
X65808096Y-52953489D01*
X65867594Y-52870689D01*
X65935435Y-52776277D01*
X65938453Y-52772077D01*
X66037430Y-52571811D01*
X66102370Y-52358069D01*
X66131529Y-52136590D01*
X66133156Y-52070000D01*
X66114852Y-51847361D01*
X66060431Y-51630702D01*
X65971354Y-51425840D01*
X65850014Y-51238277D01*
X65699670Y-51073051D01*
X65695619Y-51069852D01*
X65695615Y-51069848D01*
X65528414Y-50937800D01*
X65528410Y-50937798D01*
X65524359Y-50934598D01*
X65483053Y-50911796D01*
X65433084Y-50861364D01*
X65418312Y-50791921D01*
X65443428Y-50725516D01*
X65470780Y-50698909D01*
X65514603Y-50667650D01*
X65649860Y-50571173D01*
X65808096Y-50413489D01*
X65867594Y-50330689D01*
X65935435Y-50236277D01*
X65938453Y-50232077D01*
X66037430Y-50031811D01*
X66102370Y-49818069D01*
X66131529Y-49596590D01*
X66133156Y-49530000D01*
X66114852Y-49307361D01*
X66060431Y-49090702D01*
X65971354Y-48885840D01*
X65850014Y-48698277D01*
X65699670Y-48533051D01*
X65695619Y-48529852D01*
X65695615Y-48529848D01*
X65528414Y-48397800D01*
X65528410Y-48397798D01*
X65524359Y-48394598D01*
X65483053Y-48371796D01*
X65433084Y-48321364D01*
X65418312Y-48251921D01*
X65443428Y-48185516D01*
X65470780Y-48158909D01*
X65514603Y-48127650D01*
X65649860Y-48031173D01*
X65808096Y-47873489D01*
X65867594Y-47790689D01*
X65935435Y-47696277D01*
X65938453Y-47692077D01*
X66037430Y-47491811D01*
X66102370Y-47278069D01*
X66131529Y-47056590D01*
X66133156Y-46990000D01*
X66114852Y-46767361D01*
X66060431Y-46550702D01*
X65971354Y-46345840D01*
X65850014Y-46158277D01*
X65699670Y-45993051D01*
X65695619Y-45989852D01*
X65695615Y-45989848D01*
X65528414Y-45857800D01*
X65528410Y-45857798D01*
X65524359Y-45854598D01*
X65483053Y-45831796D01*
X65433084Y-45781364D01*
X65418312Y-45711921D01*
X65443428Y-45645516D01*
X65470780Y-45618909D01*
X65514603Y-45587650D01*
X65649860Y-45491173D01*
X65808096Y-45333489D01*
X65867594Y-45250689D01*
X65935435Y-45156277D01*
X65938453Y-45152077D01*
X66037430Y-44951811D01*
X66102370Y-44738069D01*
X66131529Y-44516590D01*
X66133156Y-44450000D01*
X66114852Y-44227361D01*
X66060431Y-44010702D01*
X65971354Y-43805840D01*
X65850014Y-43618277D01*
X65846540Y-43614459D01*
X65846533Y-43614450D01*
X65702435Y-43456088D01*
X65671383Y-43392242D01*
X65679779Y-43321744D01*
X65724956Y-43266976D01*
X65751400Y-43253307D01*
X65858052Y-43213325D01*
X65873649Y-43204786D01*
X65975724Y-43128285D01*
X65988285Y-43115724D01*
X66064786Y-43013649D01*
X66073324Y-42998054D01*
X66118478Y-42877606D01*
X66122105Y-42862351D01*
X66127631Y-42811486D01*
X66128000Y-42804672D01*
X66128000Y-42182115D01*
X66123525Y-42166876D01*
X66122135Y-42165671D01*
X66114452Y-42164000D01*
X63430116Y-42164000D01*
X63414877Y-42168475D01*
X63413672Y-42169865D01*
X63412001Y-42177548D01*
X63412001Y-42804669D01*
X63412371Y-42811490D01*
X63417895Y-42862352D01*
X63421521Y-42877604D01*
X63466676Y-42998054D01*
X63475214Y-43013649D01*
X63551715Y-43115724D01*
X63564276Y-43128285D01*
X63666351Y-43204786D01*
X63681946Y-43213324D01*
X63790827Y-43254142D01*
X63847591Y-43296784D01*
X63872291Y-43363345D01*
X63857083Y-43432694D01*
X63837691Y-43459175D01*
X63714200Y-43588401D01*
X63710629Y-43592138D01*
X63584743Y-43776680D01*
X63490688Y-43979305D01*
X63430989Y-44194570D01*
X63407251Y-44416695D01*
X63407548Y-44421848D01*
X63407548Y-44421851D01*
X63413011Y-44516590D01*
X63420110Y-44639715D01*
X63421247Y-44644761D01*
X63421248Y-44644767D01*
X63441119Y-44732939D01*
X63469222Y-44857639D01*
X63553266Y-45064616D01*
X63669987Y-45255088D01*
X63816250Y-45423938D01*
X63988126Y-45566632D01*
X64058595Y-45607811D01*
X64061445Y-45609476D01*
X64110169Y-45661114D01*
X64123240Y-45730897D01*
X64096509Y-45796669D01*
X64056055Y-45830027D01*
X64043607Y-45836507D01*
X64039474Y-45839610D01*
X64039471Y-45839612D01*
X63869100Y-45967530D01*
X63864965Y-45970635D01*
X63710629Y-46132138D01*
X63584743Y-46316680D01*
X63490688Y-46519305D01*
X63430989Y-46734570D01*
X63407251Y-46956695D01*
X63407548Y-46961848D01*
X63407548Y-46961851D01*
X63413011Y-47056590D01*
X63420110Y-47179715D01*
X63421247Y-47184761D01*
X63421248Y-47184767D01*
X63441119Y-47272939D01*
X63469222Y-47397639D01*
X63553266Y-47604616D01*
X63669987Y-47795088D01*
X63816250Y-47963938D01*
X63988126Y-48106632D01*
X64058595Y-48147811D01*
X64061445Y-48149476D01*
X64110169Y-48201114D01*
X64123240Y-48270897D01*
X64096509Y-48336669D01*
X64056055Y-48370027D01*
X64043607Y-48376507D01*
X64039474Y-48379610D01*
X64039471Y-48379612D01*
X63869100Y-48507530D01*
X63864965Y-48510635D01*
X63710629Y-48672138D01*
X63584743Y-48856680D01*
X63490688Y-49059305D01*
X63430989Y-49274570D01*
X63407251Y-49496695D01*
X63407548Y-49501848D01*
X63407548Y-49501851D01*
X63413011Y-49596590D01*
X63420110Y-49719715D01*
X63421247Y-49724761D01*
X63421248Y-49724767D01*
X63441119Y-49812939D01*
X63469222Y-49937639D01*
X63553266Y-50144616D01*
X63669987Y-50335088D01*
X63816250Y-50503938D01*
X63988126Y-50646632D01*
X64058595Y-50687811D01*
X64061445Y-50689476D01*
X64110169Y-50741114D01*
X64123240Y-50810897D01*
X64096509Y-50876669D01*
X64056055Y-50910027D01*
X64043607Y-50916507D01*
X64039474Y-50919610D01*
X64039471Y-50919612D01*
X63869100Y-51047530D01*
X63864965Y-51050635D01*
X63710629Y-51212138D01*
X63584743Y-51396680D01*
X63490688Y-51599305D01*
X63430989Y-51814570D01*
X63407251Y-52036695D01*
X48350418Y-52036695D01*
X48334852Y-51847361D01*
X48280431Y-51630702D01*
X48191354Y-51425840D01*
X48070014Y-51238277D01*
X47919670Y-51073051D01*
X47915619Y-51069852D01*
X47915615Y-51069848D01*
X47748414Y-50937800D01*
X47748410Y-50937798D01*
X47744359Y-50934598D01*
X47703053Y-50911796D01*
X47653084Y-50861364D01*
X47638312Y-50791921D01*
X47663428Y-50725516D01*
X47690780Y-50698909D01*
X47734603Y-50667650D01*
X47869860Y-50571173D01*
X48028096Y-50413489D01*
X48087594Y-50330689D01*
X48155435Y-50236277D01*
X48158453Y-50232077D01*
X48257430Y-50031811D01*
X48322370Y-49818069D01*
X48351529Y-49596590D01*
X48353156Y-49530000D01*
X48334852Y-49307361D01*
X48280431Y-49090702D01*
X48191354Y-48885840D01*
X48070014Y-48698277D01*
X47919670Y-48533051D01*
X47915619Y-48529852D01*
X47915615Y-48529848D01*
X47748414Y-48397800D01*
X47748410Y-48397798D01*
X47744359Y-48394598D01*
X47703053Y-48371796D01*
X47653084Y-48321364D01*
X47638312Y-48251921D01*
X47663428Y-48185516D01*
X47690780Y-48158909D01*
X47734603Y-48127650D01*
X47869860Y-48031173D01*
X48028096Y-47873489D01*
X48087594Y-47790689D01*
X48155435Y-47696277D01*
X48158453Y-47692077D01*
X48257430Y-47491811D01*
X48322370Y-47278069D01*
X48351529Y-47056590D01*
X48353156Y-46990000D01*
X48334852Y-46767361D01*
X48280431Y-46550702D01*
X48191354Y-46345840D01*
X48070014Y-46158277D01*
X47919670Y-45993051D01*
X47915619Y-45989852D01*
X47915615Y-45989848D01*
X47748414Y-45857800D01*
X47748410Y-45857798D01*
X47744359Y-45854598D01*
X47703053Y-45831796D01*
X47653084Y-45781364D01*
X47638312Y-45711921D01*
X47663428Y-45645516D01*
X47690780Y-45618909D01*
X47734603Y-45587650D01*
X47869860Y-45491173D01*
X48028096Y-45333489D01*
X48087594Y-45250689D01*
X48155435Y-45156277D01*
X48158453Y-45152077D01*
X48257430Y-44951811D01*
X48322370Y-44738069D01*
X48351529Y-44516590D01*
X48353156Y-44450000D01*
X48334852Y-44227361D01*
X48280431Y-44010702D01*
X48191354Y-43805840D01*
X48070014Y-43618277D01*
X48066540Y-43614459D01*
X48066533Y-43614450D01*
X47922435Y-43456088D01*
X47891383Y-43392242D01*
X47899779Y-43321744D01*
X47944956Y-43266976D01*
X47971400Y-43253307D01*
X48078052Y-43213325D01*
X48093649Y-43204786D01*
X48195724Y-43128285D01*
X48208285Y-43115724D01*
X48284786Y-43013649D01*
X48293324Y-42998054D01*
X48338478Y-42877606D01*
X48342105Y-42862351D01*
X48347631Y-42811486D01*
X48348000Y-42804672D01*
X48348000Y-42182115D01*
X48343525Y-42166876D01*
X48342135Y-42165671D01*
X48334452Y-42164000D01*
X46862000Y-42164000D01*
X46793879Y-42143998D01*
X46747386Y-42090342D01*
X46736000Y-42038000D01*
X46736000Y-41782000D01*
X46756002Y-41713879D01*
X46809658Y-41667386D01*
X46862000Y-41656000D01*
X48329884Y-41656000D01*
X48345123Y-41651525D01*
X48346328Y-41650135D01*
X48347999Y-41642452D01*
X48347999Y-41015331D01*
X48347629Y-41008510D01*
X48342105Y-40957648D01*
X48338479Y-40942396D01*
X48293324Y-40821946D01*
X48284786Y-40806351D01*
X48208285Y-40704276D01*
X48195724Y-40691715D01*
X48093649Y-40615214D01*
X48078054Y-40606676D01*
X47967813Y-40565348D01*
X47911049Y-40522706D01*
X47886349Y-40456145D01*
X47901557Y-40386796D01*
X47923104Y-40358115D01*
X48024430Y-40257144D01*
X48024440Y-40257132D01*
X48028096Y-40253489D01*
X48063734Y-40203894D01*
X48155435Y-40076277D01*
X48158453Y-40072077D01*
X48199018Y-39990000D01*
X52191693Y-39990000D01*
X52210885Y-40209371D01*
X52267880Y-40422076D01*
X52270205Y-40427061D01*
X52358618Y-40616666D01*
X52358621Y-40616671D01*
X52360944Y-40621653D01*
X52364100Y-40626160D01*
X52364101Y-40626162D01*
X52394770Y-40669961D01*
X52487251Y-40802038D01*
X52642962Y-40957749D01*
X52823346Y-41084056D01*
X53022924Y-41177120D01*
X53235629Y-41234115D01*
X53455000Y-41253307D01*
X53674371Y-41234115D01*
X53887076Y-41177120D01*
X54086654Y-41084056D01*
X54267038Y-40957749D01*
X54422749Y-40802038D01*
X54515231Y-40669961D01*
X54545899Y-40626162D01*
X54545900Y-40626160D01*
X54549056Y-40621653D01*
X54551379Y-40616671D01*
X54551382Y-40616666D01*
X54639795Y-40427061D01*
X54642120Y-40422076D01*
X54699115Y-40209371D01*
X54718307Y-39990000D01*
X57041693Y-39990000D01*
X57060885Y-40209371D01*
X57117880Y-40422076D01*
X57120205Y-40427061D01*
X57208618Y-40616666D01*
X57208621Y-40616671D01*
X57210944Y-40621653D01*
X57214100Y-40626160D01*
X57214101Y-40626162D01*
X57244770Y-40669961D01*
X57337251Y-40802038D01*
X57492962Y-40957749D01*
X57673346Y-41084056D01*
X57872924Y-41177120D01*
X58085629Y-41234115D01*
X58305000Y-41253307D01*
X58524371Y-41234115D01*
X58737076Y-41177120D01*
X58936654Y-41084056D01*
X59117038Y-40957749D01*
X59272749Y-40802038D01*
X59365231Y-40669961D01*
X59395899Y-40626162D01*
X59395900Y-40626160D01*
X59399056Y-40621653D01*
X59401379Y-40616671D01*
X59401382Y-40616666D01*
X59489795Y-40427061D01*
X59492120Y-40422076D01*
X59549115Y-40209371D01*
X59568307Y-39990000D01*
X59549115Y-39770629D01*
X59492120Y-39557924D01*
X59448585Y-39464562D01*
X59401382Y-39363334D01*
X59401379Y-39363329D01*
X59399056Y-39358347D01*
X59395899Y-39353838D01*
X59383895Y-39336695D01*
X63407251Y-39336695D01*
X63407548Y-39341848D01*
X63407548Y-39341851D01*
X63413011Y-39436590D01*
X63420110Y-39559715D01*
X63421247Y-39564761D01*
X63421248Y-39564767D01*
X63429500Y-39601381D01*
X63469222Y-39777639D01*
X63553266Y-39984616D01*
X63669987Y-40175088D01*
X63816250Y-40343938D01*
X63820225Y-40347238D01*
X63820231Y-40347244D01*
X63825425Y-40351556D01*
X63865059Y-40410460D01*
X63866555Y-40481441D01*
X63829439Y-40541962D01*
X63789168Y-40566480D01*
X63681946Y-40606676D01*
X63666351Y-40615214D01*
X63564276Y-40691715D01*
X63551715Y-40704276D01*
X63475214Y-40806351D01*
X63466676Y-40821946D01*
X63421522Y-40942394D01*
X63417895Y-40957649D01*
X63412369Y-41008514D01*
X63412000Y-41015328D01*
X63412000Y-41637885D01*
X63416475Y-41653124D01*
X63417865Y-41654329D01*
X63425548Y-41656000D01*
X66109884Y-41656000D01*
X66125123Y-41651525D01*
X66126328Y-41650135D01*
X66127999Y-41642452D01*
X66127999Y-41015331D01*
X66127629Y-41008510D01*
X66122105Y-40957648D01*
X66118479Y-40942396D01*
X66073324Y-40821946D01*
X66064786Y-40806351D01*
X65988285Y-40704276D01*
X65975724Y-40691715D01*
X65873649Y-40615214D01*
X65858054Y-40606676D01*
X65747813Y-40565348D01*
X65691049Y-40522706D01*
X65666349Y-40456145D01*
X65681557Y-40386796D01*
X65703104Y-40358115D01*
X65804430Y-40257144D01*
X65804440Y-40257132D01*
X65808096Y-40253489D01*
X65843734Y-40203894D01*
X65935435Y-40076277D01*
X65938453Y-40072077D01*
X66037430Y-39871811D01*
X66102370Y-39658069D01*
X66131529Y-39436590D01*
X66133156Y-39370000D01*
X66114852Y-39147361D01*
X66060431Y-38930702D01*
X65971354Y-38725840D01*
X65869851Y-38568940D01*
X65852822Y-38542617D01*
X65852820Y-38542614D01*
X65850014Y-38538277D01*
X65699670Y-38373051D01*
X65695619Y-38369852D01*
X65695615Y-38369848D01*
X65528414Y-38237800D01*
X65528410Y-38237798D01*
X65524359Y-38234598D01*
X65483053Y-38211796D01*
X65433084Y-38161364D01*
X65418312Y-38091921D01*
X65443428Y-38025516D01*
X65470780Y-37998909D01*
X65517089Y-37965877D01*
X65649860Y-37871173D01*
X65808096Y-37713489D01*
X65867594Y-37630689D01*
X65935435Y-37536277D01*
X65938453Y-37532077D01*
X65961759Y-37484922D01*
X66035136Y-37336453D01*
X66035137Y-37336451D01*
X66037430Y-37331811D01*
X66102370Y-37118069D01*
X66131529Y-36896590D01*
X66133156Y-36830000D01*
X66114852Y-36607361D01*
X66060431Y-36390702D01*
X65971354Y-36185840D01*
X65850014Y-35998277D01*
X65699670Y-35833051D01*
X65695619Y-35829852D01*
X65695615Y-35829848D01*
X65528414Y-35697800D01*
X65528410Y-35697798D01*
X65524359Y-35694598D01*
X65481387Y-35670876D01*
X65472136Y-35665769D01*
X65328789Y-35586638D01*
X65323920Y-35584914D01*
X65323916Y-35584912D01*
X65123087Y-35513795D01*
X65123083Y-35513794D01*
X65118212Y-35512069D01*
X65113119Y-35511162D01*
X65113116Y-35511161D01*
X64903373Y-35473800D01*
X64903367Y-35473799D01*
X64898284Y-35472894D01*
X64824452Y-35471992D01*
X64680081Y-35470228D01*
X64680079Y-35470228D01*
X64674911Y-35470165D01*
X64454091Y-35503955D01*
X64241756Y-35573357D01*
X64216015Y-35586757D01*
X64057740Y-35669150D01*
X64043607Y-35676507D01*
X64039474Y-35679610D01*
X64039471Y-35679612D01*
X63902024Y-35782810D01*
X63864965Y-35810635D01*
X63710629Y-35972138D01*
X63707715Y-35976410D01*
X63707714Y-35976411D01*
X63627611Y-36093838D01*
X63584743Y-36156680D01*
X63490688Y-36359305D01*
X63430989Y-36574570D01*
X63407251Y-36796695D01*
X63407548Y-36801848D01*
X63407548Y-36801851D01*
X63416667Y-36960000D01*
X63420110Y-37019715D01*
X63421247Y-37024761D01*
X63421248Y-37024767D01*
X63422959Y-37032359D01*
X63469222Y-37237639D01*
X63553266Y-37444616D01*
X63669987Y-37635088D01*
X63816250Y-37803938D01*
X63988126Y-37946632D01*
X64021060Y-37965877D01*
X64061445Y-37989476D01*
X64110169Y-38041114D01*
X64123240Y-38110897D01*
X64096509Y-38176669D01*
X64056055Y-38210027D01*
X64043607Y-38216507D01*
X64039474Y-38219610D01*
X64039471Y-38219612D01*
X63908111Y-38318240D01*
X63864965Y-38350635D01*
X63710629Y-38512138D01*
X63707715Y-38516410D01*
X63707714Y-38516411D01*
X63698309Y-38530198D01*
X63584743Y-38696680D01*
X63547871Y-38776114D01*
X63493328Y-38893618D01*
X63490688Y-38899305D01*
X63430989Y-39114570D01*
X63407251Y-39336695D01*
X59383895Y-39336695D01*
X59275908Y-39182473D01*
X59275906Y-39182470D01*
X59272749Y-39177962D01*
X59117038Y-39022251D01*
X58936654Y-38895944D01*
X58737076Y-38802880D01*
X58524371Y-38745885D01*
X58305000Y-38726693D01*
X58085629Y-38745885D01*
X57872924Y-38802880D01*
X57806455Y-38833875D01*
X57678334Y-38893618D01*
X57678329Y-38893621D01*
X57673347Y-38895944D01*
X57668840Y-38899100D01*
X57668838Y-38899101D01*
X57497473Y-39019092D01*
X57497470Y-39019094D01*
X57492962Y-39022251D01*
X57337251Y-39177962D01*
X57334094Y-39182470D01*
X57334092Y-39182473D01*
X57214101Y-39353838D01*
X57210944Y-39358347D01*
X57208621Y-39363329D01*
X57208618Y-39363334D01*
X57161415Y-39464562D01*
X57117880Y-39557924D01*
X57060885Y-39770629D01*
X57041693Y-39990000D01*
X54718307Y-39990000D01*
X54699115Y-39770629D01*
X54642120Y-39557924D01*
X54598585Y-39464562D01*
X54551382Y-39363334D01*
X54551379Y-39363329D01*
X54549056Y-39358347D01*
X54545899Y-39353838D01*
X54425908Y-39182473D01*
X54425906Y-39182470D01*
X54422749Y-39177962D01*
X54267038Y-39022251D01*
X54086654Y-38895944D01*
X53887076Y-38802880D01*
X53674371Y-38745885D01*
X53455000Y-38726693D01*
X53235629Y-38745885D01*
X53022924Y-38802880D01*
X52956455Y-38833875D01*
X52828334Y-38893618D01*
X52828329Y-38893621D01*
X52823347Y-38895944D01*
X52818840Y-38899100D01*
X52818838Y-38899101D01*
X52647473Y-39019092D01*
X52647470Y-39019094D01*
X52642962Y-39022251D01*
X52487251Y-39177962D01*
X52484094Y-39182470D01*
X52484092Y-39182473D01*
X52364101Y-39353838D01*
X52360944Y-39358347D01*
X52358621Y-39363329D01*
X52358618Y-39363334D01*
X52311415Y-39464562D01*
X52267880Y-39557924D01*
X52210885Y-39770629D01*
X52191693Y-39990000D01*
X48199018Y-39990000D01*
X48257430Y-39871811D01*
X48322370Y-39658069D01*
X48351529Y-39436590D01*
X48353156Y-39370000D01*
X48334852Y-39147361D01*
X48280431Y-38930702D01*
X48191354Y-38725840D01*
X48089851Y-38568940D01*
X48072822Y-38542617D01*
X48072820Y-38542614D01*
X48070014Y-38538277D01*
X47919670Y-38373051D01*
X47915619Y-38369852D01*
X47915615Y-38369848D01*
X47748414Y-38237800D01*
X47748410Y-38237798D01*
X47744359Y-38234598D01*
X47703053Y-38211796D01*
X47653084Y-38161364D01*
X47638312Y-38091921D01*
X47663428Y-38025516D01*
X47690780Y-37998909D01*
X47737089Y-37965877D01*
X47869860Y-37871173D01*
X48028096Y-37713489D01*
X48087594Y-37630689D01*
X48155435Y-37536277D01*
X48158453Y-37532077D01*
X48181759Y-37484922D01*
X48255136Y-37336453D01*
X48255137Y-37336451D01*
X48257430Y-37331811D01*
X48322370Y-37118069D01*
X48347727Y-36925469D01*
X51742095Y-36925469D01*
X51742392Y-36930622D01*
X51742392Y-36930625D01*
X51748067Y-37029041D01*
X51755427Y-37156697D01*
X51756564Y-37161743D01*
X51756565Y-37161749D01*
X51784221Y-37284464D01*
X51806346Y-37382642D01*
X51808288Y-37387424D01*
X51808289Y-37387428D01*
X51891540Y-37592450D01*
X51893484Y-37597237D01*
X52014501Y-37794719D01*
X52166147Y-37969784D01*
X52344349Y-38117730D01*
X52544322Y-38234584D01*
X52760694Y-38317209D01*
X52765760Y-38318240D01*
X52765761Y-38318240D01*
X52818846Y-38329040D01*
X52987656Y-38363385D01*
X53118324Y-38368176D01*
X53213949Y-38371683D01*
X53213953Y-38371683D01*
X53219113Y-38371872D01*
X53224233Y-38371216D01*
X53224235Y-38371216D01*
X53298899Y-38361651D01*
X53448847Y-38342442D01*
X53453795Y-38340957D01*
X53453802Y-38340956D01*
X53665747Y-38277369D01*
X53670690Y-38275886D01*
X53675324Y-38273616D01*
X53874049Y-38176262D01*
X53874052Y-38176260D01*
X53878684Y-38173991D01*
X54067243Y-38039494D01*
X54231303Y-37876005D01*
X54366458Y-37687917D01*
X54413641Y-37592450D01*
X54466784Y-37484922D01*
X54466785Y-37484920D01*
X54469078Y-37480280D01*
X54536408Y-37258671D01*
X54566640Y-37029041D01*
X54566722Y-37025691D01*
X54568245Y-36963365D01*
X54568245Y-36963361D01*
X54568327Y-36960000D01*
X54565488Y-36925469D01*
X57192095Y-36925469D01*
X57192392Y-36930622D01*
X57192392Y-36930625D01*
X57198067Y-37029041D01*
X57205427Y-37156697D01*
X57206564Y-37161743D01*
X57206565Y-37161749D01*
X57234221Y-37284464D01*
X57256346Y-37382642D01*
X57258288Y-37387424D01*
X57258289Y-37387428D01*
X57341540Y-37592450D01*
X57343484Y-37597237D01*
X57464501Y-37794719D01*
X57616147Y-37969784D01*
X57794349Y-38117730D01*
X57994322Y-38234584D01*
X58210694Y-38317209D01*
X58215760Y-38318240D01*
X58215761Y-38318240D01*
X58268846Y-38329040D01*
X58437656Y-38363385D01*
X58568324Y-38368176D01*
X58663949Y-38371683D01*
X58663953Y-38371683D01*
X58669113Y-38371872D01*
X58674233Y-38371216D01*
X58674235Y-38371216D01*
X58748899Y-38361651D01*
X58898847Y-38342442D01*
X58903795Y-38340957D01*
X58903802Y-38340956D01*
X59115747Y-38277369D01*
X59120690Y-38275886D01*
X59125324Y-38273616D01*
X59324049Y-38176262D01*
X59324052Y-38176260D01*
X59328684Y-38173991D01*
X59517243Y-38039494D01*
X59681303Y-37876005D01*
X59816458Y-37687917D01*
X59863641Y-37592450D01*
X59916784Y-37484922D01*
X59916785Y-37484920D01*
X59919078Y-37480280D01*
X59986408Y-37258671D01*
X60016640Y-37029041D01*
X60016722Y-37025691D01*
X60018245Y-36963365D01*
X60018245Y-36963361D01*
X60018327Y-36960000D01*
X60004479Y-36791562D01*
X59999773Y-36734318D01*
X59999772Y-36734312D01*
X59999349Y-36729167D01*
X59942925Y-36504533D01*
X59940866Y-36499797D01*
X59852630Y-36296868D01*
X59852628Y-36296865D01*
X59850570Y-36292131D01*
X59724764Y-36097665D01*
X59568887Y-35926358D01*
X59564836Y-35923159D01*
X59564832Y-35923155D01*
X59391177Y-35786011D01*
X59391172Y-35786008D01*
X59387123Y-35782810D01*
X59382607Y-35780317D01*
X59382604Y-35780315D01*
X59188879Y-35673373D01*
X59188875Y-35673371D01*
X59184355Y-35670876D01*
X59179486Y-35669152D01*
X59179482Y-35669150D01*
X58970903Y-35595288D01*
X58970899Y-35595287D01*
X58966028Y-35593562D01*
X58960935Y-35592655D01*
X58960932Y-35592654D01*
X58743095Y-35553851D01*
X58743089Y-35553850D01*
X58738006Y-35552945D01*
X58665096Y-35552054D01*
X58511581Y-35550179D01*
X58511579Y-35550179D01*
X58506411Y-35550116D01*
X58277464Y-35585150D01*
X58057314Y-35657106D01*
X58052726Y-35659494D01*
X58052722Y-35659496D01*
X57985292Y-35694598D01*
X57851872Y-35764052D01*
X57847739Y-35767155D01*
X57847736Y-35767157D01*
X57670790Y-35900012D01*
X57666655Y-35903117D01*
X57663083Y-35906855D01*
X57579369Y-35994457D01*
X57506639Y-36070564D01*
X57503725Y-36074836D01*
X57503724Y-36074837D01*
X57447895Y-36156680D01*
X57376119Y-36261899D01*
X57278602Y-36471981D01*
X57216707Y-36695169D01*
X57192095Y-36925469D01*
X54565488Y-36925469D01*
X54554479Y-36791562D01*
X54549773Y-36734318D01*
X54549772Y-36734312D01*
X54549349Y-36729167D01*
X54492925Y-36504533D01*
X54490866Y-36499797D01*
X54402630Y-36296868D01*
X54402628Y-36296865D01*
X54400570Y-36292131D01*
X54274764Y-36097665D01*
X54118887Y-35926358D01*
X54114836Y-35923159D01*
X54114832Y-35923155D01*
X53941177Y-35786011D01*
X53941172Y-35786008D01*
X53937123Y-35782810D01*
X53932607Y-35780317D01*
X53932604Y-35780315D01*
X53738879Y-35673373D01*
X53738875Y-35673371D01*
X53734355Y-35670876D01*
X53729486Y-35669152D01*
X53729482Y-35669150D01*
X53520903Y-35595288D01*
X53520899Y-35595287D01*
X53516028Y-35593562D01*
X53510935Y-35592655D01*
X53510932Y-35592654D01*
X53293095Y-35553851D01*
X53293089Y-35553850D01*
X53288006Y-35552945D01*
X53215096Y-35552054D01*
X53061581Y-35550179D01*
X53061579Y-35550179D01*
X53056411Y-35550116D01*
X52827464Y-35585150D01*
X52607314Y-35657106D01*
X52602726Y-35659494D01*
X52602722Y-35659496D01*
X52535292Y-35694598D01*
X52401872Y-35764052D01*
X52397739Y-35767155D01*
X52397736Y-35767157D01*
X52220790Y-35900012D01*
X52216655Y-35903117D01*
X52213083Y-35906855D01*
X52129369Y-35994457D01*
X52056639Y-36070564D01*
X52053725Y-36074836D01*
X52053724Y-36074837D01*
X51997895Y-36156680D01*
X51926119Y-36261899D01*
X51828602Y-36471981D01*
X51766707Y-36695169D01*
X51742095Y-36925469D01*
X48347727Y-36925469D01*
X48351529Y-36896590D01*
X48353156Y-36830000D01*
X48334852Y-36607361D01*
X48280431Y-36390702D01*
X48191354Y-36185840D01*
X48070014Y-35998277D01*
X47919670Y-35833051D01*
X47915619Y-35829852D01*
X47915615Y-35829848D01*
X47748414Y-35697800D01*
X47748410Y-35697798D01*
X47744359Y-35694598D01*
X47701387Y-35670876D01*
X47692136Y-35665769D01*
X47548789Y-35586638D01*
X47543920Y-35584914D01*
X47543916Y-35584912D01*
X47343087Y-35513795D01*
X47343083Y-35513794D01*
X47338212Y-35512069D01*
X47333119Y-35511162D01*
X47333116Y-35511161D01*
X47123373Y-35473800D01*
X47123367Y-35473799D01*
X47118284Y-35472894D01*
X47044452Y-35471992D01*
X46900081Y-35470228D01*
X46900079Y-35470228D01*
X46894911Y-35470165D01*
X46674091Y-35503955D01*
X46461756Y-35573357D01*
X46436015Y-35586757D01*
X46277740Y-35669150D01*
X46263607Y-35676507D01*
X46259474Y-35679610D01*
X46259471Y-35679612D01*
X46122024Y-35782810D01*
X46084965Y-35810635D01*
X45930629Y-35972138D01*
X45927715Y-35976410D01*
X45927714Y-35976411D01*
X45847611Y-36093838D01*
X45804743Y-36156680D01*
X45710688Y-36359305D01*
X45650989Y-36574570D01*
X45627251Y-36796695D01*
X45627548Y-36801848D01*
X45627548Y-36801851D01*
X45636667Y-36960000D01*
X45640110Y-37019715D01*
X45641247Y-37024761D01*
X45641248Y-37024767D01*
X45642959Y-37032359D01*
X45670981Y-37156697D01*
X45673453Y-37167668D01*
X45668917Y-37238520D01*
X45639631Y-37284464D01*
X44623747Y-38300348D01*
X44615461Y-38307888D01*
X44608982Y-38312000D01*
X44603557Y-38317777D01*
X44562357Y-38361651D01*
X44559602Y-38364493D01*
X44539865Y-38384230D01*
X44537385Y-38387427D01*
X44529682Y-38396447D01*
X44499414Y-38428679D01*
X44495595Y-38435625D01*
X44495593Y-38435628D01*
X44489652Y-38446434D01*
X44478801Y-38462953D01*
X44466386Y-38478959D01*
X44463241Y-38486228D01*
X44463238Y-38486232D01*
X44448826Y-38519537D01*
X44443609Y-38530187D01*
X44422305Y-38568940D01*
X44420334Y-38576615D01*
X44420334Y-38576616D01*
X44417267Y-38588562D01*
X44410863Y-38607266D01*
X44402819Y-38625855D01*
X44401580Y-38633678D01*
X44401577Y-38633688D01*
X44395901Y-38669524D01*
X44393495Y-38681144D01*
X44388301Y-38701375D01*
X44382500Y-38723970D01*
X44382500Y-38744224D01*
X44380949Y-38763934D01*
X44377780Y-38783943D01*
X44378526Y-38791835D01*
X44381941Y-38827961D01*
X44382500Y-38839819D01*
X44382500Y-72329405D01*
X44362498Y-72397526D01*
X44345595Y-72418501D01*
X43903595Y-72860500D01*
X43841283Y-72894525D01*
X43770467Y-72889460D01*
X43713632Y-72846913D01*
X43688821Y-72780393D01*
X43688500Y-72771404D01*
X43688500Y-34924500D01*
X43708502Y-34856379D01*
X43762158Y-34809886D01*
X43814500Y-34798500D01*
X67945500Y-34798500D01*
X68013621Y-34818502D01*
G37*
%TD.AperFunction*%
%TA.AperFunction,Conductor*%
G36*
X56893527Y-95903502D02*
G01*
X56914501Y-95920405D01*
X60874777Y-99880682D01*
X60908803Y-99942994D01*
X60907100Y-100003446D01*
X60885989Y-100079570D01*
X60862251Y-100301695D01*
X60862548Y-100306848D01*
X60862548Y-100306851D01*
X60868011Y-100401590D01*
X60875110Y-100524715D01*
X60876247Y-100529761D01*
X60876248Y-100529767D01*
X60890449Y-100592778D01*
X60924222Y-100742639D01*
X60985673Y-100893976D01*
X61003090Y-100936868D01*
X61008266Y-100949616D01*
X61124987Y-101140088D01*
X61271250Y-101308938D01*
X61443126Y-101451632D01*
X61513595Y-101492811D01*
X61516445Y-101494476D01*
X61565169Y-101546114D01*
X61578240Y-101615897D01*
X61551509Y-101681669D01*
X61511055Y-101715027D01*
X61498607Y-101721507D01*
X61494474Y-101724610D01*
X61494471Y-101724612D01*
X61470247Y-101742800D01*
X61319965Y-101855635D01*
X61165629Y-102017138D01*
X61039743Y-102201680D01*
X61012687Y-102259967D01*
X60955262Y-102383680D01*
X60945688Y-102404305D01*
X60885989Y-102619570D01*
X60862251Y-102841695D01*
X60862548Y-102846853D01*
X60862422Y-102852024D01*
X60860914Y-102851987D01*
X60846411Y-102914482D01*
X60795520Y-102963986D01*
X60725944Y-102978117D01*
X60659773Y-102952389D01*
X60647574Y-102941669D01*
X60183652Y-102477747D01*
X60176112Y-102469461D01*
X60172000Y-102462982D01*
X60122348Y-102416356D01*
X60119507Y-102413602D01*
X60099770Y-102393865D01*
X60096573Y-102391385D01*
X60087551Y-102383680D01*
X60061100Y-102358841D01*
X60055321Y-102353414D01*
X60048375Y-102349595D01*
X60048372Y-102349593D01*
X60037566Y-102343652D01*
X60021047Y-102332801D01*
X60020583Y-102332441D01*
X60005041Y-102320386D01*
X59997772Y-102317241D01*
X59997768Y-102317238D01*
X59964463Y-102302826D01*
X59953813Y-102297609D01*
X59915060Y-102276305D01*
X59895437Y-102271267D01*
X59876734Y-102264863D01*
X59865420Y-102259967D01*
X59865419Y-102259967D01*
X59858145Y-102256819D01*
X59850322Y-102255580D01*
X59850312Y-102255577D01*
X59814476Y-102249901D01*
X59802856Y-102247495D01*
X59767711Y-102238472D01*
X59767710Y-102238472D01*
X59760030Y-102236500D01*
X59739776Y-102236500D01*
X59720065Y-102234949D01*
X59707886Y-102233020D01*
X59700057Y-102231780D01*
X59692165Y-102232526D01*
X59656039Y-102235941D01*
X59644181Y-102236500D01*
X57328737Y-102236500D01*
X57260616Y-102216498D01*
X57214123Y-102162842D01*
X57204019Y-102092568D01*
X57208178Y-102073872D01*
X57259905Y-101903617D01*
X57261408Y-101898671D01*
X57291640Y-101669041D01*
X57292554Y-101631638D01*
X57293245Y-101603365D01*
X57293245Y-101603361D01*
X57293327Y-101600000D01*
X57284651Y-101494476D01*
X57274773Y-101374318D01*
X57274772Y-101374312D01*
X57274349Y-101369167D01*
X57237336Y-101221812D01*
X57219184Y-101149544D01*
X57219183Y-101149540D01*
X57217925Y-101144533D01*
X57173130Y-101041511D01*
X57127630Y-100936868D01*
X57127628Y-100936865D01*
X57125570Y-100932131D01*
X56999764Y-100737665D01*
X56843887Y-100566358D01*
X56839836Y-100563159D01*
X56839832Y-100563155D01*
X56666177Y-100426011D01*
X56666172Y-100426008D01*
X56662123Y-100422810D01*
X56657607Y-100420317D01*
X56657604Y-100420315D01*
X56463879Y-100313373D01*
X56463875Y-100313371D01*
X56459355Y-100310876D01*
X56454486Y-100309152D01*
X56454482Y-100309150D01*
X56245903Y-100235288D01*
X56245899Y-100235287D01*
X56241028Y-100233562D01*
X56235935Y-100232655D01*
X56235932Y-100232654D01*
X56018095Y-100193851D01*
X56018089Y-100193850D01*
X56013006Y-100192945D01*
X55940096Y-100192054D01*
X55786581Y-100190179D01*
X55786579Y-100190179D01*
X55781411Y-100190116D01*
X55552464Y-100225150D01*
X55332314Y-100297106D01*
X55327726Y-100299494D01*
X55327722Y-100299496D01*
X55131601Y-100401590D01*
X55126872Y-100404052D01*
X55122739Y-100407155D01*
X55122736Y-100407157D01*
X54945790Y-100540012D01*
X54941655Y-100543117D01*
X54924170Y-100561414D01*
X54862646Y-100596844D01*
X54791733Y-100593387D01*
X54733947Y-100552141D01*
X54715094Y-100518592D01*
X54693768Y-100461705D01*
X54693767Y-100461703D01*
X54690615Y-100453295D01*
X54603261Y-100336739D01*
X54486705Y-100249385D01*
X54350316Y-100198255D01*
X54288134Y-100191500D01*
X52391866Y-100191500D01*
X52329684Y-100198255D01*
X52193295Y-100249385D01*
X52076739Y-100336739D01*
X51989385Y-100453295D01*
X51938255Y-100589684D01*
X51931500Y-100651866D01*
X51931500Y-102110500D01*
X51911498Y-102178621D01*
X51857842Y-102225114D01*
X51805500Y-102236500D01*
X50722893Y-102236500D01*
X50654772Y-102216498D01*
X50633798Y-102199595D01*
X47615708Y-99181505D01*
X47581683Y-99119194D01*
X47586748Y-99048379D01*
X47629295Y-98991543D01*
X47649372Y-98979259D01*
X47683100Y-98962736D01*
X47691945Y-98957464D01*
X47865328Y-98833792D01*
X47873200Y-98827139D01*
X48024052Y-98676812D01*
X48030730Y-98668965D01*
X48155003Y-98496020D01*
X48160313Y-98487183D01*
X48254670Y-98296267D01*
X48258469Y-98286672D01*
X48320377Y-98082910D01*
X48322555Y-98072837D01*
X48323986Y-98061962D01*
X48321775Y-98047778D01*
X48308617Y-98044000D01*
X46862000Y-98044000D01*
X46793879Y-98023998D01*
X46747386Y-97970342D01*
X46736000Y-97918000D01*
X46736000Y-97662000D01*
X46756002Y-97593879D01*
X46809658Y-97547386D01*
X46862000Y-97536000D01*
X48308344Y-97536000D01*
X48321875Y-97532027D01*
X48323180Y-97522947D01*
X48281214Y-97355875D01*
X48277894Y-97346124D01*
X48192972Y-97150814D01*
X48188105Y-97141739D01*
X48072426Y-96962926D01*
X48066136Y-96954757D01*
X47922806Y-96797240D01*
X47915273Y-96790215D01*
X47748139Y-96658222D01*
X47739556Y-96652520D01*
X47702602Y-96632120D01*
X47652631Y-96581687D01*
X47637859Y-96512245D01*
X47662975Y-96445839D01*
X47690327Y-96419232D01*
X47753977Y-96373831D01*
X47869860Y-96291173D01*
X47941954Y-96219331D01*
X48024435Y-96137137D01*
X48028096Y-96133489D01*
X48158453Y-95952077D01*
X48160746Y-95947437D01*
X48162446Y-95944608D01*
X48214674Y-95896518D01*
X48270451Y-95883500D01*
X56825406Y-95883500D01*
X56893527Y-95903502D01*
G37*
%TD.AperFunction*%
%TA.AperFunction,Conductor*%
G36*
X52445228Y-78123502D02*
G01*
X52466202Y-78140405D01*
X57794840Y-83469044D01*
X57828866Y-83531356D01*
X57823801Y-83602171D01*
X57781254Y-83659007D01*
X57763937Y-83669896D01*
X57693607Y-83706507D01*
X57689474Y-83709610D01*
X57689471Y-83709612D01*
X57524658Y-83833357D01*
X57514965Y-83840635D01*
X57511393Y-83844373D01*
X57433898Y-83925466D01*
X57372374Y-83960895D01*
X57301462Y-83957438D01*
X57243676Y-83916192D01*
X57224823Y-83882644D01*
X57183324Y-83771946D01*
X57174786Y-83756351D01*
X57098285Y-83654276D01*
X57085724Y-83641715D01*
X56983649Y-83565214D01*
X56968054Y-83556676D01*
X56847606Y-83511522D01*
X56832351Y-83507895D01*
X56781486Y-83502369D01*
X56774672Y-83502000D01*
X56152115Y-83502000D01*
X56136876Y-83506475D01*
X56135671Y-83507865D01*
X56134000Y-83515548D01*
X56134000Y-86199884D01*
X56138475Y-86215123D01*
X56139865Y-86216328D01*
X56147548Y-86217999D01*
X56774669Y-86217999D01*
X56781490Y-86217629D01*
X56832352Y-86212105D01*
X56847604Y-86208479D01*
X56968054Y-86163324D01*
X56983649Y-86154786D01*
X57085724Y-86078285D01*
X57098285Y-86065724D01*
X57174786Y-85963649D01*
X57183324Y-85948054D01*
X57224225Y-85838952D01*
X57266867Y-85782188D01*
X57333428Y-85757488D01*
X57402777Y-85772696D01*
X57437444Y-85800684D01*
X57462865Y-85830031D01*
X57462869Y-85830035D01*
X57466250Y-85833938D01*
X57638126Y-85976632D01*
X57831000Y-86089338D01*
X58039692Y-86169030D01*
X58044760Y-86170061D01*
X58044763Y-86170062D01*
X58152017Y-86191883D01*
X58258597Y-86213567D01*
X58263772Y-86213757D01*
X58263774Y-86213757D01*
X58476673Y-86221564D01*
X58476677Y-86221564D01*
X58481837Y-86221753D01*
X58486957Y-86221097D01*
X58486959Y-86221097D01*
X58698288Y-86194025D01*
X58698289Y-86194025D01*
X58703416Y-86193368D01*
X58768156Y-86173945D01*
X58912429Y-86130661D01*
X58912434Y-86130659D01*
X58917384Y-86129174D01*
X59117994Y-86030896D01*
X59299860Y-85901173D01*
X59305967Y-85895088D01*
X59413993Y-85787438D01*
X59458096Y-85743489D01*
X59517594Y-85660689D01*
X59585435Y-85566277D01*
X59588453Y-85562077D01*
X59609655Y-85519178D01*
X59657770Y-85466971D01*
X59726471Y-85449065D01*
X59793947Y-85471144D01*
X59811707Y-85485911D01*
X62828873Y-88503077D01*
X62862899Y-88565389D01*
X62865778Y-88592172D01*
X62865778Y-88690500D01*
X62845776Y-88758621D01*
X62792120Y-88805114D01*
X62739778Y-88816500D01*
X61326866Y-88816500D01*
X61264684Y-88823255D01*
X61128295Y-88874385D01*
X61011739Y-88961739D01*
X60924385Y-89078295D01*
X60873255Y-89214684D01*
X60866500Y-89276866D01*
X60866500Y-90585405D01*
X60846498Y-90653526D01*
X60829595Y-90674500D01*
X60734500Y-90769595D01*
X60672188Y-90803621D01*
X60645405Y-90806500D01*
X53368200Y-90806500D01*
X53300079Y-90786498D01*
X53280853Y-90770157D01*
X53280580Y-90770460D01*
X53275668Y-90766037D01*
X53271253Y-90761134D01*
X53116752Y-90648882D01*
X53110724Y-90646198D01*
X53110722Y-90646197D01*
X52948319Y-90573891D01*
X52948318Y-90573891D01*
X52942288Y-90571206D01*
X52848887Y-90551353D01*
X52761944Y-90532872D01*
X52761939Y-90532872D01*
X52755487Y-90531500D01*
X52564513Y-90531500D01*
X52558061Y-90532872D01*
X52558056Y-90532872D01*
X52471113Y-90551353D01*
X52377712Y-90571206D01*
X52371682Y-90573891D01*
X52371681Y-90573891D01*
X52209278Y-90646197D01*
X52209276Y-90646198D01*
X52203248Y-90648882D01*
X52048747Y-90761134D01*
X52044332Y-90766037D01*
X52039420Y-90770460D01*
X52038295Y-90769211D01*
X51984986Y-90802051D01*
X51951800Y-90806500D01*
X48574595Y-90806500D01*
X48506474Y-90786498D01*
X48485500Y-90769595D01*
X48385405Y-90669500D01*
X48351379Y-90607188D01*
X48348500Y-90580405D01*
X48348500Y-89271866D01*
X48341745Y-89209684D01*
X48290615Y-89073295D01*
X48203261Y-88956739D01*
X48086705Y-88869385D01*
X47950316Y-88818255D01*
X47888134Y-88811500D01*
X47357594Y-88811500D01*
X47289473Y-88791498D01*
X47242980Y-88737842D01*
X47232876Y-88667568D01*
X47262370Y-88602988D01*
X47268499Y-88596405D01*
X49036975Y-86827929D01*
X49045265Y-86820385D01*
X49051746Y-86816272D01*
X49098387Y-86766604D01*
X49101141Y-86763763D01*
X49120863Y-86744041D01*
X49123347Y-86740839D01*
X49131045Y-86731827D01*
X49155889Y-86705370D01*
X49161314Y-86699593D01*
X49171075Y-86681838D01*
X49181926Y-86665319D01*
X49194342Y-86649313D01*
X49197492Y-86642034D01*
X49211902Y-86608735D01*
X49217119Y-86598085D01*
X49238423Y-86559332D01*
X49243461Y-86539709D01*
X49249865Y-86521006D01*
X49254761Y-86509692D01*
X49254761Y-86509691D01*
X49257909Y-86502417D01*
X49259148Y-86494594D01*
X49259151Y-86494584D01*
X49264827Y-86458748D01*
X49267233Y-86447128D01*
X49276256Y-86411983D01*
X49276256Y-86411982D01*
X49278228Y-86404302D01*
X49278228Y-86384048D01*
X49279779Y-86364337D01*
X49281708Y-86352158D01*
X49282948Y-86344329D01*
X49278787Y-86300310D01*
X49278228Y-86288453D01*
X49278228Y-84826695D01*
X51977251Y-84826695D01*
X51977548Y-84831848D01*
X51977548Y-84831851D01*
X51979893Y-84872522D01*
X51990110Y-85049715D01*
X51991247Y-85054761D01*
X51991248Y-85054767D01*
X51999947Y-85093365D01*
X52039222Y-85267639D01*
X52123266Y-85474616D01*
X52140307Y-85502425D01*
X52197928Y-85596453D01*
X52239987Y-85665088D01*
X52386250Y-85833938D01*
X52558126Y-85976632D01*
X52751000Y-86089338D01*
X52959692Y-86169030D01*
X52964760Y-86170061D01*
X52964763Y-86170062D01*
X53072017Y-86191883D01*
X53178597Y-86213567D01*
X53183772Y-86213757D01*
X53183774Y-86213757D01*
X53396673Y-86221564D01*
X53396677Y-86221564D01*
X53401837Y-86221753D01*
X53406957Y-86221097D01*
X53406959Y-86221097D01*
X53618288Y-86194025D01*
X53618289Y-86194025D01*
X53623416Y-86193368D01*
X53688156Y-86173945D01*
X53832429Y-86130661D01*
X53832434Y-86130659D01*
X53837384Y-86129174D01*
X54037994Y-86030896D01*
X54219860Y-85901173D01*
X54225967Y-85895088D01*
X54328479Y-85792933D01*
X54390851Y-85759017D01*
X54461658Y-85764205D01*
X54518419Y-85806851D01*
X54535401Y-85837954D01*
X54576676Y-85948054D01*
X54585214Y-85963649D01*
X54661715Y-86065724D01*
X54674276Y-86078285D01*
X54776351Y-86154786D01*
X54791946Y-86163324D01*
X54912394Y-86208478D01*
X54927649Y-86212105D01*
X54978514Y-86217631D01*
X54985328Y-86218000D01*
X55607885Y-86218000D01*
X55623124Y-86213525D01*
X55624329Y-86212135D01*
X55626000Y-86204452D01*
X55626000Y-83520116D01*
X55621525Y-83504877D01*
X55620135Y-83503672D01*
X55612452Y-83502001D01*
X54985331Y-83502001D01*
X54978510Y-83502371D01*
X54927648Y-83507895D01*
X54912396Y-83511521D01*
X54791946Y-83556676D01*
X54776351Y-83565214D01*
X54674276Y-83641715D01*
X54661715Y-83654276D01*
X54585214Y-83756351D01*
X54576676Y-83771946D01*
X54535297Y-83882322D01*
X54492655Y-83939087D01*
X54426093Y-83963786D01*
X54356744Y-83948578D01*
X54324121Y-83922891D01*
X54273151Y-83866876D01*
X54273148Y-83866873D01*
X54269670Y-83863051D01*
X54265619Y-83859852D01*
X54265615Y-83859848D01*
X54098414Y-83727800D01*
X54098410Y-83727798D01*
X54094359Y-83724598D01*
X54084054Y-83718909D01*
X54008416Y-83677155D01*
X53898789Y-83616638D01*
X53893920Y-83614914D01*
X53893916Y-83614912D01*
X53693087Y-83543795D01*
X53693083Y-83543794D01*
X53688212Y-83542069D01*
X53683119Y-83541162D01*
X53683116Y-83541161D01*
X53473373Y-83503800D01*
X53473367Y-83503799D01*
X53468284Y-83502894D01*
X53394452Y-83501992D01*
X53250081Y-83500228D01*
X53250079Y-83500228D01*
X53244911Y-83500165D01*
X53024091Y-83533955D01*
X52811756Y-83603357D01*
X52781443Y-83619137D01*
X52669992Y-83677155D01*
X52613607Y-83706507D01*
X52609474Y-83709610D01*
X52609471Y-83709612D01*
X52444658Y-83833357D01*
X52434965Y-83840635D01*
X52396043Y-83881364D01*
X52343348Y-83936507D01*
X52280629Y-84002138D01*
X52277715Y-84006410D01*
X52277714Y-84006411D01*
X52231354Y-84074373D01*
X52154743Y-84186680D01*
X52060688Y-84389305D01*
X52000989Y-84604570D01*
X51977251Y-84826695D01*
X49278228Y-84826695D01*
X49278228Y-82505496D01*
X49278755Y-82494313D01*
X49280430Y-82486820D01*
X49278290Y-82418729D01*
X49278228Y-82414772D01*
X49278228Y-82386872D01*
X49277724Y-82382881D01*
X49276791Y-82371039D01*
X49275651Y-82334764D01*
X49275402Y-82326839D01*
X49269749Y-82307380D01*
X49265740Y-82288021D01*
X49265574Y-82286711D01*
X49263202Y-82267931D01*
X49260286Y-82260565D01*
X49260284Y-82260559D01*
X49246928Y-82226826D01*
X49243083Y-82215596D01*
X49232958Y-82180745D01*
X49232958Y-82180744D01*
X49230747Y-82173135D01*
X49220433Y-82155694D01*
X49211736Y-82137941D01*
X49207200Y-82126486D01*
X49204280Y-82119111D01*
X49178291Y-82083340D01*
X49171775Y-82073420D01*
X49153306Y-82042191D01*
X49149270Y-82035366D01*
X49134949Y-82021045D01*
X49122108Y-82006011D01*
X49114859Y-81996034D01*
X49110200Y-81989621D01*
X49104096Y-81984571D01*
X49104091Y-81984566D01*
X49076130Y-81961435D01*
X49067349Y-81953445D01*
X48328502Y-81214597D01*
X48294477Y-81152285D01*
X48299616Y-81081273D01*
X48338478Y-80977609D01*
X48342105Y-80962351D01*
X48347631Y-80911486D01*
X48348000Y-80904672D01*
X48348000Y-80282115D01*
X48343525Y-80266876D01*
X48342135Y-80265671D01*
X48334452Y-80264000D01*
X46862000Y-80264000D01*
X46793879Y-80243998D01*
X46747386Y-80190342D01*
X46736000Y-80138000D01*
X46736000Y-79882000D01*
X46756002Y-79813879D01*
X46809658Y-79767386D01*
X46862000Y-79756000D01*
X48329884Y-79756000D01*
X48345123Y-79751525D01*
X48346328Y-79750135D01*
X48347999Y-79742452D01*
X48347999Y-79115331D01*
X48347629Y-79108510D01*
X48342105Y-79057648D01*
X48338479Y-79042396D01*
X48293324Y-78921946D01*
X48284786Y-78906351D01*
X48208285Y-78804276D01*
X48195724Y-78791715D01*
X48093649Y-78715214D01*
X48078054Y-78706676D01*
X47967813Y-78665348D01*
X47911049Y-78622706D01*
X47886349Y-78556145D01*
X47901557Y-78486796D01*
X47923104Y-78458115D01*
X48024430Y-78357144D01*
X48024440Y-78357132D01*
X48028096Y-78353489D01*
X48087594Y-78270689D01*
X48155435Y-78176277D01*
X48158453Y-78172077D01*
X48160746Y-78167437D01*
X48162446Y-78164608D01*
X48214674Y-78116518D01*
X48270451Y-78103500D01*
X52377107Y-78103500D01*
X52445228Y-78123502D01*
G37*
%TD.AperFunction*%
%TD*%
M02*
