M48
; DRILL file {KiCad (6.0.6)} date Sat Aug  6 18:53:42 2022
; FORMAT={-:-/ absolute / inch / decimal}
; #@! TF.CreationDate,2022-08-06T18:53:42-04:00
; #@! TF.GenerationSoftware,Kicad,Pcbnew,(6.0.6)
; #@! TF.FileFunction,Plated,1,2,PTH
FMAT,2
INCH
; #@! TA.AperFunction,Plated,PTH,ViaDrill
T1C0.0157
; #@! TA.AperFunction,Plated,PTH,ComponentDrill
T2C0.0315
; #@! TA.AperFunction,Plated,PTH,ComponentDrill
T3C0.0354
; #@! TA.AperFunction,Plated,PTH,ComponentDrill
T4C0.0394
; #@! TA.AperFunction,Plated,PTH,ComponentDrill
T5C0.0402
%
G90
G05
T1
X1.85Y-4.0
X2.0732Y-3.6
T2
X2.05Y-4.15
X2.05Y-4.45
X2.2Y-4.15
X2.2Y-4.45
T3
X2.1Y-4.0
X2.2Y-4.0
T4
X1.85Y-3.55
X1.85Y-3.65
X1.85Y-3.75
X1.85Y-3.85
X1.85Y-4.1504
X1.85Y-4.2504
X1.85Y-4.3504
X1.85Y-4.4504
X2.4498Y-3.5502
X2.4498Y-3.6502
X2.4498Y-3.7502
X2.4498Y-3.8502
X2.4498Y-3.9502
X2.4498Y-4.0502
X2.4498Y-4.1502
X2.4498Y-4.2502
X2.4498Y-4.3502
X2.4498Y-4.4502
X2.5498Y-3.5502
X2.5498Y-3.6502
X2.5498Y-3.7502
X2.5498Y-3.8502
X2.5498Y-3.9502
X2.5498Y-4.0502
X2.5498Y-4.1502
X2.5498Y-4.2502
X2.5498Y-4.3502
X2.5498Y-4.4502
T5
X1.85Y-1.45
X1.85Y-1.55
X1.85Y-1.65
X1.85Y-1.75
X1.85Y-1.85
X1.85Y-1.95
X1.85Y-2.05
X1.85Y-2.15
X1.85Y-2.25
X1.85Y-2.35
X1.85Y-2.45
X1.85Y-2.55
X1.85Y-2.65
X1.85Y-2.75
X1.85Y-2.85
X1.85Y-2.95
X1.85Y-3.05
X1.85Y-3.15
X1.85Y-3.25
X1.85Y-3.35
X2.1Y-3.3409
X2.2Y-3.3409
X2.3Y-3.3409
X2.55Y-1.45
X2.55Y-1.55
X2.55Y-1.65
X2.55Y-1.75
X2.55Y-1.85
X2.55Y-1.95
X2.55Y-2.05
X2.55Y-2.15
X2.55Y-2.25
X2.55Y-2.35
X2.55Y-2.45
X2.55Y-2.55
X2.55Y-2.65
X2.55Y-2.75
X2.55Y-2.85
X2.55Y-2.95
X2.55Y-3.05
X2.55Y-3.15
X2.55Y-3.25
X2.55Y-3.35
T0
M30
